Sweynheim&Pannartz-Subiaco-ProtoRoman120R-1.1.ufo
<glyph name="ampersand" format="2">
	<advance width="752"/>
	<unicode hex="0026"/>
	<outline>
		<contour>
			<point x="180" y="-11" type="curve" smooth="yes"/>
			<point x="254" y="-11"/>
			<point x="341" y="38"/>
			<point x="409" y="92" type="curve"/>
			<point x="472" y="46"/>
			<point x="540" y="1"/>
			<point x="584" y="-10" type="curve"/>
			<point x="632" y="30"/>
			<point x="708" y="125"/>
			<point x="742" y="211" type="curve"/>
			<point x="712" y="223" type="line"/>
			<point x="692" y="184"/>
			<point x="658" y="128"/>
			<point x="619" y="128" type="curve" smooth="yes"/>
			<point x="584" y="128"/>
			<point x="535" y="148"/>
			<point x="490" y="171" type="curve"/>
			<point x="586" y="281"/>
			<point x="624" y="362"/>
			<point x="679" y="492" type="curve"/>
			<point x="676" y="498" type="line"/>
			<point x="521" y="494" type="line"/>
			<point x="521" y="469" type="line"/>
			<point x="540" y="459"/>
			<point x="560" y="442"/>
			<point x="560" y="405" type="curve" smooth="yes"/>
			<point x="560" y="341"/>
			<point x="509" y="249"/>
			<point x="456" y="189" type="curve"/>
			<point x="426" y="206"/>
			<point x="401" y="222"/>
			<point x="387" y="232" type="curve" smooth="yes"/>
			<point x="357" y="253"/>
			<point x="299" y="289"/>
			<point x="255" y="327" type="curve"/>
			<point x="294" y="346"/>
			<point x="322" y="370"/>
			<point x="347" y="395" type="curve"/>
			<point x="357" y="474"/>
			<point x="302" y="516"/>
			<point x="233" y="516" type="curve" smooth="yes"/>
			<point x="179" y="516"/>
			<point x="124" y="484"/>
			<point x="124" y="400" type="curve" smooth="yes"/>
			<point x="124" y="374"/>
			<point x="136" y="347"/>
			<point x="155" y="319" type="curve"/>
			<point x="71" y="271"/>
			<point x="30" y="221"/>
			<point x="30" y="136" type="curve" smooth="yes"/>
			<point x="30" y="37"/>
			<point x="90" y="-11"/>
		</contour>
		<contour>
			<point x="234" y="346" type="curve"/>
			<point x="210" y="369"/>
			<point x="194" y="393"/>
			<point x="194" y="414" type="curve" smooth="yes"/>
			<point x="194" y="442"/>
			<point x="207" y="457"/>
			<point x="236" y="457" type="curve" smooth="yes"/>
			<point x="268" y="457"/>
			<point x="277" y="435"/>
			<point x="277" y="410" type="curve" smooth="yes"/>
			<point x="277" y="379"/>
			<point x="261" y="359"/>
		</contour>
		<contour>
			<point x="237" y="85" type="curve" smooth="yes"/>
			<point x="167" y="85"/>
			<point x="107" y="121"/>
			<point x="107" y="191" type="curve" smooth="yes"/>
			<point x="107" y="240"/>
			<point x="139" y="273"/>
			<point x="174" y="293" type="curve"/>
			<point x="210" y="250"/>
			<point x="259" y="208"/>
			<point x="301" y="175" type="curve" smooth="yes"/>
			<point x="371" y="120" type="line"/>
			<point x="328" y="97"/>
			<point x="282" y="85"/>
		</contour>
	</outline>
</glyph>
<glyph name="hyphen" format="2">
	<advance width="339"/>
	<unicode hex="002D"/>
	<outline>
		<contour>
			<point x="50" y="78" type="line"/>
			<point x="64" y="74" type="line"/>
			<point x="121" y="104"/>
			<point x="209" y="143"/>
			<point x="283" y="170" type="curve"/>
			<point x="289" y="277" type="line"/>
			<point x="270" y="277" type="line"/>
			<point x="213" y="214"/>
			<point x="126" y="170"/>
			<point x="51" y="134" type="curve"/>
		</contour>
	</outline>
</glyph>
<glyph name="period" format="2">
	<advance width="186"/>
	<unicode hex="002E"/>
	<outline>
		<contour>
			<point x="85" y="-9" type="curve"/>
			<point x="85" y="-9" type="line"/>
			<point x="87" y="-9" type="line"/>
			<point x="116" y="13"/>
			<point x="143" y="39"/>
			<point x="166" y="64" type="curve"/>
			<point x="166" y="68" type="line"/>
			<point x="146" y="96"/>
			<point x="124" y="124"/>
			<point x="98" y="149" type="curve"/>
			<point x="69" y="126"/>
			<point x="43" y="100"/>
			<point x="20" y="74" type="curve"/>
			<point x="20" y="71" type="line"/>
			<point x="40" y="42"/>
			<point x="61" y="15"/>
		</contour>
	</outline>
</glyph>
<glyph name="colon" format="2">
	<advance width="161"/>
	<unicode hex="003A"/>
	<outline>
		<contour>
			<point x="74" y="259" type="curve"/>
			<point x="75" y="259" type="line"/>
			<point x="99" y="277"/>
			<point x="122" y="298"/>
			<point x="141" y="319" type="curve"/>
			<point x="141" y="322" type="line"/>
			<point x="124" y="345"/>
			<point x="106" y="368"/>
			<point x="84" y="389" type="curve"/>
			<point x="60" y="370"/>
			<point x="39" y="349"/>
			<point x="20" y="327" type="curve"/>
			<point x="20" y="325" type="line"/>
			<point x="36" y="301"/>
			<point x="54" y="278"/>
		</contour>
		<contour>
			<point x="74" y="12" type="curve"/>
			<point x="75" y="12" type="line"/>
			<point x="99" y="30"/>
			<point x="122" y="51"/>
			<point x="141" y="72" type="curve"/>
			<point x="141" y="75" type="line"/>
			<point x="124" y="98"/>
			<point x="106" y="121"/>
			<point x="84" y="142" type="curve"/>
			<point x="60" y="123"/>
			<point x="39" y="102"/>
			<point x="20" y="80" type="curve"/>
			<point x="20" y="78" type="line"/>
			<point x="36" y="54"/>
			<point x="54" y="31"/>
		</contour>
	</outline>
</glyph>
<glyph name="question" format="2">
	<advance width="442"/>
	<unicode hex="003F"/>
	<outline>
		<contour>
			<point x="141" y="319" type="curve"/>
			<point x="141" y="319" type="line"/>
			<point x="201" y="420" type="line"/>
			<point x="170" y="430"/>
			<point x="113" y="454"/>
			<point x="113" y="490" type="curve"/>
			<point x="134" y="515"/>
			<point x="224" y="486"/>
			<point x="299" y="477" type="curve"/>
			<point x="326" y="495"/>
			<point x="425" y="604"/>
			<point x="472" y="681" type="curve"/>
			<point x="440" y="697" type="line"/>
			<point x="382" y="625"/>
			<point x="321" y="586"/>
			<point x="282" y="586" type="curve"/>
			<point x="242" y="586"/>
			<point x="196" y="599"/>
			<point x="147" y="594" type="curve"/>
			<point x="100" y="559"/>
			<point x="48" y="497"/>
			<point x="48" y="418" type="curve"/>
			<point x="48" y="363"/>
			<point x="81" y="338"/>
		</contour>
		<contour>
			<point x="110" y="-9" type="curve"/>
			<point x="110" y="-9" type="line"/>
			<point x="112" y="-9" type="line"/>
			<point x="141" y="13"/>
			<point x="168" y="39"/>
			<point x="191" y="64" type="curve"/>
			<point x="191" y="68" type="line"/>
			<point x="171" y="96"/>
			<point x="149" y="124"/>
			<point x="123" y="149" type="curve"/>
			<point x="94" y="126"/>
			<point x="68" y="100"/>
			<point x="45" y="74" type="curve"/>
			<point x="45" y="71" type="line"/>
			<point x="65" y="42"/>
			<point x="86" y="15"/>
		</contour>
	</outline>
</glyph>
<glyph name="A" format="2">
	<advance width="669"/>
	<unicode hex="0041"/>
	<outline>
		<contour>
			<point x="5" y="0" type="line"/>
			<point x="46" y="3"/>
			<point x="88" y="3"/>
			<point x="129" y="0" type="curve"/>
			<point x="129" y="30" type="line"/>
			<point x="91" y="55"/>
			<point x="92" y="71"/>
			<point x="108" y="116" type="curve" smooth="yes"/>
			<point x="126" y="168"/>
			<point x="153" y="233"/>
			<point x="181" y="299" type="curve"/>
			<point x="422" y="299" type="line"/>
			<point x="454" y="228"/>
			<point x="486" y="155"/>
			<point x="514" y="88" type="curve" smooth="yes"/>
			<point x="529" y="51"/>
			<point x="510" y="47"/>
			<point x="484" y="30" type="curve"/>
			<point x="484" y="0" type="line"/>
			<point x="540" y="2"/>
			<point x="606" y="2"/>
			<point x="664" y="0" type="curve"/>
			<point x="664" y="30" type="line"/>
			<point x="396" y="577" type="line" smooth="yes"/>
			<point x="377" y="616"/>
			<point x="365" y="657"/>
			<point x="352" y="700" type="curve"/>
			<point x="291" y="700" type="line"/>
			<point x="282" y="670"/>
			<point x="278" y="647"/>
			<point x="253" y="590" type="curve" smooth="yes"/>
			<point x="5" y="30" type="line"/>
		</contour>
		<contour>
			<point x="200" y="343" type="line"/>
			<point x="240" y="436"/>
			<point x="280" y="526"/>
			<point x="299" y="582" type="curve"/>
			<point x="319" y="527"/>
			<point x="358" y="439"/>
			<point x="402" y="343" type="curve"/>
		</contour>
	</outline>
</glyph>
<glyph name="B" format="2">
	<advance width="641"/>
	<unicode hex="0042"/>
	<outline>
		<contour>
			<point x="355" y="-10" type="curve"/>
			<point x="355" y="-10" type="line"/>
			<point x="475" y="-10"/>
			<point x="611" y="65"/>
			<point x="611" y="205" type="curve"/>
			<point x="611" y="335"/>
			<point x="519" y="385"/>
			<point x="355" y="407" type="curve"/>
			<point x="429" y="425"/>
			<point x="510" y="471"/>
			<point x="510" y="567" type="curve"/>
			<point x="510" y="663"/>
			<point x="408" y="710"/>
			<point x="318" y="710" type="curve"/>
			<point x="213" y="710"/>
			<point x="116" y="649"/>
			<point x="35" y="643" type="curve"/>
			<point x="35" y="608" type="line"/>
			<point x="92" y="608" type="line"/>
			<point x="105" y="465"/>
			<point x="102" y="164"/>
			<point x="88" y="28" type="curve"/>
			<point x="163" y="14"/>
			<point x="240" y="-10"/>
		</contour>
		<contour>
			<point x="245" y="406" type="curve"/>
			<point x="198" y="401" type="line"/>
			<point x="198" y="637" type="line"/>
			<point x="272" y="675"/>
			<point x="407" y="661"/>
			<point x="407" y="546" type="curve"/>
			<point x="407" y="456"/>
			<point x="334" y="415"/>
		</contour>
		<contour>
			<point x="342" y="35" type="curve"/>
			<point x="342" y="35" type="line"/>
			<point x="278" y="35"/>
			<point x="198" y="57"/>
			<point x="198" y="144" type="curve"/>
			<point x="198" y="363" type="line"/>
			<point x="291" y="368" type="line" smooth="yes"/>
			<point x="421" y="374"/>
			<point x="496" y="309"/>
			<point x="496" y="199" type="curve"/>
			<point x="496" y="109"/>
			<point x="442" y="35"/>
		</contour>
	</outline>
</glyph>
<glyph name="C" format="2">
	<advance width="587"/>
	<unicode hex="0043"/>
	<outline>
		<contour>
			<point x="362" y="-10" type="curve"/>
			<point x="362" y="-10" type="line"/>
			<point x="439" y="27"/>
			<point x="537" y="98"/>
			<point x="582" y="136" type="curve"/>
			<point x="576" y="169" type="line"/>
			<point x="518" y="134"/>
			<point x="455" y="91"/>
			<point x="370" y="91" type="curve"/>
			<point x="245" y="91"/>
			<point x="127" y="215"/>
			<point x="127" y="395" type="curve"/>
			<point x="127" y="534"/>
			<point x="180" y="596"/>
			<point x="234" y="626" type="curve"/>
			<point x="297" y="634"/>
			<point x="415" y="618"/>
			<point x="473" y="585" type="curve"/>
			<point x="543" y="665" type="line"/>
			<point x="546" y="682" type="line"/>
			<point x="488" y="699"/>
			<point x="376" y="716"/>
			<point x="303" y="710" type="curve"/>
			<point x="183" y="682"/>
			<point x="40" y="552"/>
			<point x="40" y="362" type="curve"/>
			<point x="40" y="132"/>
			<point x="172" y="-1"/>
		</contour>
	</outline>
</glyph>
<glyph name="D" format="2">
	<advance width="750"/>
	<unicode hex="0044"/>
	<outline>
		<contour>
			<point x="60" y="-10" type="line"/>
			<point x="140" y="31"/>
			<point x="223" y="-10"/>
			<point x="356" y="-10" type="curve" smooth="yes"/>
			<point x="546" y="-10"/>
			<point x="710" y="151"/>
			<point x="710" y="361" type="curve" smooth="yes"/>
			<point x="710" y="571"/>
			<point x="542" y="710"/>
			<point x="321" y="710" type="curve" smooth="yes"/>
			<point x="211" y="710"/>
			<point x="151" y="672"/>
			<point x="59" y="700" type="curve"/>
			<point x="40" y="669" type="line"/>
			<point x="81" y="647"/>
			<point x="93" y="632"/>
			<point x="95" y="590" type="curve" smooth="yes"/>
			<point x="105" y="389"/>
			<point x="95" y="155"/>
			<point x="91" y="101" type="curve" smooth="yes"/>
			<point x="88" y="62"/>
			<point x="78" y="34"/>
			<point x="57" y="24" type="curve"/>
		</contour>
		<contour>
			<point x="359" y="41" type="curve" smooth="yes"/>
			<point x="293" y="41"/>
			<point x="256" y="48"/>
			<point x="202" y="59" type="curve"/>
			<point x="192" y="195"/>
			<point x="188" y="492"/>
			<point x="204" y="642" type="curve"/>
			<point x="237" y="654"/>
			<point x="272" y="659"/>
			<point x="332" y="659" type="curve" smooth="yes"/>
			<point x="494" y="659"/>
			<point x="593" y="523"/>
			<point x="593" y="351" type="curve" smooth="yes"/>
			<point x="593" y="161"/>
			<point x="508" y="41"/>
		</contour>
	</outline>
</glyph>
<glyph name="E" format="2">
	<advance width="442"/>
	<unicode hex="0045"/>
	<outline>
		<contour>
			<point x="381" y="-52" type="curve"/>
			<point x="381" y="-52" type="line"/>
			<point x="402" y="-50" type="line"/>
			<point x="397" y="-2"/>
			<point x="395" y="46"/>
			<point x="397" y="121" type="curve"/>
			<point x="377" y="121" type="line"/>
			<point x="357" y="61"/>
			<point x="331" y="51"/>
			<point x="282" y="51" type="curve"/>
			<point x="164" y="51" type="line"/>
			<point x="164" y="331" type="line"/>
			<point x="300" y="331" type="line" smooth="yes"/>
			<point x="352" y="331"/>
			<point x="352" y="321"/>
			<point x="367" y="272" type="curve"/>
			<point x="387" y="272" type="line"/>
			<point x="386" y="416" type="line"/>
			<point x="363" y="416" type="line"/>
			<point x="343" y="381"/>
			<point x="339" y="379"/>
			<point x="284" y="379" type="curve"/>
			<point x="164" y="379" type="line"/>
			<point x="164" y="652" type="line"/>
			<point x="259" y="652" type="line" smooth="yes"/>
			<point x="338" y="652"/>
			<point x="336" y="641"/>
			<point x="371" y="576" type="curve"/>
			<point x="389" y="576" type="line"/>
			<point x="401" y="705" type="line"/>
			<point x="277" y="700"/>
			<point x="164" y="700"/>
			<point x="40" y="704" type="curve"/>
			<point x="40" y="680" type="line"/>
			<point x="56" y="655"/>
			<point x="59" y="651"/>
			<point x="60" y="607" type="curve"/>
			<point x="63" y="473"/>
			<point x="62" y="261"/>
			<point x="60" y="115" type="curve"/>
			<point x="59" y="52"/>
			<point x="58" y="53"/>
			<point x="44" y="23" type="curve"/>
			<point x="44" y="-5" type="line"/>
			<point x="128" y="5"/>
			<point x="213" y="0"/>
			<point x="259" y="0" type="curve"/>
			<point x="330" y="0"/>
			<point x="363" y="-6"/>
		</contour>
	</outline>
</glyph>
<glyph name="F" format="2">
	<advance width="437"/>
	<unicode hex="0046"/>
	<outline>
		<contour>
			<point x="48" y="30" type="curve"/>
			<point x="48" y="0" type="line"/>
			<point x="267" y="0" type="line"/>
			<point x="267" y="30" type="line"/>
			<point x="176" y="46"/>
			<point x="170" y="47"/>
			<point x="170" y="85" type="curve"/>
			<point x="170" y="327" type="line"/>
			<point x="303" y="327" type="line" smooth="yes"/>
			<point x="342" y="327"/>
			<point x="354" y="323"/>
			<point x="372" y="279" type="curve"/>
			<point x="387" y="280" type="line"/>
			<point x="395" y="433" type="line"/>
			<point x="367" y="434" type="line"/>
			<point x="357" y="380"/>
			<point x="359" y="376"/>
			<point x="294" y="376" type="curve"/>
			<point x="170" y="376" type="line"/>
			<point x="170" y="650" type="line"/>
			<point x="304" y="650" type="line" smooth="yes"/>
			<point x="349" y="650"/>
			<point x="348" y="649"/>
			<point x="386" y="572" type="curve"/>
			<point x="407" y="574" type="line"/>
			<point x="396" y="704" type="line"/>
			<point x="277" y="699"/>
			<point x="167" y="700"/>
			<point x="40" y="705" type="curve"/>
			<point x="40" y="674" type="line"/>
			<point x="59" y="651"/>
			<point x="65" y="647"/>
			<point x="65" y="611" type="curve"/>
			<point x="65" y="430"/>
			<point x="71" y="263"/>
			<point x="65" y="82" type="curve"/>
			<point x="64" y="52"/>
			<point x="60" y="43"/>
		</contour>
	</outline>
</glyph>
<glyph name="G" format="2">
	<advance width="691"/>
	<unicode hex="0047"/>
	<outline>
		<contour>
			<point x="368" y="-10" type="curve" smooth="yes"/>
			<point x="498" y="-10"/>
			<point x="569" y="33"/>
			<point x="648" y="53" type="curve"/>
			<point x="633" y="178"/>
			<point x="623" y="277"/>
			<point x="636" y="430" type="curve"/>
			<point x="629" y="434" type="line"/>
			<point x="568" y="423"/>
			<point x="442" y="423"/>
			<point x="294" y="442" type="curve"/>
			<point x="275" y="382" type="line"/>
			<point x="345" y="377"/>
			<point x="475" y="375"/>
			<point x="545" y="369" type="curve"/>
			<point x="550" y="272"/>
			<point x="550" y="183"/>
			<point x="545" y="76" type="curve"/>
			<point x="305" y="26"/>
			<point x="120" y="164"/>
			<point x="120" y="380" type="curve" smooth="yes"/>
			<point x="120" y="480"/>
			<point x="157" y="550"/>
			<point x="218" y="604" type="curve"/>
			<point x="341" y="646"/>
			<point x="484" y="625"/>
			<point x="587" y="547" type="curve"/>
			<point x="602" y="546" type="line"/>
			<point x="651" y="621" type="line"/>
			<point x="583" y="700"/>
			<point x="379" y="735"/>
			<point x="249" y="679" type="curve"/>
			<point x="159" y="631"/>
			<point x="40" y="515"/>
			<point x="40" y="320" type="curve" smooth="yes"/>
			<point x="40" y="110"/>
			<point x="183" y="-10"/>
		</contour>
	</outline>
</glyph>
<glyph name="H" format="2">
	<advance width="763"/>
	<unicode hex="0048"/>
	<outline>
		<contour>
			<point x="40" y="32" type="curve"/>
			<point x="40" y="-3" type="line"/>
			<point x="99" y="4"/>
			<point x="168" y="2"/>
			<point x="264" y="-3" type="curve"/>
			<point x="264" y="35" type="line"/>
			<point x="167" y="52"/>
			<point x="176" y="61"/>
			<point x="176" y="117" type="curve"/>
			<point x="176" y="335" type="line"/>
			<point x="310" y="339"/>
			<point x="444" y="339"/>
			<point x="578" y="334" type="curve"/>
			<point x="578" y="238"/>
			<point x="578" y="143"/>
			<point x="574" y="47" type="curve"/>
			<point x="478" y="37" type="line"/>
			<point x="478" y="-3" type="line"/>
			<point x="595" y="2"/>
			<point x="665" y="5"/>
			<point x="728" y="-3" type="curve"/>
			<point x="728" y="32" type="line"/>
			<point x="703" y="42"/>
			<point x="683" y="76"/>
			<point x="683" y="238" type="curve"/>
			<point x="683" y="304" type="line" smooth="yes"/>
			<point x="683" y="484"/>
			<point x="688" y="561"/>
			<point x="694" y="615" type="curve"/>
			<point x="564" y="614" type="line"/>
			<point x="573" y="532"/>
			<point x="578" y="465"/>
			<point x="578" y="387" type="curve"/>
			<point x="444" y="384"/>
			<point x="310" y="384"/>
			<point x="176" y="387" type="curve"/>
			<point x="176" y="657" type="line"/>
			<point x="289" y="661" type="line"/>
			<point x="289" y="703" type="line"/>
			<point x="221" y="698"/>
			<point x="118" y="698"/>
			<point x="58" y="703" type="curve"/>
			<point x="51" y="678" type="line"/>
			<point x="67" y="635"/>
			<point x="67" y="581"/>
			<point x="71" y="460" type="curve"/>
			<point x="74" y="361"/>
			<point x="74" y="262"/>
			<point x="71" y="163" type="curve"/>
			<point x="68" y="53"/>
			<point x="58" y="44"/>
		</contour>
	</outline>
</glyph>
<glyph name="I" format="2">
	<advance width="294"/>
	<unicode hex="0049"/>
	<outline>
		<contour>
			<point x="19" y="-3" type="line"/>
			<point x="96" y="-1"/>
			<point x="172" y="0"/>
			<point x="224" y="0" type="curve"/>
			<point x="224" y="35" type="line"/>
			<point x="210" y="55"/>
			<point x="207" y="402"/>
			<point x="215" y="594" type="curve" smooth="yes"/>
			<point x="217" y="644"/>
			<point x="219" y="652"/>
			<point x="254" y="684" type="curve"/>
			<point x="236" y="710" type="line"/>
			<point x="169" y="684"/>
			<point x="131" y="673"/>
			<point x="5" y="660" type="curve"/>
			<point x="7" y="625" type="line"/>
			<point x="97" y="629" type="line"/>
			<point x="105" y="582"/>
			<point x="107" y="494"/>
			<point x="108" y="395" type="curve"/>
			<point x="82" y="372"/>
			<point x="65" y="364"/>
			<point x="38" y="350" type="curve"/>
			<point x="42" y="334" type="line"/>
			<point x="86" y="332"/>
			<point x="105" y="326"/>
			<point x="108" y="285" type="curve"/>
			<point x="108" y="93" type="line" smooth="yes"/>
			<point x="108" y="44"/>
			<point x="93" y="43"/>
			<point x="19" y="28" type="curve"/>
		</contour>
	</outline>
</glyph>
<glyph name="J" format="2">
	<advance width="299"/>
	<unicode hex="004A"/>
	<outline>
		<contour>
			<point x="44" y="-221" type="curve"/>
			<point x="74" y="-246" type="line"/>
			<point x="113" y="-168"/>
			<point x="164" y="-66"/>
			<point x="219" y="35" type="curve"/>
			<point x="205" y="55"/>
			<point x="212" y="402"/>
			<point x="220" y="594" type="curve"/>
			<point x="222" y="644"/>
			<point x="224" y="652"/>
			<point x="259" y="684" type="curve"/>
			<point x="241" y="710" type="line"/>
			<point x="174" y="684"/>
			<point x="136" y="673"/>
			<point x="10" y="660" type="curve"/>
			<point x="12" y="625" type="line"/>
			<point x="102" y="629" type="line"/>
			<point x="109" y="589"/>
			<point x="111" y="517"/>
			<point x="113" y="434" type="curve"/>
			<point x="87" y="412"/>
			<point x="70" y="404"/>
			<point x="43" y="390" type="curve"/>
			<point x="47" y="374" type="line"/>
			<point x="91" y="372"/>
			<point x="110" y="366"/>
			<point x="113" y="326" type="curve"/>
			<point x="113" y="305" type="line"/>
			<point x="88" y="282"/>
			<point x="70" y="274"/>
			<point x="43" y="260" type="curve"/>
			<point x="47" y="244" type="line"/>
			<point x="90" y="242"/>
			<point x="109" y="237"/>
			<point x="113" y="198" type="curve"/>
			<point x="113" y="93" type="line" smooth="yes"/>
			<point x="113" y="44"/>
			<point x="95" y="-104"/>
		</contour>
	</outline>
</glyph>
<glyph name="K" format="2">
	<advance width="616"/>
	<unicode hex="004B"/>
	<outline>
		<contour>
			<point x="40" y="-3" type="line"/>
			<point x="68" y="3"/>
			<point x="188" y="3"/>
			<point x="220" y="-3" type="curve"/>
			<point x="220" y="36" type="line"/>
			<point x="184" y="51"/>
			<point x="183" y="53"/>
			<point x="183" y="94" type="curve" smooth="yes"/>
			<point x="183" y="313" type="line"/>
			<point x="342" y="145" type="line" smooth="yes"/>
			<point x="399" y="84"/>
			<point x="447" y="49"/>
			<point x="377" y="37" type="curve"/>
			<point x="377" y="-3" type="line"/>
			<point x="435" y="3"/>
			<point x="530" y="2"/>
			<point x="601" y="-3" type="curve"/>
			<point x="600" y="25" type="line"/>
			<point x="560" y="52"/>
			<point x="319" y="300"/>
			<point x="250" y="381" type="curve"/>
			<point x="442" y="574" type="line" smooth="yes"/>
			<point x="495" y="628"/>
			<point x="545" y="659"/>
			<point x="576" y="674" type="curve"/>
			<point x="576" y="703" type="line"/>
			<point x="532" y="700"/>
			<point x="470" y="700"/>
			<point x="378" y="703" type="curve"/>
			<point x="378" y="674" type="line"/>
			<point x="440" y="658"/>
			<point x="435" y="650"/>
			<point x="362" y="572" type="curve" smooth="yes"/>
			<point x="183" y="379" type="line"/>
			<point x="183" y="487"/>
			<point x="184" y="574"/>
			<point x="186" y="629" type="curve" smooth="yes"/>
			<point x="187" y="653"/>
			<point x="214" y="662"/>
			<point x="240" y="667" type="curve"/>
			<point x="240" y="703" type="line"/>
			<point x="165" y="700"/>
			<point x="95" y="700"/>
			<point x="40" y="703" type="curve"/>
			<point x="40" y="667" type="line"/>
			<point x="47" y="663"/>
			<point x="74" y="653"/>
			<point x="75" y="629" type="curve" smooth="yes"/>
			<point x="79" y="532"/>
			<point x="81" y="179"/>
			<point x="77" y="94" type="curve" smooth="yes"/>
			<point x="75" y="48"/>
			<point x="66" y="52"/>
			<point x="40" y="36" type="curve"/>
		</contour>
	</outline>
</glyph>
<glyph name="L" format="2">
	<advance width="478"/>
	<unicode hex="004C"/>
	<outline>
		<contour>
			<point x="450" y="-10" type="curve"/>
			<point x="450" y="-10" type="line"/>
			<point x="458" y="172" type="line"/>
			<point x="430" y="172" type="line"/>
			<point x="397" y="63"/>
			<point x="385" y="61"/>
			<point x="305" y="56" type="curve"/>
			<point x="164" y="47" type="line"/>
			<point x="163" y="230"/>
			<point x="163" y="436"/>
			<point x="170" y="609" type="curve"/>
			<point x="172" y="649"/>
			<point x="177" y="650"/>
			<point x="254" y="675" type="curve"/>
			<point x="254" y="703" type="line"/>
			<point x="187" y="700"/>
			<point x="101" y="700"/>
			<point x="40" y="703" type="curve"/>
			<point x="40" y="673" type="line"/>
			<point x="56" y="652"/>
			<point x="56" y="646"/>
			<point x="57" y="600" type="curve"/>
			<point x="61" y="449"/>
			<point x="63" y="83"/>
			<point x="41" y="11" type="curve"/>
			<point x="42" y="-5" type="line"/>
			<point x="155" y="-1"/>
			<point x="383" y="-3"/>
		</contour>
	</outline>
</glyph>
<glyph name="M" format="2">
	<advance width="809"/>
	<unicode hex="004D"/>
	<outline>
		<contour>
			<point x="356" y="-5" type="curve"/>
			<point x="356" y="-5" type="line"/>
			<point x="412" y="-5" type="line"/>
			<point x="459" y="171"/>
			<point x="523" y="343"/>
			<point x="584" y="520" type="curve"/>
			<point x="606" y="385"/>
			<point x="626" y="256"/>
			<point x="651" y="120" type="curve"/>
			<point x="662" y="58"/>
			<point x="656" y="54"/>
			<point x="587" y="35" type="curve"/>
			<point x="587" y="0" type="line"/>
			<point x="794" y="0" type="line"/>
			<point x="799" y="10" type="line"/>
			<point x="735" y="223"/>
			<point x="689" y="496"/>
			<point x="654" y="700" type="curve"/>
			<point x="584" y="700" type="line"/>
			<point x="579" y="668"/>
			<point x="562" y="608"/>
			<point x="548" y="568" type="curve"/>
			<point x="417" y="185" type="line"/>
			<point x="344" y="374"/>
			<point x="257" y="615"/>
			<point x="252" y="710" type="curve"/>
			<point x="181" y="710" type="line"/>
			<point x="176" y="669"/>
			<point x="165" y="626"/>
			<point x="155" y="587" type="curve"/>
			<point x="10" y="10" type="line"/>
			<point x="13" y="0" type="line"/>
			<point x="181" y="0" type="line"/>
			<point x="181" y="35" type="line"/>
			<point x="79" y="48"/>
			<point x="81" y="49"/>
			<point x="94" y="105" type="curve"/>
			<point x="186" y="516" type="line"/>
			<point x="253" y="335"/>
			<point x="331" y="124"/>
		</contour>
	</outline>
</glyph>
<glyph name="N" format="2">
	<advance width="712"/>
	<unicode hex="004E"/>
	<outline>
		<contour>
			<point x="670" y="-4" type="curve"/>
			<point x="670" y="-4" type="line"/>
			<point x="677" y="23" type="line"/>
			<point x="645" y="58"/>
			<point x="640" y="63"/>
			<point x="640" y="144" type="curve"/>
			<point x="640" y="455"/>
			<point x="638" y="593"/>
			<point x="655" y="696" type="curve"/>
			<point x="651" y="703" type="line"/>
			<point x="585" y="699"/>
			<point x="521" y="699"/>
			<point x="471" y="703" type="curve"/>
			<point x="471" y="668" type="line"/>
			<point x="524" y="658"/>
			<point x="535" y="656"/>
			<point x="538" y="604" type="curve"/>
			<point x="544" y="506"/>
			<point x="546" y="406"/>
			<point x="544" y="305" type="curve"/>
			<point x="412" y="402"/>
			<point x="307" y="498"/>
			<point x="170" y="601" type="curve"/>
			<point x="170" y="618" type="line" smooth="yes"/>
			<point x="171" y="650"/>
			<point x="181" y="655"/>
			<point x="203" y="674" type="curve"/>
			<point x="203" y="703" type="line"/>
			<point x="185" y="700"/>
			<point x="106" y="698"/>
			<point x="43" y="703" type="curve"/>
			<point x="40" y="684" type="line"/>
			<point x="62" y="621"/>
			<point x="64" y="545"/>
			<point x="64" y="323" type="curve"/>
			<point x="64" y="144"/>
			<point x="58" y="91"/>
			<point x="46" y="3" type="curve"/>
			<point x="49" y="-3" type="line"/>
			<point x="87" y="4"/>
			<point x="152" y="2"/>
			<point x="248" y="-3" type="curve"/>
			<point x="248" y="37" type="line"/>
			<point x="171" y="46"/>
			<point x="171" y="40"/>
			<point x="170" y="97" type="curve"/>
			<point x="168" y="233"/>
			<point x="166" y="389"/>
			<point x="168" y="532" type="curve"/>
			<point x="296" y="431"/>
			<point x="417" y="322"/>
			<point x="542" y="218" type="curve"/>
			<point x="541" y="186"/>
			<point x="540" y="153"/>
			<point x="538" y="121" type="curve"/>
			<point x="534" y="50"/>
			<point x="536" y="51"/>
			<point x="455" y="32" type="curve"/>
			<point x="455" y="-3" type="line"/>
			<point x="535" y="2"/>
			<point x="629" y="7"/>
		</contour>
	</outline>
</glyph>
<glyph name="O" format="2">
	<advance width="748"/>
	<unicode hex="004F"/>
	<outline>
		<contour>
			<point x="374" y="-11" type="curve"/>
			<point x="374" y="-11" type="line"/>
			<point x="574" y="-11"/>
			<point x="708" y="157"/>
			<point x="708" y="367" type="curve"/>
			<point x="708" y="547"/>
			<point x="584" y="709"/>
			<point x="374" y="709" type="curve"/>
			<point x="174" y="709"/>
			<point x="40" y="542"/>
			<point x="40" y="331" type="curve"/>
			<point x="40" y="151"/>
			<point x="164" y="-11"/>
		</contour>
		<contour>
			<point x="384" y="39" type="curve"/>
			<point x="384" y="39" type="line"/>
			<point x="234" y="39"/>
			<point x="158" y="191"/>
			<point x="158" y="371" type="curve"/>
			<point x="158" y="511"/>
			<point x="224" y="652"/>
			<point x="359" y="652" type="curve"/>
			<point x="524" y="652"/>
			<point x="590" y="487"/>
			<point x="590" y="327" type="curve"/>
			<point x="590" y="197"/>
			<point x="524" y="39"/>
		</contour>
	</outline>
</glyph>
<glyph name="P" format="2">
	<advance width="588"/>
	<unicode hex="0050"/>
	<outline>
		<contour>
			<point x="40" y="-3" type="line"/>
			<point x="115" y="5"/>
			<point x="243" y="2"/>
			<point x="287" y="-3" type="curve"/>
			<point x="287" y="32" type="line"/>
			<point x="191" y="50"/>
			<point x="190" y="55"/>
			<point x="188" y="87" type="curve" smooth="yes"/>
			<point x="180" y="216"/>
			<point x="179" y="508"/>
			<point x="182" y="562" type="curve" smooth="yes"/>
			<point x="186" y="632"/>
			<point x="206" y="663"/>
			<point x="284" y="663" type="curve" smooth="yes"/>
			<point x="412" y="663"/>
			<point x="454" y="551"/>
			<point x="454" y="474" type="curve" smooth="yes"/>
			<point x="454" y="327"/>
			<point x="365" y="264"/>
			<point x="228" y="292" type="curve"/>
			<point x="226" y="262" type="line"/>
			<point x="371" y="210"/>
			<point x="563" y="295"/>
			<point x="563" y="465" type="curve" smooth="yes"/>
			<point x="563" y="605"/>
			<point x="454" y="709"/>
			<point x="294" y="709" type="curve" smooth="yes"/>
			<point x="190" y="709"/>
			<point x="104" y="697"/>
			<point x="44" y="703" type="curve"/>
			<point x="44" y="668" type="line"/>
			<point x="67" y="653"/>
			<point x="73" y="648"/>
			<point x="75" y="603" type="curve" smooth="yes"/>
			<point x="77" y="556"/>
			<point x="82" y="247"/>
			<point x="76" y="76" type="curve" smooth="yes"/>
			<point x="75" y="45"/>
			<point x="76" y="42"/>
			<point x="40" y="32" type="curve"/>
		</contour>
	</outline>
</glyph>
<glyph name="Q" format="2">
	<advance width="751"/>
	<unicode hex="0051"/>
	<outline>
		<contour>
			<point x="1116" y="-112" type="line"/>
			<point x="1068" y="-100" type="line"/>
			<point x="974" y="-154"/>
			<point x="885" y="-180"/>
			<point x="796" y="-180" type="curve"/>
			<point x="637" y="-180"/>
			<point x="539" y="-82"/>
			<point x="473" y="4" type="curve"/>
			<point x="617" y="50"/>
			<point x="708" y="194"/>
			<point x="708" y="367" type="curve"/>
			<point x="708" y="547"/>
			<point x="584" y="709"/>
			<point x="374" y="709" type="curve"/>
			<point x="174" y="709"/>
			<point x="40" y="542"/>
			<point x="40" y="331" type="curve"/>
			<point x="40" y="172"/>
			<point x="137" y="26"/>
			<point x="305" y="-5" type="curve"/>
			<point x="445" y="-63"/>
			<point x="574" y="-243"/>
			<point x="754" y="-243" type="curve"/>
			<point x="869" y="-243"/>
			<point x="971" y="-194"/>
			<point x="1115" y="-122" type="curve"/>
		</contour>
		<contour>
			<point x="158" y="371" type="curve"/>
			<point x="158" y="371" type="line"/>
			<point x="158" y="511"/>
			<point x="224" y="652"/>
			<point x="359" y="652" type="curve"/>
			<point x="524" y="652"/>
			<point x="590" y="487"/>
			<point x="590" y="327" type="curve"/>
			<point x="590" y="197"/>
			<point x="524" y="39"/>
			<point x="384" y="39" type="curve"/>
			<point x="234" y="39"/>
			<point x="158" y="191"/>
		</contour>
	</outline>
</glyph>
<glyph name="R" format="2">
	<advance width="675"/>
	<unicode hex="0052"/>
	<outline>
		<contour>
			<point x="50" y="0" type="line"/>
			<point x="225" y="0" type="line"/>
			<point x="225" y="29" type="line"/>
			<point x="200" y="48"/>
			<point x="191" y="54"/>
			<point x="190" y="96" type="curve" smooth="yes"/>
			<point x="188" y="165"/>
			<point x="184" y="249"/>
			<point x="182" y="335" type="curve"/>
			<point x="282" y="314"/>
			<point x="386" y="177"/>
			<point x="448" y="87" type="curve" smooth="yes"/>
			<point x="465" y="62"/>
			<point x="462" y="40"/>
			<point x="458" y="9" type="curve"/>
			<point x="464" y="0" type="line"/>
			<point x="529" y="3"/>
			<point x="595" y="3"/>
			<point x="660" y="0" type="curve"/>
			<point x="658" y="25" type="line"/>
			<point x="531" y="129"/>
			<point x="437" y="244"/>
			<point x="312" y="344" type="curve"/>
			<point x="430" y="365"/>
			<point x="525" y="426"/>
			<point x="525" y="536" type="curve" smooth="yes"/>
			<point x="525" y="646"/>
			<point x="420" y="710"/>
			<point x="280" y="710" type="curve" smooth="yes"/>
			<point x="199" y="710"/>
			<point x="48" y="687"/>
			<point x="47" y="699" type="curve"/>
			<point x="40" y="672" type="line"/>
			<point x="45" y="664"/>
			<point x="68" y="644"/>
			<point x="72" y="603" type="curve" smooth="yes"/>
			<point x="80" y="521"/>
			<point x="83" y="146"/>
			<point x="79" y="98" type="curve" smooth="yes"/>
			<point x="75" y="55"/>
			<point x="67" y="45"/>
			<point x="50" y="29" type="curve"/>
		</contour>
		<contour>
			<point x="257" y="375" type="curve" smooth="yes"/>
			<point x="224" y="375"/>
			<point x="209" y="379"/>
			<point x="181" y="386" type="curve"/>
			<point x="179" y="476"/>
			<point x="181" y="565"/>
			<point x="189" y="640" type="curve"/>
			<point x="209" y="653"/>
			<point x="243" y="668"/>
			<point x="279" y="668" type="curve" smooth="yes"/>
			<point x="359" y="668"/>
			<point x="418" y="609"/>
			<point x="418" y="529" type="curve" smooth="yes"/>
			<point x="418" y="429"/>
			<point x="347" y="375"/>
		</contour>
	</outline>
</glyph>
<glyph name="S" format="2">
	<advance width="576"/>
	<unicode hex="0053"/>
	<outline>
		<contour>
			<point x="49" y="0" type="curve"/>
			<point x="79" y="-9" type="line"/>
			<point x="119" y="29" type="line"/>
			<point x="157" y="11"/>
			<point x="220" y="-3"/>
			<point x="293" y="-3" type="curve"/>
			<point x="443" y="-3"/>
			<point x="541" y="83"/>
			<point x="541" y="213" type="curve"/>
			<point x="541" y="347"/>
			<point x="420" y="397"/>
			<point x="319" y="425" type="curve"/>
			<point x="185" y="462"/>
			<point x="132" y="493"/>
			<point x="132" y="557" type="curve"/>
			<point x="132" y="607"/>
			<point x="182" y="657"/>
			<point x="272" y="657" type="curve"/>
			<point x="335" y="657"/>
			<point x="390" y="626"/>
			<point x="424" y="580" type="curve"/>
			<point x="435" y="580" type="line"/>
			<point x="462" y="619"/>
			<point x="491" y="657"/>
			<point x="524" y="694" type="curve"/>
			<point x="510" y="708" type="line"/>
			<point x="436" y="684" type="line"/>
			<point x="407" y="694"/>
			<point x="355" y="710"/>
			<point x="276" y="710" type="curve"/>
			<point x="169" y="710"/>
			<point x="35" y="648"/>
			<point x="35" y="528" type="curve"/>
			<point x="35" y="415"/>
			<point x="117" y="361"/>
			<point x="273" y="320" type="curve"/>
			<point x="402" y="286"/>
			<point x="474" y="250"/>
			<point x="474" y="177" type="curve"/>
			<point x="474" y="100"/>
			<point x="404" y="66"/>
			<point x="322" y="66" type="curve"/>
			<point x="246" y="66"/>
			<point x="173" y="97"/>
			<point x="159" y="161" type="curve"/>
			<point x="136" y="168" type="line"/>
			<point x="110" y="112"/>
			<point x="81" y="56"/>
		</contour>
	</outline>
</glyph>
<glyph name="T" format="2">
	<advance width="682"/>
	<unicode hex="0054"/>
	<outline>
		<contour>
			<point x="267" y="0" type="curve"/>
			<point x="272" y="-5" type="line"/>
			<point x="323" y="2"/>
			<point x="380" y="4"/>
			<point x="451" y="1" type="curve"/>
			<point x="451" y="30" type="line"/>
			<point x="394" y="61"/>
			<point x="394" y="57"/>
			<point x="388" y="173" type="curve"/>
			<point x="383" y="266"/>
			<point x="384" y="530"/>
			<point x="383" y="627" type="curve"/>
			<point x="475" y="626"/>
			<point x="563" y="625"/>
			<point x="620" y="629" type="curve"/>
			<point x="682" y="700" type="line"/>
			<point x="674" y="710" type="line"/>
			<point x="561" y="694"/>
			<point x="167" y="700"/>
			<point x="77" y="700" type="curve"/>
			<point x="50" y="674"/>
			<point x="29" y="651"/>
			<point x="0" y="616" type="curve"/>
			<point x="19" y="601" type="line"/>
			<point x="42" y="622"/>
			<point x="155" y="627"/>
			<point x="282" y="627" type="curve"/>
			<point x="282" y="196" type="line" smooth="yes"/>
			<point x="282" y="101"/>
			<point x="281" y="67"/>
		</contour>
	</outline>
</glyph>
<glyph name="U" format="2">
	<advance width="738"/>
	<unicode hex="0055"/>
	<outline>
		<contour>
			<point x="362" y="-10" type="curve"/>
			<point x="362" y="-10" type="line"/>
			<point x="549" y="-10"/>
			<point x="657" y="90"/>
			<point x="657" y="290" type="curve"/>
			<point x="657" y="353"/>
			<point x="669" y="527"/>
			<point x="669" y="603" type="curve"/>
			<point x="669" y="653"/>
			<point x="679" y="657"/>
			<point x="718" y="666" type="curve"/>
			<point x="718" y="699" type="line"/>
			<point x="670" y="697"/>
			<point x="538" y="700"/>
			<point x="510" y="700" type="curve"/>
			<point x="510" y="669" type="line"/>
			<point x="556" y="662"/>
			<point x="593" y="651"/>
			<point x="593" y="614" type="curve"/>
			<point x="595" y="258" type="line" smooth="yes"/>
			<point x="596" y="111"/>
			<point x="520" y="45"/>
			<point x="384" y="45" type="curve"/>
			<point x="271" y="45"/>
			<point x="170" y="90"/>
			<point x="170" y="240" type="curve"/>
			<point x="170" y="388"/>
			<point x="173" y="523"/>
			<point x="173" y="609" type="curve"/>
			<point x="173" y="653"/>
			<point x="181" y="663"/>
			<point x="266" y="663" type="curve"/>
			<point x="266" y="700" type="line"/>
			<point x="168" y="696"/>
			<point x="86" y="697"/>
			<point x="30" y="699" type="curve"/>
			<point x="30" y="657" type="line"/>
			<point x="50" y="649"/>
			<point x="61" y="646"/>
			<point x="64" y="565" type="curve"/>
			<point x="67" y="472"/>
			<point x="60" y="260"/>
			<point x="60" y="201" type="curve"/>
			<point x="99" y="81"/>
			<point x="192" y="-10"/>
		</contour>
	</outline>
</glyph>
<glyph name="V" format="2">
	<advance width="693"/>
	<unicode hex="0056"/>
	<outline>
		<contour>
			<point x="346" y="-10" type="curve"/>
			<point x="380" y="-10" type="line"/>
			<point x="403" y="93"/>
			<point x="636" y="606"/>
			<point x="688" y="671" type="curve"/>
			<point x="688" y="700" type="line"/>
			<point x="639" y="697"/>
			<point x="551" y="699"/>
			<point x="523" y="700" type="curve"/>
			<point x="523" y="665" type="line"/>
			<point x="587" y="663" type="line"/>
			<point x="386" y="160" type="line"/>
			<point x="324" y="295"/>
			<point x="217" y="523"/>
			<point x="178" y="608" type="curve" smooth="yes"/>
			<point x="161" y="645"/>
			<point x="164" y="653"/>
			<point x="193" y="673" type="curve"/>
			<point x="191" y="700" type="line"/>
			<point x="163" y="700"/>
			<point x="81" y="698"/>
			<point x="5" y="700" type="curve"/>
			<point x="6" y="671" type="line"/>
			<point x="47" y="610"/>
			<point x="323" y="72"/>
		</contour>
	</outline>
</glyph>
<glyph name="W" format="2">
	<advance width="1030"/>
	<unicode hex="0057"/>
	<outline>
		<contour>
			<point x="346" y="-10" type="curve"/>
			<point x="380" y="-10" type="line"/>
			<point x="396" y="63"/>
			<point x="478" y="226"/>
			<point x="543" y="337" type="curve"/>
			<point x="616" y="185"/>
			<point x="687" y="31"/>
			<point x="698" y="-10" type="curve"/>
			<point x="732" y="-10" type="line"/>
			<point x="755" y="93"/>
			<point x="973" y="606"/>
			<point x="1025" y="671" type="curve"/>
			<point x="1025" y="700" type="line"/>
			<point x="976" y="697"/>
			<point x="888" y="699"/>
			<point x="860" y="700" type="curve"/>
			<point x="860" y="665" type="line"/>
			<point x="924" y="663" type="line"/>
			<point x="737" y="162" type="line"/>
			<point x="676" y="297"/>
			<point x="574" y="524"/>
			<point x="536" y="608" type="curve" smooth="yes"/>
			<point x="519" y="645"/>
			<point x="522" y="653"/>
			<point x="551" y="673" type="curve"/>
			<point x="549" y="700" type="line"/>
			<point x="521" y="700"/>
			<point x="448" y="698"/>
			<point x="372" y="700" type="curve"/>
			<point x="373" y="671" type="line"/>
			<point x="390" y="646"/>
			<point x="443" y="541"/>
			<point x="502" y="421" type="curve"/>
			<point x="387" y="157" type="line"/>
			<point x="326" y="292"/>
			<point x="219" y="523"/>
			<point x="180" y="608" type="curve" smooth="yes"/>
			<point x="163" y="645"/>
			<point x="166" y="653"/>
			<point x="195" y="673" type="curve"/>
			<point x="193" y="700" type="line"/>
			<point x="165" y="700"/>
			<point x="96" y="698"/>
			<point x="5" y="700" type="curve"/>
			<point x="6" y="671" type="line"/>
			<point x="47" y="610"/>
			<point x="323" y="72"/>
		</contour>
	</outline>
</glyph>
<glyph name="X" format="2">
	<advance width="783"/>
	<unicode hex="0058"/>
	<outline>
		<contour>
			<point x="10" y="-3" type="line"/>
			<point x="96" y="0"/>
			<point x="148" y="0"/>
			<point x="220" y="-3" type="curve"/>
			<point x="220" y="37" type="line"/>
			<point x="133" y="46" type="line"/>
			<point x="361" y="312" type="line"/>
			<point x="463" y="196"/>
			<point x="557" y="87"/>
			<point x="591" y="48" type="curve"/>
			<point x="503" y="34" type="line"/>
			<point x="503" y="-3" type="line"/>
			<point x="594" y="0"/>
			<point x="693" y="-1"/>
			<point x="773" y="-3" type="curve"/>
			<point x="773" y="32" type="line"/>
			<point x="733" y="56"/>
			<point x="589" y="221"/>
			<point x="440" y="391" type="curve"/>
			<point x="533" y="489"/>
			<point x="646" y="627"/>
			<point x="706" y="668" type="curve"/>
			<point x="706" y="703" type="line"/>
			<point x="667" y="700"/>
			<point x="619" y="701"/>
			<point x="547" y="703" type="curve"/>
			<point x="547" y="670" type="line"/>
			<point x="605" y="660" type="line"/>
			<point x="408" y="427" type="line"/>
			<point x="334" y="512"/>
			<point x="261" y="596"/>
			<point x="199" y="662" type="curve"/>
			<point x="274" y="667" type="line"/>
			<point x="274" y="702" type="line"/>
			<point x="207" y="700"/>
			<point x="103" y="700"/>
			<point x="38" y="702" type="curve"/>
			<point x="38" y="667" type="line"/>
			<point x="54" y="661"/>
			<point x="192" y="506"/>
			<point x="328" y="351" type="curve"/>
			<point x="201" y="216"/>
			<point x="72" y="67"/>
			<point x="10" y="32" type="curve"/>
		</contour>
	</outline>
</glyph>
<glyph name="Y" format="2">
	<advance width="594"/>
	<unicode hex="0059"/>
	<outline>
		<contour>
			<point x="232" y="-340" type="line"/>
			<point x="297" y="-114"/>
			<point x="469" y="355"/>
			<point x="549" y="623" type="curve" smooth="yes"/>
			<point x="560" y="660"/>
			<point x="559" y="660"/>
			<point x="589" y="668" type="curve"/>
			<point x="586" y="700" type="line"/>
			<point x="472" y="699"/>
			<point x="403" y="698"/>
			<point x="322" y="700" type="curve"/>
			<point x="322" y="665" type="line"/>
			<point x="428" y="655"/>
			<point x="432" y="657"/>
			<point x="420" y="610" type="curve" smooth="yes"/>
			<point x="300" y="136" type="line"/>
			<point x="125" y="581" type="line" smooth="yes"/>
			<point x="95" y="657"/>
			<point x="107" y="650"/>
			<point x="229" y="667" type="curve"/>
			<point x="229" y="700" type="line"/>
			<point x="161" y="696"/>
			<point x="97" y="696"/>
			<point x="-15" y="700" type="curve"/>
			<point x="-15" y="670" type="line"/>
			<point x="31" y="653"/>
			<point x="203" y="209"/>
			<point x="274" y="32" type="curve"/>
			<point x="182" y="-333" type="line"/>
		</contour>
	</outline>
</glyph>
<glyph name="Z" format="2">
	<advance width="656"/>
	<unicode hex="005A"/>
	<outline>
		<contour>
			<point x="536" y="-10" type="curve"/>
			<point x="572" y="29"/>
			<point x="608" y="70"/>
			<point x="644" y="131" type="curve"/>
			<point x="624" y="146" type="line"/>
			<point x="539" y="77"/>
			<point x="345" y="103"/>
			<point x="195" y="104" type="curve"/>
			<point x="285" y="233"/>
			<point x="413" y="441"/>
			<point x="516" y="575" type="curve" smooth="yes"/>
			<point x="555" y="626"/>
			<point x="601" y="664"/>
			<point x="646" y="687" type="curve"/>
			<point x="631" y="720" type="line"/>
			<point x="575" y="696"/>
			<point x="532" y="689"/>
			<point x="474" y="689" type="curve" smooth="yes"/>
			<point x="448" y="689"/>
			<point x="228" y="704"/>
			<point x="106" y="710" type="curve"/>
			<point x="78" y="675"/>
			<point x="40" y="624"/>
			<point x="10" y="568" type="curve"/>
			<point x="39" y="551" type="line"/>
			<point x="56" y="595"/>
			<point x="74" y="592"/>
			<point x="88" y="597" type="curve" smooth="yes"/>
			<point x="154" y="617"/>
			<point x="325" y="610"/>
			<point x="450" y="595" type="curve"/>
			<point x="372" y="475"/>
			<point x="251" y="269"/>
			<point x="141" y="134" type="curve" smooth="yes"/>
			<point x="114" y="101"/>
			<point x="61" y="56"/>
			<point x="11" y="20" type="curve"/>
			<point x="28" y="-5" type="line"/>
			<point x="111" y="35"/>
			<point x="191" y="28"/>
		</contour>
	</outline>
</glyph>
<glyph name="b" format="2">
	<advance width="445"/>
	<unicode hex="0062"/>
	<outline>
		<contour>
			<point x="197" y="-10" type="curve"/>
			<point x="275" y="-9"/>
			<point x="425" y="107"/>
			<point x="425" y="237" type="curve" smooth="yes"/>
			<point x="425" y="349"/>
			<point x="368" y="422"/>
			<point x="261" y="441" type="curve"/>
			<point x="228" y="432"/>
			<point x="161" y="398"/>
			<point x="125" y="375" type="curve"/>
			<point x="126" y="488"/>
			<point x="129" y="558"/>
			<point x="137" y="638" type="curve" smooth="yes"/>
			<point x="140" y="666"/>
			<point x="144" y="667"/>
			<point x="168" y="692" type="curve"/>
			<point x="165" y="710" type="line"/>
			<point x="30" y="691" type="line"/>
			<point x="30" y="561"/>
			<point x="32" y="373"/>
			<point x="32" y="222" type="curve" smooth="yes"/>
			<point x="32" y="65"/>
			<point x="86" y="11"/>
		</contour>
		<contour>
			<point x="292" y="74" type="curve"/>
			<point x="153" y="70"/>
			<point x="124" y="166"/>
			<point x="124" y="264" type="curve" smooth="yes"/>
			<point x="124" y="333" type="line"/>
			<point x="138" y="341"/>
			<point x="162" y="351"/>
			<point x="203" y="351" type="curve" smooth="yes"/>
			<point x="283" y="351"/>
			<point x="342" y="285"/>
			<point x="342" y="191" type="curve" smooth="yes"/>
			<point x="342" y="140"/>
			<point x="327" y="100"/>
		</contour>
	</outline>
</glyph>
<glyph name="c" format="2">
	<advance width="296"/>
	<unicode hex="0063"/>
	<outline>
		<contour>
			<point x="136" y="-10" type="curve"/>
			<point x="136" y="-10" type="line"/>
			<point x="189" y="8"/>
			<point x="232" y="42"/>
			<point x="279" y="79" type="curve"/>
			<point x="271" y="109" type="line"/>
			<point x="240" y="95"/>
			<point x="215" y="91"/>
			<point x="195" y="91" type="curve"/>
			<point x="138" y="91"/>
			<point x="106" y="153"/>
			<point x="106" y="251" type="curve"/>
			<point x="106" y="290"/>
			<point x="112" y="331"/>
			<point x="120" y="350" type="curve"/>
			<point x="148" y="348"/>
			<point x="183" y="335"/>
			<point x="207" y="315" type="curve"/>
			<point x="281" y="382" type="line"/>
			<point x="280" y="394" type="line"/>
			<point x="260" y="412"/>
			<point x="209" y="435"/>
			<point x="175" y="440" type="curve"/>
			<point x="143" y="426"/>
			<point x="42" y="357"/>
			<point x="35" y="340" type="curve"/>
			<point x="27" y="278"/>
			<point x="20" y="140"/>
			<point x="30" y="60" type="curve"/>
			<point x="40" y="32"/>
			<point x="84" y="5"/>
		</contour>
	</outline>
</glyph>
<glyph name="d" format="2">
	<advance width="474"/>
	<unicode hex="0064"/>
	<outline>
		<contour>
			<point x="176" y="-10" type="curve"/>
			<point x="226" y="11"/>
			<point x="276" y="53"/>
			<point x="315" y="78" type="curve"/>
			<point x="317" y="29"/>
			<point x="342" y="5"/>
			<point x="359" y="-10" type="curve"/>
			<point x="397" y="14"/>
			<point x="423" y="35"/>
			<point x="459" y="57" type="curve"/>
			<point x="459" y="75" type="line"/>
			<point x="424" y="99"/>
			<point x="412" y="104"/>
			<point x="411" y="156" type="curve" smooth="yes"/>
			<point x="407" y="371"/>
			<point x="414" y="600"/>
			<point x="430" y="702" type="curve"/>
			<point x="423" y="712" type="line"/>
			<point x="271" y="690" type="line"/>
			<point x="271" y="657" type="line"/>
			<point x="291" y="653"/>
			<point x="309" y="657"/>
			<point x="310" y="630" type="curve" smooth="yes"/>
			<point x="313" y="561"/>
			<point x="315" y="493"/>
			<point x="316" y="425" type="curve"/>
			<point x="289" y="432"/>
			<point x="252" y="440"/>
			<point x="217" y="440" type="curve"/>
			<point x="128" y="420"/>
			<point x="20" y="325"/>
			<point x="20" y="200" type="curve" smooth="yes"/>
			<point x="20" y="74"/>
			<point x="90" y="10"/>
		</contour>
		<contour>
			<point x="229" y="99" type="curve" smooth="yes"/>
			<point x="122" y="99"/>
			<point x="53" y="222"/>
			<point x="117" y="336" type="curve"/>
			<point x="163" y="356"/>
			<point x="272" y="349"/>
			<point x="317" y="314" type="curve"/>
			<point x="317" y="253"/>
			<point x="317" y="192"/>
			<point x="316" y="130" type="curve"/>
			<point x="292" y="111"/>
			<point x="276" y="99"/>
		</contour>
	</outline>
</glyph>
<glyph name="e" format="2">
	<advance width="332"/>
	<unicode hex="0065"/>
	<outline>
		<contour>
			<point x="91" y="-10" type="curve"/>
			<point x="91" y="-10" type="line"/>
			<point x="172" y="-10"/>
			<point x="236" y="8"/>
			<point x="322" y="43" type="curve"/>
			<point x="319" y="73" type="line"/>
			<point x="295" y="69"/>
			<point x="272" y="62"/>
			<point x="244" y="62" type="curve"/>
			<point x="165" y="62"/>
			<point x="128" y="100"/>
			<point x="113" y="165" type="curve"/>
			<point x="172" y="220"/>
			<point x="257" y="295"/>
			<point x="327" y="347" type="curve"/>
			<point x="317" y="382" type="line"/>
			<point x="294" y="367" type="line"/>
			<point x="270" y="386"/>
			<point x="211" y="430"/>
			<point x="172" y="440" type="curve"/>
			<point x="156" y="430"/>
			<point x="75" y="374"/>
			<point x="46" y="340" type="curve"/>
			<point x="29" y="299"/>
			<point x="15" y="241"/>
			<point x="15" y="172" type="curve"/>
			<point x="15" y="89"/>
			<point x="51" y="6"/>
		</contour>
		<contour>
			<point x="191" y="283" type="curve"/>
			<point x="107" y="202" type="line"/>
			<point x="106" y="217"/>
			<point x="105" y="233"/>
			<point x="105" y="250" type="curve"/>
			<point x="105" y="303"/>
			<point x="114" y="331"/>
			<point x="124" y="340" type="curve"/>
			<point x="156" y="340"/>
			<point x="186" y="309"/>
		</contour>
	</outline>
</glyph>
<glyph name="f" format="2">
	<advance width="261"/>
	<unicode hex="0066"/>
	<outline>
		<contour>
			<point x="39" y="-10" type="line"/>
			<point x="74" y="-3"/>
			<point x="127" y="2"/>
			<point x="163" y="4" type="curve"/>
			<point x="162" y="33" type="line"/>
			<point x="144" y="99"/>
			<point x="139" y="160"/>
			<point x="139" y="341" type="curve"/>
			<point x="192" y="343"/>
			<point x="244" y="342"/>
			<point x="281" y="340" type="curve"/>
			<point x="281" y="405" type="line"/>
			<point x="139" y="405" type="line"/>
			<point x="139" y="512"/>
			<point x="140" y="612"/>
			<point x="154" y="630" type="curve"/>
			<point x="188" y="636"/>
			<point x="227" y="613"/>
			<point x="241" y="595" type="curve"/>
			<point x="252" y="594" type="line"/>
			<point x="301" y="675" type="line"/>
			<point x="283" y="696"/>
			<point x="239" y="710"/>
			<point x="200" y="710" type="curve" smooth="yes"/>
			<point x="132" y="710"/>
			<point x="75" y="586"/>
			<point x="62" y="477" type="curve" smooth="yes"/>
			<point x="56" y="428"/>
			<point x="44" y="392"/>
			<point x="30" y="362" type="curve"/>
			<point x="30" y="356" type="line" smooth="yes"/>
			<point x="29" y="344"/>
			<point x="47" y="322"/>
			<point x="47" y="279" type="curve" smooth="yes"/>
			<point x="47" y="230"/>
			<point x="40" y="62"/>
			<point x="37" y="-6" type="curve"/>
		</contour>
	</outline>
</glyph>
<glyph name="h" format="2">
	<advance width="435"/>
	<unicode hex="0068"/>
	<outline>
		<contour>
			<point x="49" y="-20" type="line"/>
			<point x="84" y="-6"/>
			<point x="127" y="0"/>
			<point x="172" y="10" type="curve"/>
			<point x="172" y="31" type="line"/>
			<point x="137" y="54"/>
			<point x="131" y="197"/>
			<point x="134" y="344" type="curve"/>
			<point x="245" y="373"/>
			<point x="328" y="289"/>
			<point x="328" y="182" type="curve" smooth="yes"/>
			<point x="328" y="103"/>
			<point x="294" y="54"/>
			<point x="229" y="29" type="curve"/>
			<point x="244" y="-10" type="line"/>
			<point x="341" y="44"/>
			<point x="415" y="109"/>
			<point x="415" y="232" type="curve" smooth="yes"/>
			<point x="415" y="338"/>
			<point x="342" y="427"/>
			<point x="261" y="440" type="curve"/>
			<point x="215" y="425"/>
			<point x="183" y="406"/>
			<point x="135" y="383" type="curve"/>
			<point x="138" y="486"/>
			<point x="144" y="586"/>
			<point x="147" y="643" type="curve" smooth="yes"/>
			<point x="148" y="664"/>
			<point x="154" y="668"/>
			<point x="178" y="686" type="curve"/>
			<point x="175" y="710" type="line"/>
			<point x="40" y="698" type="line"/>
			<point x="43" y="527"/>
			<point x="55" y="64"/>
			<point x="44" y="-10" type="curve"/>
		</contour>
	</outline>
</glyph>
<glyph name="i" format="2">
	<advance width="206"/>
	<unicode hex="0069"/>
	<outline>
		<contour>
			<point x="78" y="500" type="line"/>
			<point x="109" y="502" type="line"/>
			<point x="196" y="619" type="line"/>
			<point x="196" y="627" type="line"/>
			<point x="134" y="628" type="line"/>
		</contour>
		<contour>
			<point x="100" y="-10" type="curve"/>
			<point x="128" y="11"/>
			<point x="148" y="25"/>
			<point x="190" y="48" type="curve"/>
			<point x="190" y="74" type="line"/>
			<point x="151" y="84"/>
			<point x="154" y="86"/>
			<point x="148" y="154" type="curve" smooth="yes"/>
			<point x="142" y="220"/>
			<point x="137" y="376"/>
			<point x="163" y="427" type="curve"/>
			<point x="153" y="451" type="line"/>
			<point x="119" y="438"/>
			<point x="64" y="425"/>
			<point x="30" y="416" type="curve"/>
			<point x="30" y="393" type="line"/>
			<point x="65" y="318"/>
			<point x="47" y="199"/>
			<point x="44" y="47" type="curve" smooth="yes"/>
			<point x="44" y="28"/>
			<point x="70" y="0"/>
		</contour>
	</outline>
</glyph>
<glyph name="j" format="2">
	<advance width="201"/>
	<unicode hex="006A"/>
	<outline>
		<contour>
			<point x="104" y="628" type="line"/>
			<point x="38" y="500" type="line"/>
			<point x="69" y="502" type="line"/>
			<point x="166" y="619" type="line"/>
			<point x="166" y="627" type="line"/>
		</contour>
		<contour>
			<point x="9" y="-179" type="curve"/>
			<point x="40" y="-192" type="line"/>
			<point x="91" y="-74"/>
			<point x="153" y="22"/>
			<point x="153" y="48" type="curve"/>
			<point x="144" y="160"/>
			<point x="135" y="365"/>
			<point x="155" y="419" type="curve"/>
			<point x="138" y="440" type="line"/>
			<point x="104" y="422"/>
			<point x="39" y="408"/>
			<point x="5" y="396" type="curve"/>
			<point x="5" y="370" type="line"/>
			<point x="47" y="362"/>
			<point x="53" y="344"/>
			<point x="53" y="298" type="curve"/>
			<point x="53" y="47" type="line" smooth="yes"/>
			<point x="53" y="-22"/>
			<point x="39" y="-98"/>
		</contour>
	</outline>
</glyph>
<glyph name="k" format="2">
	<advance width="420"/>
	<unicode hex="006B"/>
	<outline>
		<contour>
			<point x="315" y="-14" type="curve"/>
			<point x="430" y="56" type="line"/>
			<point x="421" y="85" type="line"/>
			<point x="391" y="68"/>
			<point x="328" y="136"/>
			<point x="248" y="226" type="curve"/>
			<point x="368" y="289" type="line"/>
			<point x="360" y="318"/>
			<point x="349" y="384"/>
			<point x="284" y="444" type="curve"/>
			<point x="262" y="435"/>
			<point x="178" y="407"/>
			<point x="135" y="382" type="curve"/>
			<point x="137" y="465"/>
			<point x="140" y="555"/>
			<point x="145" y="643" type="curve" smooth="yes"/>
			<point x="146" y="664"/>
			<point x="152" y="668"/>
			<point x="176" y="686" type="curve"/>
			<point x="173" y="710" type="line"/>
			<point x="30" y="698" type="line"/>
			<point x="43" y="527"/>
			<point x="55" y="74"/>
			<point x="34" y="0" type="curve"/>
			<point x="39" y="-10" type="line"/>
			<point x="84" y="4"/>
			<point x="121" y="1"/>
			<point x="146" y="11" type="curve"/>
			<point x="139" y="29"/>
			<point x="135" y="86"/>
			<point x="134" y="166" type="curve"/>
			<point x="139" y="169" type="line"/>
			<point x="233" y="145"/>
			<point x="286" y="35"/>
		</contour>
		<contour>
			<point x="134" y="196" type="curve"/>
			<point x="133" y="242"/>
			<point x="134" y="295"/>
			<point x="135" y="351" type="curve"/>
			<point x="190" y="378"/>
			<point x="253" y="361"/>
			<point x="253" y="300" type="curve" smooth="yes"/>
			<point x="253" y="257"/>
			<point x="199" y="226"/>
		</contour>
	</outline>
</glyph>
<glyph name="l" format="2">
	<advance width="202"/>
	<unicode hex="006C"/>
	<outline>
		<contour>
			<point x="111" y="-10" type="curve"/>
			<point x="111" y="-10" type="line"/>
			<point x="191" y="58" type="line"/>
			<point x="192" y="83" type="line"/>
			<point x="136" y="92"/>
			<point x="140" y="106"/>
			<point x="136" y="172" type="curve"/>
			<point x="127" y="313"/>
			<point x="133" y="501"/>
			<point x="139" y="642" type="curve"/>
			<point x="140" y="664"/>
			<point x="153" y="666"/>
			<point x="185" y="676" type="curve"/>
			<point x="185" y="704" type="line"/>
			<point x="30" y="700" type="line"/>
			<point x="30" y="693" type="line" smooth="yes"/>
			<point x="36" y="541"/>
			<point x="40" y="252"/>
			<point x="34" y="95" type="curve"/>
			<point x="32" y="47"/>
			<point x="61" y="14"/>
		</contour>
	</outline>
</glyph>
<glyph name="n" format="2">
	<advance width="431"/>
	<unicode hex="006E"/>
	<outline>
		<contour>
			<point x="53" y="-7" type="curve"/>
			<point x="58" y="-13" type="line"/>
			<point x="106" y="-6"/>
			<point x="131" y="-1"/>
			<point x="172" y="2" type="curve"/>
			<point x="162" y="96"/>
			<point x="161" y="175"/>
			<point x="161" y="320" type="curve"/>
			<point x="234" y="356"/>
			<point x="292" y="324"/>
			<point x="292" y="208" type="curve"/>
			<point x="292" y="133"/>
			<point x="283" y="81"/>
			<point x="264" y="-5" type="curve"/>
			<point x="270" y="-10" type="line"/>
			<point x="323" y="5"/>
			<point x="368" y="16"/>
			<point x="421" y="21" type="curve"/>
			<point x="421" y="54" type="line"/>
			<point x="384" y="62"/>
			<point x="381" y="71"/>
			<point x="378" y="108" type="curve"/>
			<point x="372" y="185"/>
			<point x="378" y="273"/>
			<point x="378" y="350" type="curve"/>
			<point x="378" y="394"/>
			<point x="322" y="431"/>
			<point x="297" y="440" type="curve"/>
			<point x="274" y="434"/>
			<point x="210" y="390"/>
			<point x="157" y="358" type="curve"/>
			<point x="147" y="393"/>
			<point x="119" y="426"/>
			<point x="94" y="440" type="curve"/>
			<point x="10" y="376" type="line"/>
			<point x="10" y="348" type="line"/>
			<point x="54" y="343"/>
			<point x="66" y="309"/>
			<point x="66" y="263" type="curve"/>
			<point x="66" y="131"/>
			<point x="65" y="82"/>
		</contour>
	</outline>
</glyph>
<glyph name="o" format="2">
	<advance width="426"/>
	<unicode hex="006F"/>
	<outline>
		<contour>
			<point x="220" y="-10" type="curve"/>
			<point x="291" y="24"/>
			<point x="350" y="69"/>
			<point x="385" y="122" type="curve"/>
			<point x="445" y="267"/>
			<point x="374" y="440"/>
			<point x="230" y="440" type="curve" smooth="yes"/>
			<point x="131" y="440"/>
			<point x="34" y="328"/>
			<point x="20" y="245" type="curve"/>
			<point x="17" y="118"/>
			<point x="63" y="25"/>
		</contour>
		<contour>
			<point x="281" y="89" type="curve"/>
			<point x="154" y="76"/>
			<point x="103" y="172"/>
			<point x="103" y="259" type="curve" smooth="yes"/>
			<point x="103" y="284"/>
			<point x="106" y="317"/>
			<point x="118" y="335" type="curve"/>
			<point x="128" y="345"/>
			<point x="150" y="353"/>
			<point x="174" y="353" type="curve" smooth="yes"/>
			<point x="243" y="353"/>
			<point x="316" y="296"/>
			<point x="316" y="192" type="curve" smooth="yes"/>
			<point x="316" y="161"/>
			<point x="308" y="106"/>
		</contour>
	</outline>
</glyph>
<glyph name="q" format="2">
	<advance width="439"/>
	<unicode hex="0071"/>
	<outline>
		<contour>
			<point x="287" y="-340" type="curve"/>
			<point x="287" y="-340" type="line"/>
			<point x="410" y="-308" type="line"/>
			<point x="399" y="-121"/>
			<point x="386" y="384"/>
			<point x="414" y="452" type="curve"/>
			<point x="395" y="460" type="line"/>
			<point x="361" y="423" type="line"/>
			<point x="334" y="432"/>
			<point x="293" y="440"/>
			<point x="249" y="440" type="curve"/>
			<point x="139" y="440"/>
			<point x="20" y="300"/>
			<point x="20" y="191" type="curve"/>
			<point x="20" y="74"/>
			<point x="78" y="10"/>
			<point x="185" y="-10" type="curve"/>
			<point x="304" y="39" type="line"/>
			<point x="301" y="-78"/>
			<point x="294" y="-218"/>
		</contour>
		<contour>
			<point x="305" y="78" type="curve"/>
			<point x="305" y="78" type="line"/>
			<point x="187" y="68"/>
			<point x="107" y="128"/>
			<point x="107" y="261" type="curve"/>
			<point x="107" y="317"/>
			<point x="139" y="361"/>
			<point x="190" y="361" type="curve"/>
			<point x="241" y="361"/>
			<point x="307" y="334"/>
			<point x="307" y="193" type="curve"/>
			<point x="307" y="161"/>
			<point x="306" y="122"/>
		</contour>
	</outline>
</glyph>
<glyph name="r" format="2">
	<advance width="349"/>
	<unicode hex="0072"/>
	<outline>
		<contour>
			<point x="60" y="-5" type="curve"/>
			<point x="60" y="-5" type="line"/>
			<point x="172" y="11" type="line"/>
			<point x="166" y="89"/>
			<point x="164" y="226"/>
			<point x="164" y="326" type="curve"/>
			<point x="171" y="330"/>
			<point x="178" y="332"/>
			<point x="185" y="332" type="curve"/>
			<point x="209" y="332"/>
			<point x="243" y="299"/>
			<point x="266" y="274" type="curve"/>
			<point x="349" y="367" type="line"/>
			<point x="323" y="396"/>
			<point x="290" y="424"/>
			<point x="264" y="440" type="curve"/>
			<point x="260" y="440" type="line"/>
			<point x="233" y="410"/>
			<point x="199" y="385"/>
			<point x="158" y="362" type="curve"/>
			<point x="158" y="430" type="line"/>
			<point x="151" y="440" type="line"/>
			<point x="20" y="376" type="line"/>
			<point x="20" y="348" type="line"/>
			<point x="53" y="335"/>
			<point x="66" y="317"/>
			<point x="66" y="279" type="curve"/>
			<point x="66" y="204"/>
			<point x="65" y="83"/>
		</contour>
	</outline>
</glyph>
<glyph name="t" format="2">
	<advance width="288"/>
	<unicode hex="0074"/>
	<outline>
		<contour>
			<point x="130" y="-10" type="curve"/>
			<point x="130" y="-10" type="line"/>
			<point x="167" y="0"/>
			<point x="224" y="26"/>
			<point x="283" y="55" type="curve"/>
			<point x="275" y="81" type="line"/>
			<point x="189" y="73"/>
			<point x="151" y="65"/>
			<point x="142" y="166" type="curve"/>
			<point x="139" y="204"/>
			<point x="137" y="275"/>
			<point x="139" y="345" type="curve"/>
			<point x="183" y="348"/>
			<point x="222" y="347"/>
			<point x="269" y="343" type="curve"/>
			<point x="269" y="430" type="line"/>
			<point x="224" y="429"/>
			<point x="188" y="429"/>
			<point x="146" y="430" type="curve"/>
			<point x="149" y="454"/>
			<point x="153" y="476"/>
			<point x="158" y="494" type="curve"/>
			<point x="143" y="499" type="line"/>
			<point x="25" y="374" type="line"/>
			<point x="25" y="352" type="line"/>
			<point x="49" y="352" type="line"/>
			<point x="48" y="75" type="line" smooth="yes"/>
			<point x="48" y="15"/>
			<point x="90" y="-5"/>
		</contour>
	</outline>
</glyph>
<glyph name="u" format="2">
	<advance width="448"/>
	<unicode hex="0075"/>
	<outline>
		<contour>
			<point x="319" y="-15" type="curve"/>
			<point x="319" y="-15" type="line"/>
			<point x="418" y="49" type="line"/>
			<point x="418" y="74" type="line"/>
			<point x="382" y="92"/>
			<point x="381" y="100"/>
			<point x="381" y="141" type="curve"/>
			<point x="381" y="192"/>
			<point x="379" y="341"/>
			<point x="388" y="425" type="curve"/>
			<point x="383" y="434" type="line"/>
			<point x="236" y="409" type="line"/>
			<point x="236" y="382" type="line"/>
			<point x="276" y="369"/>
			<point x="281" y="366"/>
			<point x="281" y="316" type="curve"/>
			<point x="281" y="98" type="line"/>
			<point x="264" y="89"/>
			<point x="247" y="85"/>
			<point x="234" y="85" type="curve"/>
			<point x="189" y="85"/>
			<point x="153" y="106"/>
			<point x="153" y="166" type="curve"/>
			<point x="153" y="237"/>
			<point x="147" y="367"/>
			<point x="161" y="425" type="curve"/>
			<point x="156" y="434" type="line"/>
			<point x="20" y="419" type="line"/>
			<point x="20" y="392" type="line"/>
			<point x="52" y="377"/>
			<point x="53" y="374"/>
			<point x="53" y="338" type="curve"/>
			<point x="53" y="88" type="line"/>
			<point x="64" y="44"/>
			<point x="90" y="10"/>
			<point x="152" y="-10" type="curve"/>
			<point x="196" y="6"/>
			<point x="239" y="34"/>
			<point x="282" y="59" type="curve"/>
			<point x="286" y="28"/>
			<point x="303" y="4"/>
		</contour>
	</outline>
</glyph>
<glyph name="v" format="2">
	<advance width="468"/>
	<unicode hex="0076"/>
	<outline>
		<contour>
			<point x="212" y="-10" type="curve"/>
			<point x="212" y="-10" type="line"/>
			<point x="250" y="-10" type="line"/>
			<point x="287" y="98"/>
			<point x="424" y="351"/>
			<point x="463" y="411" type="curve"/>
			<point x="462" y="430" type="line"/>
			<point x="308" y="430" type="line"/>
			<point x="308" y="395" type="line"/>
			<point x="347" y="383"/>
			<point x="350" y="370"/>
			<point x="329" y="312" type="curve"/>
			<point x="253" y="101" type="line"/>
			<point x="190" y="277" type="line" smooth="yes"/>
			<point x="161" y="358"/>
			<point x="158" y="376"/>
			<point x="210" y="395" type="curve"/>
			<point x="210" y="430" type="line"/>
			<point x="7" y="430" type="line"/>
			<point x="5" y="403" type="line"/>
			<point x="45" y="351"/>
			<point x="198" y="55"/>
		</contour>
	</outline>
</glyph>
<glyph name="w" format="2">
	<advance width="716"/>
	<unicode hex="0077"/>
	<outline>
		<contour>
			<point x="213" y="-10" type="curve"/>
			<point x="213" y="-10" type="line"/>
			<point x="251" y="-10" type="line"/>
			<point x="277" y="65"/>
			<point x="323" y="152"/>
			<point x="363" y="219" type="curve"/>
			<point x="409" y="125"/>
			<point x="453" y="25"/>
			<point x="460" y="-10" type="curve"/>
			<point x="498" y="-10" type="line"/>
			<point x="535" y="98"/>
			<point x="672" y="351"/>
			<point x="711" y="411" type="curve"/>
			<point x="710" y="430" type="line"/>
			<point x="556" y="430" type="line"/>
			<point x="556" y="395" type="line"/>
			<point x="595" y="383"/>
			<point x="598" y="370"/>
			<point x="577" y="312" type="curve"/>
			<point x="502" y="103" type="line"/>
			<point x="448" y="277" type="line" smooth="yes"/>
			<point x="423" y="359"/>
			<point x="416" y="376"/>
			<point x="468" y="395" type="curve"/>
			<point x="468" y="430" type="line"/>
			<point x="265" y="430" type="line"/>
			<point x="263" y="403" type="line"/>
			<point x="276" y="386"/>
			<point x="301" y="342"/>
			<point x="328" y="289" type="curve"/>
			<point x="254" y="100" type="line"/>
			<point x="190" y="277" type="line" smooth="yes"/>
			<point x="161" y="358"/>
			<point x="158" y="376"/>
			<point x="200" y="395" type="curve"/>
			<point x="200" y="430" type="line"/>
			<point x="7" y="430" type="line"/>
			<point x="5" y="403" type="line"/>
			<point x="45" y="351"/>
			<point x="199" y="55"/>
		</contour>
	</outline>
</glyph>
<glyph name="x" format="2">
	<advance width="496"/>
	<unicode hex="0078"/>
	<outline>
		<contour>
			<point x="5" y="-5" type="line"/>
			<point x="15" y="-10" type="line"/>
			<point x="77" y="35"/>
			<point x="143" y="109"/>
			<point x="191" y="165" type="curve"/>
			<point x="244" y="84"/>
			<point x="291" y="3"/>
			<point x="317" y="-10" type="curve"/>
			<point x="343" y="-10"/>
			<point x="434" y="80"/>
			<point x="491" y="140" type="curve"/>
			<point x="470" y="164" type="line"/>
			<point x="433" y="142"/>
			<point x="412" y="124"/>
			<point x="373" y="124" type="curve"/>
			<point x="327" y="124"/>
			<point x="288" y="186"/>
			<point x="246" y="256" type="curve"/>
			<point x="274" y="303"/>
			<point x="310" y="325"/>
			<point x="362" y="325" type="curve"/>
			<point x="390" y="325"/>
			<point x="420" y="309"/>
			<point x="431" y="290" type="curve"/>
			<point x="448" y="293" type="line"/>
			<point x="479" y="386" type="line"/>
			<point x="472" y="402"/>
			<point x="444" y="443"/>
			<point x="395" y="443" type="curve"/>
			<point x="319" y="443"/>
			<point x="275" y="397"/>
			<point x="221" y="297" type="curve"/>
			<point x="186" y="355"/>
			<point x="148" y="412"/>
			<point x="104" y="440" type="curve"/>
			<point x="17" y="373" type="line"/>
			<point x="17" y="348" type="line"/>
			<point x="61" y="342"/>
			<point x="113" y="279"/>
			<point x="162" y="208" type="curve"/>
			<point x="114" y="132"/>
			<point x="65" y="68"/>
			<point x="6" y="35" type="curve"/>
		</contour>
	</outline>
</glyph>
<glyph name="y" format="2">
	<advance width="446"/>
	<unicode hex="0079"/>
	<outline>
		<contour>
			<point x="73" y="-318" type="curve"/>
			<point x="118" y="-340" type="line"/>
			<point x="232" y="-88"/>
			<point x="400" y="357"/>
			<point x="441" y="415" type="curve"/>
			<point x="436" y="435" type="line"/>
			<point x="379" y="428"/>
			<point x="323" y="428"/>
			<point x="268" y="430" type="curve"/>
			<point x="268" y="395" type="line"/>
			<point x="328" y="375"/>
			<point x="329" y="376"/>
			<point x="297" y="270" type="curve"/>
			<point x="280" y="215"/>
			<point x="262" y="159"/>
			<point x="243" y="103" type="curve"/>
			<point x="176" y="303" type="line" smooth="yes"/>
			<point x="148" y="385"/>
			<point x="148" y="384"/>
			<point x="204" y="395" type="curve"/>
			<point x="204" y="430" type="line"/>
			<point x="163" y="429"/>
			<point x="64" y="431"/>
			<point x="5" y="435" type="curve"/>
			<point x="5" y="413" type="line"/>
			<point x="65" y="307"/>
			<point x="128" y="170"/>
			<point x="205" y="-7" type="curve"/>
			<point x="165" y="-115"/>
			<point x="122" y="-221"/>
		</contour>
	</outline>
</glyph>
<glyph name="z" format="2">
	<advance width="290"/>
	<unicode hex="007A"/>
	<outline>
		<contour>
			<point x="7" y="-309" type="curve"/>
			<point x="28" y="-340" type="line"/>
			<point x="181" y="-219"/>
			<point x="275" y="-89"/>
			<point x="275" y="6" type="curve"/>
			<point x="275" y="76"/>
			<point x="248" y="119"/>
			<point x="164" y="166" type="curve"/>
			<point x="210" y="215"/>
			<point x="273" y="274"/>
			<point x="273" y="338" type="curve"/>
			<point x="273" y="384"/>
			<point x="223" y="421"/>
			<point x="168" y="440" type="curve"/>
			<point x="5" y="371" type="line"/>
			<point x="12" y="343" type="line"/>
			<point x="102" y="349"/>
			<point x="165" y="324"/>
			<point x="165" y="258" type="curve"/>
			<point x="165" y="221"/>
			<point x="120" y="159"/>
			<point x="39" y="111" type="curve"/>
			<point x="45" y="87" type="line"/>
			<point x="152" y="68"/>
			<point x="180" y="24"/>
			<point x="180" y="-43" type="curve"/>
			<point x="180" y="-162"/>
			<point x="83" y="-244"/>
		</contour>
	</outline>
</glyph>
<glyph name="d_strok" format="2">
	<advance width="466"/>
	<unicode hex="0111"/>
	<outline>
		<contour>
			<point x="194" y="-10" type="curve"/>
			<point x="311" y="88" type="line"/>
			<point x="318" y="-1" type="line"/>
			<point x="343" y="-10" type="line"/>
			<point x="375" y="6"/>
			<point x="412" y="34"/>
			<point x="441" y="47" type="curve"/>
			<point x="437" y="68" type="line"/>
			<point x="399" y="75"/>
			<point x="389" y="80"/>
			<point x="389" y="120" type="curve" smooth="yes"/>
			<point x="389" y="236"/>
			<point x="388" y="367"/>
			<point x="390" y="478" type="curve"/>
			<point x="410" y="479"/>
			<point x="430" y="479"/>
			<point x="450" y="479" type="curve"/>
			<point x="451" y="494" type="line"/>
			<point x="399" y="531" type="line"/>
			<point x="390" y="530" type="line"/>
			<point x="392" y="602"/>
			<point x="394" y="662"/>
			<point x="398" y="700" type="curve"/>
			<point x="391" y="710" type="line"/>
			<point x="248" y="690" type="line"/>
			<point x="248" y="662" type="line"/>
			<point x="278" y="658"/>
			<point x="291" y="646"/>
			<point x="292" y="621" type="curve" smooth="yes"/>
			<point x="295" y="524" type="line"/>
			<point x="110" y="511" type="line"/>
			<point x="57" y="474" type="line"/>
			<point x="58" y="463" type="line"/>
			<point x="139" y="470"/>
			<point x="218" y="474"/>
			<point x="297" y="476" type="curve"/>
			<point x="300" y="393" type="line"/>
			<point x="282" y="398"/>
			<point x="210" y="406"/>
			<point x="167" y="406" type="curve"/>
			<point x="141" y="396"/>
			<point x="51" y="321"/>
			<point x="21" y="229" type="curve"/>
			<point x="11" y="73"/>
			<point x="89" y="-10"/>
		</contour>
		<contour>
			<point x="226" y="100" type="curve" smooth="yes"/>
			<point x="152" y="100"/>
			<point x="93" y="154"/>
			<point x="93" y="239" type="curve" smooth="yes"/>
			<point x="93" y="303"/>
			<point x="120" y="324"/>
			<point x="162" y="324" type="curve" smooth="yes"/>
			<point x="226" y="324"/>
			<point x="303" y="282"/>
			<point x="307" y="182" type="curve" smooth="yes"/>
			<point x="306" y="215" type="line"/>
			<point x="309" y="131" type="line"/>
			<point x="290" y="116"/>
			<point x="257" y="100"/>
		</contour>
	</outline>
</glyph>
<glyph name="e_macr" format="2">
	<advance width="333"/>
	<unicode hex="0113"/>
	<anchor x="184" y="672" name="top"/>
	<anchor x="184" y="430" name="_top"/>
	<outline>
		<contour>
			<point x="97" y="485" type="line"/>
			<point x="144" y="529"/>
			<point x="185" y="514"/>
			<point x="257" y="514" type="curve"/>
			<point x="275" y="531"/>
			<point x="307" y="569"/>
			<point x="343" y="613" type="curve"/>
			<point x="315" y="624" type="line"/>
			<point x="277" y="603"/>
			<point x="241" y="606"/>
			<point x="162" y="612" type="curve"/>
			<point x="122" y="575"/>
			<point x="94" y="539"/>
			<point x="67" y="497" type="curve"/>
		</contour>
		<contour>
			<point x="91" y="-10" type="curve"/>
			<point x="172" y="-10"/>
			<point x="236" y="8"/>
			<point x="322" y="43" type="curve"/>
			<point x="319" y="73" type="line"/>
			<point x="295" y="69"/>
			<point x="272" y="62"/>
			<point x="244" y="62" type="curve" smooth="yes"/>
			<point x="165" y="62"/>
			<point x="128" y="100"/>
			<point x="113" y="165" type="curve"/>
			<point x="172" y="220"/>
			<point x="257" y="295"/>
			<point x="327" y="347" type="curve"/>
			<point x="317" y="382" type="line"/>
			<point x="294" y="367" type="line"/>
			<point x="270" y="386"/>
			<point x="211" y="430"/>
			<point x="172" y="440" type="curve"/>
			<point x="156" y="430"/>
			<point x="75" y="374"/>
			<point x="46" y="340" type="curve"/>
			<point x="29" y="299"/>
			<point x="15" y="241"/>
			<point x="15" y="172" type="curve" smooth="yes"/>
			<point x="15" y="89"/>
			<point x="51" y="6"/>
		</contour>
		<contour>
			<point x="107" y="202" type="line"/>
			<point x="106" y="217"/>
			<point x="105" y="233"/>
			<point x="105" y="250" type="curve" smooth="yes"/>
			<point x="105" y="303"/>
			<point x="114" y="331"/>
			<point x="124" y="340" type="curve"/>
			<point x="156" y="340"/>
			<point x="186" y="309"/>
			<point x="191" y="283" type="curve"/>
		</contour>
	</outline>
</glyph>
<glyph name="e_ogon" format="2">
	<advance width="332"/>
	<unicode hex="0119"/>
	<outline>
		<contour>
			<point x="123" y="-156" type="curve"/>
			<point x="191" y="0" type="line"/>
			<point x="232" y="9"/>
			<point x="274" y="23"/>
			<point x="322" y="43" type="curve"/>
			<point x="319" y="73" type="line"/>
			<point x="295" y="69"/>
			<point x="272" y="62"/>
			<point x="244" y="62" type="curve"/>
			<point x="165" y="62"/>
			<point x="128" y="100"/>
			<point x="113" y="165" type="curve"/>
			<point x="172" y="220"/>
			<point x="257" y="295"/>
			<point x="327" y="347" type="curve"/>
			<point x="317" y="382" type="line"/>
			<point x="294" y="367" type="line"/>
			<point x="270" y="386"/>
			<point x="211" y="430"/>
			<point x="172" y="440" type="curve"/>
			<point x="156" y="430"/>
			<point x="75" y="374"/>
			<point x="46" y="340" type="curve"/>
			<point x="29" y="299"/>
			<point x="15" y="241"/>
			<point x="15" y="172" type="curve"/>
			<point x="15" y="89"/>
			<point x="51" y="6"/>
			<point x="91" y="-10" type="curve"/>
			<point x="115" y="-10"/>
			<point x="138" y="-8"/>
			<point x="161" y="-5" type="curve"/>
			<point x="121" y="-86"/>
			<point x="75" y="-168"/>
			<point x="35" y="-246" type="curve"/>
			<point x="35" y="-278" type="line"/>
			<point x="197" y="-200" type="line"/>
			<point x="197" y="-169" type="line"/>
			<point x="114" y="-185"/>
			<point x="111" y="-184"/>
		</contour>
		<contour>
			<point x="105" y="250" type="curve"/>
			<point x="105" y="250" type="line"/>
			<point x="105" y="303"/>
			<point x="114" y="331"/>
			<point x="124" y="340" type="curve"/>
			<point x="156" y="340"/>
			<point x="186" y="309"/>
			<point x="191" y="283" type="curve"/>
			<point x="107" y="202" type="line"/>
			<point x="106" y="217"/>
			<point x="105" y="233"/>
		</contour>
	</outline>
</glyph>
<glyph name="i_macr" format="2">
	<advance width="237"/>
	<unicode hex="012B"/>
	<anchor x="119" y="431" name="_top"/>
	<outline>
		<contour>
			<point x="16" y="484" type="line"/>
			<point x="34" y="504"/>
			<point x="52" y="519"/>
			<point x="73" y="519" type="curve" smooth="yes"/>
			<point x="92" y="519"/>
			<point x="121" y="513"/>
			<point x="145" y="506" type="curve"/>
			<point x="174" y="547"/>
			<point x="199" y="588"/>
			<point x="222" y="629" type="curve"/>
			<point x="202" y="652" type="line"/>
			<point x="192" y="623"/>
			<point x="164" y="585"/>
			<point x="135" y="585" type="curve" smooth="yes"/>
			<point x="109" y="585"/>
			<point x="101" y="589"/>
			<point x="75" y="599" type="curve"/>
			<point x="48" y="565"/>
			<point x="33" y="543"/>
			<point x="0" y="501" type="curve"/>
		</contour>
		<contour>
			<point x="105" y="-10" type="curve"/>
			<point x="143" y="7"/>
			<point x="163" y="20"/>
			<point x="217" y="44" type="curve"/>
			<point x="217" y="77" type="line"/>
			<point x="167" y="69"/>
			<point x="168" y="72"/>
			<point x="169" y="158" type="curve" smooth="yes"/>
			<point x="170" y="224"/>
			<point x="174" y="278"/>
			<point x="175" y="358" type="curve"/>
			<point x="161" y="390"/>
			<point x="140" y="425"/>
			<point x="118" y="441" type="curve"/>
			<point x="12" y="390" type="line"/>
			<point x="12" y="360" type="line"/>
			<point x="57" y="367"/>
			<point x="71" y="334"/>
			<point x="71" y="308" type="curve" smooth="yes"/>
			<point x="71" y="231"/>
			<point x="69" y="152"/>
			<point x="59" y="40" type="curve"/>
			<point x="65" y="21"/>
			<point x="84" y="0"/>
		</contour>
	</outline>
</glyph>
<glyph name="o_macr" format="2">
	<advance width="426"/>
	<unicode hex="014D"/>
	<outline>
		<contour>
			<point x="129" y="535" type="line"/>
			<point x="176" y="549"/>
			<point x="191" y="550"/>
			<point x="282" y="536" type="curve"/>
			<point x="308" y="562"/>
			<point x="346" y="595"/>
			<point x="373" y="637" type="curve"/>
			<point x="374" y="650"/>
			<point x="363" y="665"/>
			<point x="357" y="667" type="curve"/>
			<point x="325" y="637" type="line"/>
			<point x="333" y="633"/>
			<point x="339" y="627"/>
			<point x="339" y="620" type="curve"/>
			<point x="313" y="608"/>
			<point x="307" y="620"/>
			<point x="198" y="629" type="curve"/>
			<point x="183" y="618"/>
			<point x="152" y="583"/>
			<point x="111" y="548" type="curve"/>
		</contour>
		<contour>
			<point x="220" y="-10" type="curve"/>
			<point x="291" y="24"/>
			<point x="350" y="69"/>
			<point x="385" y="122" type="curve"/>
			<point x="445" y="267"/>
			<point x="374" y="440"/>
			<point x="230" y="440" type="curve" smooth="yes"/>
			<point x="131" y="440"/>
			<point x="34" y="328"/>
			<point x="20" y="245" type="curve"/>
			<point x="17" y="118"/>
			<point x="63" y="25"/>
		</contour>
		<contour>
			<point x="281" y="89" type="curve"/>
			<point x="154" y="76"/>
			<point x="103" y="172"/>
			<point x="103" y="259" type="curve" smooth="yes"/>
			<point x="103" y="284"/>
			<point x="106" y="317"/>
			<point x="118" y="335" type="curve"/>
			<point x="128" y="345"/>
			<point x="150" y="353"/>
			<point x="174" y="353" type="curve" smooth="yes"/>
			<point x="243" y="353"/>
			<point x="316" y="296"/>
			<point x="316" y="192" type="curve" smooth="yes"/>
			<point x="316" y="161"/>
			<point x="308" y="106"/>
		</contour>
	</outline>
</glyph>
<glyph name="u_macr" format="2">
	<advance width="448"/>
	<unicode hex="016B"/>
	<anchor x="211" y="672" name="top"/>
	<anchor x="211" y="430" name="_top"/>
	<outline>
		<contour>
			<point x="84" y="528" type="curve"/>
			<point x="114" y="516" type="line"/>
			<point x="151" y="526"/>
			<point x="212" y="525"/>
			<point x="284" y="525" type="curve"/>
			<point x="302" y="542"/>
			<point x="334" y="570"/>
			<point x="370" y="614" type="curve"/>
			<point x="342" y="625" type="line"/>
			<point x="304" y="604"/>
			<point x="268" y="607"/>
			<point x="169" y="613" type="curve"/>
			<point x="136" y="576"/>
			<point x="108" y="550"/>
		</contour>
		<contour>
			<point x="319" y="-15" type="curve"/>
			<point x="319" y="-15" type="line"/>
			<point x="418" y="49" type="line"/>
			<point x="418" y="74" type="line"/>
			<point x="382" y="92"/>
			<point x="381" y="100"/>
			<point x="381" y="141" type="curve"/>
			<point x="381" y="192"/>
			<point x="379" y="341"/>
			<point x="388" y="425" type="curve"/>
			<point x="383" y="434" type="line"/>
			<point x="236" y="409" type="line"/>
			<point x="236" y="382" type="line"/>
			<point x="276" y="369"/>
			<point x="281" y="366"/>
			<point x="281" y="316" type="curve"/>
			<point x="281" y="98" type="line"/>
			<point x="264" y="89"/>
			<point x="247" y="85"/>
			<point x="234" y="85" type="curve"/>
			<point x="189" y="85"/>
			<point x="153" y="106"/>
			<point x="153" y="166" type="curve"/>
			<point x="153" y="237"/>
			<point x="147" y="367"/>
			<point x="161" y="425" type="curve"/>
			<point x="156" y="434" type="line"/>
			<point x="20" y="419" type="line"/>
			<point x="20" y="392" type="line"/>
			<point x="52" y="377"/>
			<point x="53" y="374"/>
			<point x="53" y="338" type="curve"/>
			<point x="53" y="88" type="line"/>
			<point x="64" y="44"/>
			<point x="90" y="10"/>
			<point x="152" y="-10" type="curve"/>
			<point x="196" y="6"/>
			<point x="239" y="34"/>
			<point x="282" y="59" type="curve"/>
			<point x="286" y="28"/>
			<point x="303" y="4"/>
		</contour>
	</outline>
</glyph>
<glyph name="longs" format="2">
	<advance width="273"/>
	<unicode hex="017F"/>
	<outline>
		<contour>
			<point x="64" y="-12" type="line"/>
			<point x="161" y="21" type="line"/>
			<point x="155" y="123"/>
			<point x="149" y="272"/>
			<point x="152" y="475" type="curve" smooth="yes"/>
			<point x="153" y="548"/>
			<point x="170" y="600"/>
			<point x="187" y="628" type="curve"/>
			<point x="221" y="628"/>
			<point x="273" y="609"/>
			<point x="316" y="587" type="curve"/>
			<point x="332" y="611"/>
			<point x="352" y="629"/>
			<point x="383" y="661" type="curve"/>
			<point x="383" y="668" type="line"/>
			<point x="328" y="692"/>
			<point x="271" y="710"/>
			<point x="222" y="710" type="curve"/>
			<point x="119" y="633"/>
			<point x="76" y="549"/>
			<point x="45" y="463" type="curve"/>
			<point x="45" y="447" type="line"/>
			<point x="58" y="357"/>
			<point x="56" y="280"/>
			<point x="56" y="189" type="curve" smooth="yes"/>
			<point x="56" y="90"/>
			<point x="51" y="10"/>
			<point x="49" y="-5" type="curve"/>
		</contour>
	</outline>
</glyph>
<glyph name="b_strok" format="2">
	<advance width="442"/>
	<unicode hex="0180"/>
	<outline>
		<contour>
			<point x="197" y="-10" type="curve" smooth="yes"/>
			<point x="275" y="-10"/>
			<point x="422" y="97"/>
			<point x="422" y="237" type="curve" smooth="yes"/>
			<point x="422" y="349"/>
			<point x="377" y="421"/>
			<point x="280" y="441" type="curve"/>
			<point x="246" y="434"/>
			<point x="172" y="417"/>
			<point x="127" y="403" type="curve"/>
			<point x="127" y="415"/>
			<point x="128" y="427"/>
			<point x="129" y="439" type="curve"/>
			<point x="243" y="537"/>
			<point x="278" y="602"/>
			<point x="317" y="660" type="curve"/>
			<point x="313" y="672" type="line"/>
			<point x="189" y="692" type="line"/>
			<point x="183" y="672" type="line"/>
			<point x="218" y="655" type="line"/>
			<point x="218" y="619"/>
			<point x="199" y="565"/>
			<point x="131" y="481" type="curve"/>
			<point x="137" y="580"/>
			<point x="146" y="653"/>
			<point x="151" y="688" type="curve"/>
			<point x="145" y="700" type="line"/>
			<point x="30" y="700" type="line"/>
			<point x="40" y="591"/>
			<point x="35" y="345"/>
			<point x="35" y="94" type="curve"/>
			<point x="52" y="37"/>
			<point x="122" y="-10"/>
		</contour>
		<contour>
			<point x="292" y="74" type="curve"/>
			<point x="114" y="60"/>
			<point x="124" y="156"/>
			<point x="124" y="254" type="curve" smooth="yes"/>
			<point x="124" y="293"/>
			<point x="125" y="330"/>
			<point x="126" y="365" type="curve"/>
			<point x="317" y="394"/>
			<point x="416" y="175"/>
		</contour>
	</outline>
</glyph>
<glyph name="Eta" format="2">
	<advance width="402"/>
	<unicode hex="0397"/>
	<outline>
		<contour>
			<point x="50" y="-1" type="curve"/>
			<point x="54" y="-10" type="line"/>
			<point x="156" y="19" type="line"/>
			<point x="158" y="80"/>
			<point x="159" y="155"/>
			<point x="160" y="201" type="curve"/>
			<point x="183" y="212"/>
			<point x="207" y="220"/>
			<point x="230" y="228" type="curve"/>
			<point x="235" y="134"/>
			<point x="248" y="30"/>
			<point x="253" y="-7" type="curve"/>
			<point x="360" y="17" type="line"/>
			<point x="362" y="28" type="line"/>
			<point x="341" y="76"/>
			<point x="328" y="182"/>
			<point x="328" y="278" type="curve"/>
			<point x="328" y="342"/>
			<point x="326" y="378"/>
			<point x="351" y="405" type="curve"/>
			<point x="351" y="440" type="line"/>
			<point x="231" y="426" type="line"/>
			<point x="230" y="383"/>
			<point x="229" y="342"/>
			<point x="229" y="288" type="curve"/>
			<point x="206" y="276"/>
			<point x="182" y="265"/>
			<point x="160" y="257" type="curve"/>
			<point x="158" y="341"/>
			<point x="146" y="411"/>
			<point x="109" y="440" type="curve"/>
			<point x="15" y="390" type="line"/>
			<point x="15" y="370" type="line"/>
			<point x="49" y="350"/>
			<point x="68" y="317"/>
			<point x="68" y="199" type="curve"/>
			<point x="68" y="95"/>
			<point x="63" y="53"/>
		</contour>
	</outline>
</glyph>
<glyph name="Theta" format="2">
	<advance width="629"/>
	<unicode hex="0398"/>
	<outline>
		<contour>
			<point x="310" y="-10" type="curve"/>
			<point x="310" y="-10" type="line"/>
			<point x="460" y="-10"/>
			<point x="599" y="106"/>
			<point x="599" y="296" type="curve"/>
			<point x="599" y="486"/>
			<point x="470" y="605"/>
			<point x="310" y="605" type="curve"/>
			<point x="160" y="605"/>
			<point x="30" y="485"/>
			<point x="30" y="295" type="curve"/>
			<point x="30" y="105"/>
			<point x="150" y="-10"/>
		</contour>
		<contour>
			<point x="126" y="328" type="curve"/>
			<point x="126" y="328" type="line"/>
			<point x="137" y="474"/>
			<point x="219" y="540"/>
			<point x="310" y="540" type="curve"/>
			<point x="401" y="540"/>
			<point x="491" y="474"/>
			<point x="503" y="328" type="curve"/>
			<point x="345" y="316"/>
			<point x="259" y="321"/>
		</contour>
		<contour>
			<point x="310" y="55" type="curve"/>
			<point x="310" y="55" type="line"/>
			<point x="218" y="55"/>
			<point x="135" y="120"/>
			<point x="126" y="269" type="curve"/>
			<point x="242" y="273"/>
			<point x="392" y="272"/>
			<point x="503" y="268" type="curve"/>
			<point x="493" y="120"/>
			<point x="402" y="55"/>
		</contour>
	</outline>
</glyph>
<glyph name="alpha" format="2">
	<advance width="654"/>
	<unicode hex="03B1"/>
	<outline>
		<contour>
			<point x="192" y="-10" type="curve"/>
			<point x="260" y="7"/>
			<point x="329" y="39"/>
			<point x="385" y="107" type="curve"/>
			<point x="423" y="21"/>
			<point x="475" y="-10"/>
			<point x="511" y="-10" type="curve"/>
			<point x="561" y="20"/>
			<point x="607" y="82"/>
			<point x="639" y="177" type="curve"/>
			<point x="615" y="192" type="line"/>
			<point x="593" y="156"/>
			<point x="567" y="118"/>
			<point x="537" y="118" type="curve" smooth="yes"/>
			<point x="505" y="118"/>
			<point x="480" y="168"/>
			<point x="448" y="229" type="curve"/>
			<point x="459" y="303"/>
			<point x="498" y="359"/>
			<point x="541" y="386" type="curve"/>
			<point x="541" y="398" type="line"/>
			<point x="459" y="440" type="line"/>
			<point x="431" y="404"/>
			<point x="413" y="340"/>
			<point x="414" y="290" type="curve"/>
			<point x="368" y="367"/>
			<point x="304" y="440"/>
			<point x="197" y="430" type="curve"/>
			<point x="120" y="380"/>
			<point x="40" y="257"/>
			<point x="40" y="183" type="curve" smooth="yes"/>
			<point x="40" y="84"/>
			<point x="100" y="0"/>
		</contour>
		<contour>
			<point x="243" y="85" type="curve" smooth="yes"/>
			<point x="175" y="85"/>
			<point x="112" y="149"/>
			<point x="112" y="232" type="curve" smooth="yes"/>
			<point x="112" y="288"/>
			<point x="137" y="327"/>
			<point x="196" y="327" type="curve" smooth="yes"/>
			<point x="269" y="327"/>
			<point x="333" y="274"/>
			<point x="366" y="160" type="curve" smooth="yes"/>
			<point x="370" y="147" type="line"/>
			<point x="333" y="100"/>
			<point x="293" y="85"/>
		</contour>
	</outline>
</glyph>
<glyph name="beta" format="2">
	<advance width="551"/>
	<unicode hex="03B2"/>
	<outline>
		<contour>
			<point x="43" y="-180" type="line"/>
			<point x="144" y="-259" type="line"/>
			<point x="187" y="-195"/>
			<point x="187" y="-65"/>
			<point x="174" y="103" type="curve"/>
			<point x="237" y="35"/>
			<point x="285" y="-10"/>
			<point x="371" y="-10" type="curve"/>
			<point x="465" y="-10"/>
			<point x="536" y="60"/>
			<point x="536" y="143" type="curve"/>
			<point x="536" y="210"/>
			<point x="498" y="262"/>
			<point x="460" y="279" type="curve"/>
			<point x="411" y="270"/>
			<point x="343" y="258"/>
			<point x="274" y="255" type="curve"/>
			<point x="334" y="326"/>
			<point x="395" y="421"/>
			<point x="395" y="507" type="curve"/>
			<point x="395" y="572"/>
			<point x="330" y="684"/>
			<point x="231" y="710" type="curve"/>
			<point x="194" y="702"/>
			<point x="91" y="655"/>
			<point x="20" y="613" type="curve"/>
			<point x="55" y="477"/>
			<point x="75" y="262"/>
			<point x="75" y="56" type="curve"/>
			<point x="75" y="-87"/>
			<point x="56" y="-130"/>
			<point x="43" y="-156" type="curve"/>
		</contour>
		<contour>
			<point x="167" y="200" type="curve"/>
			<point x="167" y="200" type="line"/>
			<point x="156" y="352"/>
			<point x="141" y="527"/>
			<point x="134" y="592" type="curve"/>
			<point x="164" y="608"/>
			<point x="181" y="614"/>
			<point x="196" y="611" type="curve"/>
			<point x="245" y="602"/>
			<point x="285" y="524"/>
			<point x="285" y="445" type="curve"/>
			<point x="285" y="367"/>
			<point x="243" y="255"/>
		</contour>
		<contour>
			<point x="333" y="85" type="curve"/>
			<point x="333" y="85" type="line"/>
			<point x="270" y="85"/>
			<point x="229" y="111"/>
			<point x="186" y="162" type="curve"/>
			<point x="197" y="172" type="line" smooth="yes"/>
			<point x="229" y="198"/>
			<point x="273" y="223"/>
			<point x="339" y="223" type="curve"/>
			<point x="393" y="223"/>
			<point x="426" y="195"/>
			<point x="426" y="151" type="curve"/>
			<point x="426" y="107"/>
			<point x="383" y="85"/>
		</contour>
	</outline>
</glyph>
<glyph name="gamma" format="2">
	<advance width="400"/>
	<unicode hex="03B3"/>
	<outline>
		<contour>
			<point x="146" y="-7" type="curve"/>
			<point x="160" y="125"/>
			<point x="134" y="288"/>
			<point x="142" y="351" type="curve"/>
			<point x="175" y="365"/>
			<point x="267" y="351"/>
			<point x="333" y="351" type="curve"/>
			<point x="351" y="371"/>
			<point x="380" y="410"/>
			<point x="400" y="439" type="curve"/>
			<point x="387" y="453" type="line"/>
			<point x="311" y="427"/>
			<point x="242" y="430"/>
			<point x="157" y="430" type="curve" smooth="yes"/>
			<point x="127" y="430"/>
			<point x="75" y="405"/>
			<point x="30" y="377" type="curve"/>
			<point x="31" y="362" type="line"/>
			<point x="63" y="337"/>
			<point x="65" y="302"/>
			<point x="65" y="230" type="curve" smooth="yes"/>
			<point x="65" y="70"/>
			<point x="53" y="51"/>
			<point x="37" y="36" type="curve"/>
			<point x="37" y="15" type="line"/>
			<point x="74" y="8"/>
			<point x="109" y="1"/>
		</contour>
	</outline>
</glyph>
<glyph name="delta" format="2">
	<advance width="517"/>
	<unicode hex="03B4"/>
	<outline>
		<contour>
			<point x="214" y="-10" type="curve"/>
			<point x="214" y="-10" type="line"/>
			<point x="314" y="-10"/>
			<point x="394" y="64"/>
			<point x="394" y="154" type="curve"/>
			<point x="394" y="248"/>
			<point x="334" y="291"/>
			<point x="219" y="319" type="curve"/>
			<point x="276" y="345"/>
			<point x="358" y="359"/>
			<point x="460" y="359" type="curve"/>
			<point x="505" y="385"/>
			<point x="498" y="484"/>
			<point x="464" y="535" type="curve"/>
			<point x="440" y="526" type="line"/>
			<point x="432" y="458"/>
			<point x="429" y="458"/>
			<point x="321" y="440" type="curve"/>
			<point x="154" y="413"/>
			<point x="45" y="312"/>
			<point x="45" y="171" type="curve"/>
			<point x="45" y="71"/>
			<point x="104" y="-10"/>
		</contour>
		<contour>
			<point x="234" y="85" type="curve"/>
			<point x="234" y="85" type="line"/>
			<point x="184" y="85"/>
			<point x="132" y="119"/>
			<point x="132" y="199" type="curve"/>
			<point x="132" y="235"/>
			<point x="146" y="264"/>
			<point x="172" y="288" type="curve"/>
			<point x="246" y="268"/>
			<point x="299" y="208"/>
			<point x="299" y="156" type="curve"/>
			<point x="299" y="106"/>
			<point x="274" y="85"/>
		</contour>
	</outline>
</glyph>
<glyph name="theta" format="2">
	<advance width="454"/>
	<unicode hex="03B8"/>
	<outline>
		<contour>
			<point x="227" y="-10" type="curve" smooth="yes"/>
			<point x="337" y="-10"/>
			<point x="424" y="96"/>
			<point x="424" y="296" type="curve" smooth="yes"/>
			<point x="424" y="496"/>
			<point x="337" y="605"/>
			<point x="227" y="605" type="curve" smooth="yes"/>
			<point x="117" y="605"/>
			<point x="30" y="495"/>
			<point x="30" y="295" type="curve" smooth="yes"/>
			<point x="30" y="95"/>
			<point x="117" y="-10"/>
		</contour>
		<contour>
			<point x="120" y="321" type="curve"/>
			<point x="125" y="458"/>
			<point x="170" y="530"/>
			<point x="227" y="530" type="curve" smooth="yes"/>
			<point x="283" y="530"/>
			<point x="328" y="459"/>
			<point x="333" y="323" type="curve"/>
			<point x="265" y="317"/>
			<point x="191" y="317"/>
		</contour>
		<contour>
			<point x="227" y="65" type="curve" smooth="yes"/>
			<point x="170" y="65"/>
			<point x="125" y="139"/>
			<point x="120" y="271" type="curve"/>
			<point x="194" y="276"/>
			<point x="258" y="276"/>
			<point x="333" y="269" type="curve"/>
			<point x="328" y="138"/>
			<point x="283" y="65"/>
		</contour>
	</outline>
</glyph>
<glyph name="iota" format="2">
	<advance width="199"/>
	<unicode hex="03B9"/>
	<outline>
		<contour>
			<point x="41" y="0" type="curve"/>
			<point x="41" y="0" type="line"/>
			<point x="159" y="0" type="line"/>
			<point x="157" y="50"/>
			<point x="151" y="423"/>
			<point x="151" y="435" type="curve"/>
			<point x="143" y="442" type="line"/>
			<point x="37" y="421" type="line"/>
			<point x="35" y="391" type="line"/>
			<point x="61" y="361"/>
			<point x="50" y="137"/>
		</contour>
	</outline>
</glyph>
<glyph name="kappa" format="2">
	<advance width="513"/>
	<unicode hex="03BA"/>
	<outline>
		<contour>
			<point x="58" y="-30" type="curve"/>
			<point x="83" y="-38" type="line"/>
			<point x="113" y="5"/>
			<point x="146" y="46"/>
			<point x="180" y="85" type="curve"/>
			<point x="247" y="38"/>
			<point x="338" y="-1"/>
			<point x="371" y="-10" type="curve"/>
			<point x="469" y="0" type="line"/>
			<point x="469" y="25" type="line"/>
			<point x="406" y="45"/>
			<point x="291" y="105"/>
			<point x="245" y="155" type="curve"/>
			<point x="334" y="248"/>
			<point x="424" y="326"/>
			<point x="493" y="382" type="curve"/>
			<point x="492" y="400" type="line"/>
			<point x="410" y="440" type="line"/>
			<point x="324" y="358"/>
			<point x="238" y="260"/>
			<point x="165" y="161" type="curve"/>
			<point x="165" y="433" type="line"/>
			<point x="141" y="440" type="line"/>
			<point x="25" y="365" type="line"/>
			<point x="25" y="340" type="line"/>
			<point x="62" y="334"/>
			<point x="74" y="279"/>
			<point x="74" y="226" type="curve"/>
			<point x="74" y="128"/>
			<point x="75" y="68"/>
		</contour>
	</outline>
</glyph>
<glyph name="lambda" format="2">
	<advance width="682"/>
	<unicode hex="03BB"/>
	<outline>
		<contour>
			<point x="93" y="-6" type="line"/>
			<point x="119" y="65"/>
			<point x="198" y="260"/>
			<point x="253" y="386" type="curve"/>
			<point x="364" y="241"/>
			<point x="510" y="47"/>
			<point x="540" y="15" type="curve"/>
			<point x="586" y="36"/>
			<point x="639" y="93"/>
			<point x="672" y="127" type="curve"/>
			<point x="646" y="152" type="line"/>
			<point x="619" y="128"/>
			<point x="617" y="127"/>
			<point x="574" y="169" type="curve" smooth="yes"/>
			<point x="552" y="191"/>
			<point x="170" y="709"/>
			<point x="153" y="709" type="curve" smooth="yes"/>
			<point x="136" y="709"/>
			<point x="40" y="606"/>
			<point x="5" y="565" type="curve"/>
			<point x="30" y="536" type="line"/>
			<point x="92" y="579"/>
			<point x="94" y="579"/>
			<point x="126" y="546" type="curve" smooth="yes"/>
			<point x="137" y="534"/>
			<point x="167" y="496"/>
			<point x="207" y="445" type="curve"/>
			<point x="140" y="267"/>
			<point x="68" y="108"/>
			<point x="32" y="22" type="curve"/>
		</contour>
	</outline>
</glyph>
<glyph name="mu" format="2">
	<advance width="435"/>
	<unicode hex="03BC"/>
	<outline>
		<contour>
			<point x="53" y="-200" type="curve"/>
			<point x="162" y="-198" type="line"/>
			<point x="157" y="-133"/>
			<point x="153" y="-43"/>
			<point x="150" y="50" type="curve"/>
			<point x="178" y="18"/>
			<point x="223" y="-10"/>
			<point x="256" y="-10" type="curve" smooth="yes"/>
			<point x="334" y="-10"/>
			<point x="393" y="41"/>
			<point x="393" y="151" type="curve" smooth="yes"/>
			<point x="393" y="289"/>
			<point x="369" y="383"/>
			<point x="395" y="423" type="curve"/>
			<point x="382" y="442" type="line"/>
			<point x="283" y="410" type="line"/>
			<point x="300" y="350"/>
			<point x="309" y="266"/>
			<point x="309" y="182" type="curve" smooth="yes"/>
			<point x="309" y="100"/>
			<point x="259" y="74"/>
			<point x="225" y="74" type="curve" smooth="yes"/>
			<point x="202" y="74"/>
			<point x="170" y="86"/>
			<point x="148" y="110" type="curve"/>
			<point x="144" y="221"/>
			<point x="142" y="332"/>
			<point x="142" y="410" type="curve"/>
			<point x="63" y="440" type="line"/>
			<point x="50" y="432" type="line"/>
			<point x="65" y="245"/>
			<point x="62" y="11"/>
		</contour>
	</outline>
</glyph>
<glyph name="xi" format="2">
	<advance width="326"/>
	<unicode hex="03BE"/>
	<outline>
		<contour>
			<point x="303" y="-340" type="line"/>
			<point x="362" y="-335"/>
			<point x="426" y="-293"/>
			<point x="426" y="-251" type="curve" smooth="yes"/>
			<point x="426" y="-212"/>
			<point x="399" y="-181"/>
			<point x="283" y="-131" type="curve" smooth="yes"/>
			<point x="192" y="-92"/>
			<point x="139" y="-70"/>
			<point x="139" y="-16" type="curve" smooth="yes"/>
			<point x="139" y="51"/>
			<point x="197" y="83"/>
			<point x="279" y="109" type="curve"/>
			<point x="267" y="143" type="line"/>
			<point x="188" y="109"/>
			<point x="134" y="131"/>
			<point x="134" y="206" type="curve" smooth="yes"/>
			<point x="134" y="268"/>
			<point x="190" y="299"/>
			<point x="257" y="315" type="curve"/>
			<point x="253" y="348" type="line"/>
			<point x="195" y="331"/>
			<point x="141" y="351"/>
			<point x="141" y="409" type="curve" smooth="yes"/>
			<point x="141" y="464"/>
			<point x="190" y="494"/>
			<point x="272" y="501" type="curve"/>
			<point x="263" y="557" type="line"/>
			<point x="150" y="557"/>
			<point x="55" y="491"/>
			<point x="55" y="400" type="curve" smooth="yes"/>
			<point x="55" y="343"/>
			<point x="90" y="318"/>
			<point x="119" y="297" type="curve"/>
			<point x="92" y="279"/>
			<point x="50" y="249"/>
			<point x="50" y="187" type="curve" smooth="yes"/>
			<point x="50" y="135"/>
			<point x="82" y="100"/>
			<point x="122" y="76" type="curve"/>
			<point x="83" y="35"/>
			<point x="59" y="-11"/>
			<point x="59" y="-50" type="curve" smooth="yes"/>
			<point x="59" y="-131"/>
			<point x="140" y="-169"/>
			<point x="238" y="-213" type="curve" smooth="yes"/>
			<point x="289" y="-236"/>
			<point x="326" y="-258"/>
			<point x="326" y="-280" type="curve" smooth="yes"/>
			<point x="326" y="-298"/>
			<point x="315" y="-305"/>
			<point x="293" y="-316" type="curve"/>
		</contour>
	</outline>
</glyph>
<glyph name="omicron" format="2">
	<advance width="490"/>
	<unicode hex="03BF"/>
	<outline>
		<contour>
			<point x="245" y="-10" type="curve" smooth="yes"/>
			<point x="355" y="-10"/>
			<point x="450" y="83"/>
			<point x="450" y="213" type="curve" smooth="yes"/>
			<point x="450" y="343"/>
			<point x="375" y="440"/>
			<point x="245" y="440" type="curve" smooth="yes"/>
			<point x="125" y="440"/>
			<point x="40" y="333"/>
			<point x="40" y="203" type="curve" smooth="yes"/>
			<point x="40" y="73"/>
			<point x="135" y="-10"/>
		</contour>
		<contour>
			<point x="250" y="75" type="curve" smooth="yes"/>
			<point x="183" y="75"/>
			<point x="131" y="129"/>
			<point x="131" y="223" type="curve" smooth="yes"/>
			<point x="131" y="302"/>
			<point x="176" y="350"/>
			<point x="236" y="350" type="curve" smooth="yes"/>
			<point x="304" y="350"/>
			<point x="356" y="298"/>
			<point x="356" y="213" type="curve" smooth="yes"/>
			<point x="356" y="128"/>
			<point x="310" y="75"/>
		</contour>
	</outline>
</glyph>
<glyph name="pi" format="2">
	<advance width="723"/>
	<unicode hex="03C0"/>
	<outline>
		<contour>
			<point x="125" y="-14" type="line"/>
			<point x="174" y="-4"/>
			<point x="223" y="-3"/>
			<point x="260" y="4" type="curve"/>
			<point x="260" y="34"/>
			<point x="256" y="204"/>
			<point x="269" y="348" type="curve"/>
			<point x="335" y="347"/>
			<point x="401" y="345"/>
			<point x="467" y="343" type="curve"/>
			<point x="465" y="218"/>
			<point x="462" y="137"/>
			<point x="456" y="0" type="curve"/>
			<point x="572" y="0" type="line"/>
			<point x="566" y="125"/>
			<point x="560" y="247"/>
			<point x="560" y="341" type="curve"/>
			<point x="599" y="340"/>
			<point x="639" y="340"/>
			<point x="678" y="340" type="curve"/>
			<point x="701" y="378"/>
			<point x="711" y="423"/>
			<point x="718" y="470" type="curve"/>
			<point x="687" y="477" type="line"/>
			<point x="672" y="443"/>
			<point x="602" y="430"/>
			<point x="484" y="430" type="curve" smooth="yes"/>
			<point x="326" y="430"/>
			<point x="182" y="435"/>
			<point x="79" y="435" type="curve"/>
			<point x="54" y="407"/>
			<point x="27" y="350"/>
			<point x="10" y="314" type="curve"/>
			<point x="40" y="303" type="line"/>
			<point x="59" y="335"/>
			<point x="83" y="350"/>
			<point x="127" y="350" type="curve" smooth="yes"/>
			<point x="169" y="350" type="line"/>
			<point x="168" y="276"/>
			<point x="165" y="139"/>
			<point x="160" y="70" type="curve" smooth="yes"/>
			<point x="157" y="33"/>
			<point x="136" y="25"/>
			<point x="117" y="15" type="curve"/>
		</contour>
	</outline>
</glyph>
<glyph name="rho" format="2">
	<advance width="435"/>
	<unicode hex="03C1"/>
	<outline>
		<contour>
			<point x="159" y="-275" type="curve"/>
			<point x="184" y="-244"/>
			<point x="189" y="-228"/>
			<point x="190" y="-185" type="curve" smooth="yes"/>
			<point x="192" y="-87"/>
			<point x="169" y="22"/>
			<point x="166" y="110" type="curve"/>
			<point x="176" y="102"/>
			<point x="205" y="92"/>
			<point x="238" y="92" type="curve" smooth="yes"/>
			<point x="328" y="92"/>
			<point x="400" y="170"/>
			<point x="400" y="266" type="curve" smooth="yes"/>
			<point x="400" y="372"/>
			<point x="331" y="440"/>
			<point x="239" y="440" type="curve" smooth="yes"/>
			<point x="144" y="440"/>
			<point x="72" y="380"/>
			<point x="72" y="266" type="curve" smooth="yes"/>
			<point x="72" y="171"/>
			<point x="89" y="67"/>
			<point x="89" y="-10" type="curve" smooth="yes"/>
			<point x="89" y="-91"/>
			<point x="85" y="-211"/>
			<point x="45" y="-205" type="curve"/>
			<point x="35" y="-230" type="line"/>
			<point x="74" y="-246"/>
			<point x="152" y="-275"/>
		</contour>
		<contour>
			<point x="234" y="172" type="curve" smooth="yes"/>
			<point x="188" y="172"/>
			<point x="149" y="200"/>
			<point x="149" y="260" type="curve" smooth="yes"/>
			<point x="149" y="311"/>
			<point x="188" y="348"/>
			<point x="234" y="348" type="curve" smooth="yes"/>
			<point x="277" y="348"/>
			<point x="317" y="316"/>
			<point x="317" y="255" type="curve" smooth="yes"/>
			<point x="317" y="205"/>
			<point x="277" y="172"/>
		</contour>
	</outline>
</glyph>
<glyph name="tau" format="2">
	<advance width="506"/>
	<unicode hex="03C4"/>
	<outline>
		<contour>
			<point x="161" y="-10" type="line"/>
			<point x="302" y="-2" type="line"/>
			<point x="303" y="87"/>
			<point x="295" y="207"/>
			<point x="302" y="343" type="curve"/>
			<point x="351" y="340"/>
			<point x="401" y="337"/>
			<point x="450" y="335" type="curve"/>
			<point x="475" y="371"/>
			<point x="483" y="418"/>
			<point x="486" y="465" type="curve"/>
			<point x="465" y="477" type="line"/>
			<point x="450" y="443"/>
			<point x="443" y="430"/>
			<point x="325" y="430" type="curve" smooth="yes"/>
			<point x="228" y="430"/>
			<point x="193" y="435"/>
			<point x="138" y="435" type="curve" smooth="yes"/>
			<point x="91" y="435"/>
			<point x="38" y="382"/>
			<point x="5" y="316" type="curve"/>
			<point x="28" y="303" type="line"/>
			<point x="47" y="335"/>
			<point x="121" y="348"/>
			<point x="165" y="348" type="curve" smooth="yes"/>
			<point x="181" y="348"/>
			<point x="198" y="348"/>
			<point x="214" y="347" type="curve"/>
			<point x="211" y="274"/>
			<point x="203" y="143"/>
			<point x="198" y="74" type="curve" smooth="yes"/>
			<point x="195" y="37"/>
			<point x="177" y="29"/>
			<point x="158" y="19" type="curve"/>
		</contour>
	</outline>
</glyph>
<glyph name="upsilon" format="2">
	<advance width="633"/>
	<unicode hex="03C5"/>
	<outline>
		<contour>
			<point x="338" y="-10" type="curve" smooth="yes"/>
			<point x="507" y="-10"/>
			<point x="549" y="315"/>
			<point x="628" y="387" type="curve"/>
			<point x="627" y="418" type="line"/>
			<point x="486" y="386" type="line"/>
			<point x="443" y="200"/>
			<point x="420" y="85"/>
			<point x="343" y="85" type="curve" smooth="yes"/>
			<point x="265" y="85"/>
			<point x="249" y="188"/>
			<point x="217" y="274" type="curve" smooth="yes"/>
			<point x="193" y="340"/>
			<point x="172" y="389"/>
			<point x="149" y="419" type="curve"/>
			<point x="10" y="370" type="line"/>
			<point x="10" y="340" type="line"/>
			<point x="62" y="325"/>
			<point x="101" y="294"/>
			<point x="136" y="207" type="curve" smooth="yes"/>
			<point x="184" y="87"/>
			<point x="211" y="-10"/>
		</contour>
	</outline>
</glyph>
<glyph name="phi" format="2">
	<advance width="690"/>
	<unicode hex="03C6"/>
	<outline>
		<contour>
			<point x="235" y="-239" type="curve"/>
			<point x="238" y="-330" type="line"/>
			<point x="308" y="-312"/>
			<point x="395" y="-259"/>
			<point x="393" y="-183" type="curve"/>
			<point x="391" y="-130"/>
			<point x="390" y="-55"/>
			<point x="388" y="25" type="curve"/>
			<point x="543" y="38"/>
			<point x="660" y="113"/>
			<point x="660" y="222" type="curve"/>
			<point x="660" y="327"/>
			<point x="571" y="406"/>
			<point x="384" y="413" type="curve"/>
			<point x="385" y="515"/>
			<point x="389" y="593"/>
			<point x="414" y="652" type="curve"/>
			<point x="410" y="666" type="line"/>
			<point x="304" y="702" type="line"/>
			<point x="291" y="691" type="line"/>
			<point x="293" y="626"/>
			<point x="296" y="502"/>
			<point x="298" y="411" type="curve"/>
			<point x="126" y="394"/>
			<point x="30" y="300"/>
			<point x="30" y="202" type="curve"/>
			<point x="30" y="91"/>
			<point x="127" y="31"/>
			<point x="302" y="24" type="curve"/>
			<point x="302" y="-15"/>
			<point x="303" y="-50"/>
			<point x="303" y="-83" type="curve"/>
			<point x="303" y="-199"/>
			<point x="306" y="-225"/>
		</contour>
		<contour>
			<point x="387" y="116" type="curve"/>
			<point x="387" y="116" type="line"/>
			<point x="385" y="190"/>
			<point x="384" y="263"/>
			<point x="384" y="323" type="curve"/>
			<point x="498" y="318"/>
			<point x="590" y="289"/>
			<point x="590" y="222" type="curve"/>
			<point x="590" y="158"/>
			<point x="503" y="124"/>
		</contour>
		<contour>
			<point x="300" y="116" type="curve"/>
			<point x="300" y="116" type="line"/>
			<point x="181" y="120"/>
			<point x="102" y="144"/>
			<point x="102" y="202" type="curve"/>
			<point x="102" y="261"/>
			<point x="175" y="309"/>
			<point x="298" y="320" type="curve"/>
			<point x="298" y="239"/>
			<point x="299" y="172"/>
		</contour>
	</outline>
</glyph>
<glyph name="chi" format="2">
	<advance width="493"/>
	<unicode hex="03C7"/>
	<outline>
		<contour>
			<point x="374" y="-10" type="curve"/>
			<point x="473" y="40" type="line"/>
			<point x="471" y="56" type="line"/>
			<point x="433" y="65"/>
			<point x="356" y="140"/>
			<point x="283" y="224" type="curve"/>
			<point x="340" y="290"/>
			<point x="404" y="348"/>
			<point x="493" y="403" type="curve"/>
			<point x="492" y="420" type="line"/>
			<point x="397" y="440" type="line"/>
			<point x="245" y="268" type="line"/>
			<point x="191" y="333"/>
			<point x="142" y="398"/>
			<point x="116" y="438" type="curve"/>
			<point x="7" y="425" type="line"/>
			<point x="10" y="406" type="line"/>
			<point x="48" y="375"/>
			<point x="122" y="292"/>
			<point x="192" y="208" type="curve"/>
			<point x="128" y="137"/>
			<point x="79" y="90"/>
			<point x="0" y="28" type="curve"/>
			<point x="0" y="12" type="line"/>
			<point x="106" y="-8" type="line"/>
			<point x="152" y="55"/>
			<point x="191" y="111"/>
			<point x="231" y="162" type="curve"/>
			<point x="308" y="71"/>
			<point x="373" y="-10"/>
		</contour>
	</outline>
</glyph>
<glyph name="omega" format="2">
	<advance width="818"/>
	<unicode hex="03C9"/>
	<outline>
		<contour>
			<point x="217" y="-10" type="curve"/>
			<point x="217" y="-10" type="line"/>
			<point x="295" y="-10"/>
			<point x="353" y="38"/>
			<point x="389" y="96" type="curve"/>
			<point x="412" y="38"/>
			<point x="467" y="-10"/>
			<point x="560" y="-10" type="curve"/>
			<point x="680" y="-10"/>
			<point x="768" y="86"/>
			<point x="768" y="225" type="curve"/>
			<point x="768" y="348"/>
			<point x="671" y="416"/>
			<point x="558" y="426" type="curve"/>
			<point x="518" y="336" type="line"/>
			<point x="625" y="324"/>
			<point x="688" y="274"/>
			<point x="688" y="201" type="curve"/>
			<point x="688" y="128"/>
			<point x="646" y="84"/>
			<point x="578" y="84" type="curve"/>
			<point x="505" y="84"/>
			<point x="453" y="123"/>
			<point x="453" y="210" type="curve"/>
			<point x="373" y="219" type="line"/>
			<point x="350" y="131"/>
			<point x="304" y="82"/>
			<point x="223" y="82" type="curve"/>
			<point x="159" y="82"/>
			<point x="112" y="127"/>
			<point x="112" y="193" type="curve"/>
			<point x="112" y="258"/>
			<point x="166" y="322"/>
			<point x="257" y="325" type="curve"/>
			<point x="320" y="413" type="line"/>
			<point x="319" y="430" type="line"/>
			<point x="148" y="457"/>
			<point x="40" y="305"/>
			<point x="40" y="181" type="curve"/>
			<point x="40" y="54"/>
			<point x="117" y="-10"/>
		</contour>
	</outline>
</glyph>
<glyph name="deicoptic" format="2">
	<advance width="753"/>
	<unicode hex="03EF"/>
	<outline>
		<contour>
			<point x="285" y="-240" type="curve"/>
			<point x="285" y="-240" type="line"/>
			<point x="407" y="-222" type="line"/>
			<point x="403" y="-58"/>
			<point x="403" y="81"/>
			<point x="407" y="214" type="curve"/>
			<point x="476" y="213"/>
			<point x="549" y="212"/>
			<point x="621" y="212" type="curve"/>
			<point x="681" y="252"/>
			<point x="727" y="315"/>
			<point x="743" y="423" type="curve"/>
			<point x="720" y="433" type="line"/>
			<point x="676" y="339"/>
			<point x="608" y="312"/>
			<point x="516" y="312" type="curve"/>
			<point x="495" y="312"/>
			<point x="456" y="313"/>
			<point x="410" y="313" type="curve"/>
			<point x="413" y="420"/>
			<point x="418" y="524"/>
			<point x="423" y="637" type="curve"/>
			<point x="321" y="662" type="line"/>
			<point x="309" y="656" type="line"/>
			<point x="306" y="315" type="line"/>
			<point x="237" y="316"/>
			<point x="169" y="317"/>
			<point x="129" y="317" type="curve"/>
			<point x="58" y="267"/>
			<point x="32" y="207"/>
			<point x="10" y="151" type="curve"/>
			<point x="45" y="145" type="line"/>
			<point x="92" y="208"/>
			<point x="184" y="216"/>
			<point x="231" y="216" type="curve"/>
			<point x="303" y="216" type="line"/>
			<point x="300" y="78"/>
			<point x="294" y="-53"/>
		</contour>
	</outline>
</glyph>
<glyph name="san" format="2">
	<advance width="675"/>
	<unicode hex="03FB"/>
	<outline>
		<contour>
			<point x="63" y="-10" type="line"/>
			<point x="150" y="18"/>
			<point x="206" y="89"/>
			<point x="203" y="161" type="curve"/>
			<point x="227" y="119"/>
			<point x="274" y="104"/>
			<point x="315" y="104" type="curve" smooth="yes"/>
			<point x="360" y="104"/>
			<point x="401" y="129"/>
			<point x="422" y="164" type="curve"/>
			<point x="424" y="70"/>
			<point x="480" y="10"/>
			<point x="572" y="-10" type="curve"/>
			<point x="655" y="102" type="line"/>
			<point x="635" y="116" type="line"/>
			<point x="616" y="101"/>
			<point x="602" y="95"/>
			<point x="578" y="95" type="curve" smooth="yes"/>
			<point x="523" y="95"/>
			<point x="484" y="136"/>
			<point x="484" y="236" type="curve" smooth="yes"/>
			<point x="484" y="299"/>
			<point x="507" y="383"/>
			<point x="537" y="410" type="curve"/>
			<point x="532" y="431" type="line"/>
			<point x="499" y="431"/>
			<point x="438" y="427"/>
			<point x="408" y="418" type="curve"/>
			<point x="417" y="381"/>
			<point x="421" y="335"/>
			<point x="421" y="299" type="curve" smooth="yes"/>
			<point x="421" y="223"/>
			<point x="383" y="175"/>
			<point x="316" y="175" type="curve" smooth="yes"/>
			<point x="253" y="175"/>
			<point x="218" y="201"/>
			<point x="205" y="267" type="curve" smooth="yes"/>
			<point x="195" y="319"/>
			<point x="197" y="351"/>
			<point x="201" y="414" type="curve"/>
			<point x="170" y="418"/>
			<point x="105" y="428"/>
			<point x="74" y="430" type="curve"/>
			<point x="64" y="407" type="line"/>
			<point x="119" y="350"/>
			<point x="144" y="305"/>
			<point x="144" y="225" type="curve" smooth="yes"/>
			<point x="144" y="130"/>
			<point x="80" y="89"/>
			<point x="20" y="72" type="curve"/>
		</contour>
	</outline>
</glyph>
<glyph name="leo" format="2">
	<advance width="684"/>
	<unicode hex="264C"/>
	<outline>
		<contour>
			<point x="197" y="-10" type="curve" smooth="yes"/>
			<point x="306" y="-10"/>
			<point x="396" y="67"/>
			<point x="396" y="179" type="curve" smooth="yes"/>
			<point x="396" y="291"/>
			<point x="298" y="356"/>
			<point x="226" y="430" type="curve" smooth="yes"/>
			<point x="154" y="504"/>
			<point x="110" y="560"/>
			<point x="110" y="590" type="curve" smooth="yes"/>
			<point x="110" y="610"/>
			<point x="123" y="630"/>
			<point x="153" y="630" type="curve" smooth="yes"/>
			<point x="286" y="630"/>
			<point x="485" y="199"/>
			<point x="602" y="-10" type="curve"/>
			<point x="622" y="-10" type="line"/>
			<point x="664" y="124" type="line"/>
			<point x="612" y="202"/>
			<point x="456" y="471"/>
			<point x="393" y="563" type="curve" smooth="yes"/>
			<point x="323" y="665"/>
			<point x="261" y="710"/>
			<point x="165" y="710" type="curve" smooth="yes"/>
			<point x="85" y="710"/>
			<point x="20" y="664"/>
			<point x="20" y="584" type="curve" smooth="yes"/>
			<point x="20" y="494"/>
			<point x="106" y="421"/>
			<point x="181" y="348" type="curve"/>
			<point x="121" y="313"/>
			<point x="32" y="250"/>
			<point x="32" y="146" type="curve" smooth="yes"/>
			<point x="32" y="66"/>
			<point x="88" y="-10"/>
		</contour>
		<contour>
			<point x="211" y="85" type="curve" smooth="yes"/>
			<point x="167" y="85"/>
			<point x="137" y="125"/>
			<point x="137" y="175" type="curve" smooth="yes"/>
			<point x="137" y="223"/>
			<point x="174" y="262"/>
			<point x="229" y="298" type="curve"/>
			<point x="265" y="258"/>
			<point x="291" y="217"/>
			<point x="291" y="172" type="curve" smooth="yes"/>
			<point x="291" y="115"/>
			<point x="255" y="85"/>
		</contour>
	</outline>
</glyph>
<glyph name="p_bardes" format="2">
	<advance width="495"/>
	<unicode hex="A751"/>
	<outline>
		<contour>
			<point x="70" y="-340" type="curve"/>
			<point x="192" y="-314" type="line"/>
			<point x="191" y="-305"/>
			<point x="187" y="-257"/>
			<point x="184" y="-195" type="curve"/>
			<point x="259" y="-204"/>
			<point x="331" y="-222"/>
			<point x="395" y="-249" type="curve"/>
			<point x="430" y="-235" type="line"/>
			<point x="432" y="-228" type="line"/>
			<point x="368" y="-197"/>
			<point x="276" y="-161"/>
			<point x="182" y="-139" type="curve"/>
			<point x="180" y="-92"/>
			<point x="178" y="-42"/>
			<point x="179" y="2" type="curve"/>
			<point x="218" y="-5"/>
			<point x="263" y="-10"/>
			<point x="295" y="-10" type="curve"/>
			<point x="363" y="22"/>
			<point x="475" y="107"/>
			<point x="475" y="237" type="curve" smooth="yes"/>
			<point x="475" y="349"/>
			<point x="406" y="430"/>
			<point x="309" y="441" type="curve"/>
			<point x="265" y="419"/>
			<point x="220" y="393"/>
			<point x="187" y="370" type="curve"/>
			<point x="182" y="393"/>
			<point x="169" y="417"/>
			<point x="142" y="440" type="curve"/>
			<point x="44" y="376" type="line"/>
			<point x="44" y="347" type="line"/>
			<point x="69" y="340"/>
			<point x="84" y="325"/>
			<point x="84" y="279" type="curve" smooth="yes"/>
			<point x="84" y="150"/>
			<point x="82" y="14"/>
			<point x="78" y="-120" type="curve"/>
			<point x="34" y="-117" type="line"/>
			<point x="10" y="-169" type="line"/>
			<point x="26" y="-191" type="line"/>
			<point x="42" y="-190"/>
			<point x="59" y="-189"/>
			<point x="75" y="-189" type="curve"/>
			<point x="74" y="-240"/>
			<point x="72" y="-290"/>
		</contour>
		<contour>
			<point x="343" y="67" type="curve"/>
			<point x="290" y="67"/>
			<point x="212" y="84"/>
			<point x="181" y="100" type="curve"/>
			<point x="187" y="332" type="line"/>
			<point x="203" y="340"/>
			<point x="222" y="348"/>
			<point x="251" y="348" type="curve" smooth="yes"/>
			<point x="385" y="348"/>
			<point x="438" y="153"/>
		</contour>
	</outline>
</glyph>
<glyph name="p_flour" format="2">
	<advance width="635"/>
	<unicode hex="A752"/>
	<outline>
		<contour>
			<point x="5" y="-340" type="curve"/>
			<point x="5" y="-340" type="line"/>
			<point x="35" y="-337" type="line"/>
			<point x="71" y="-302"/>
			<point x="150" y="-254"/>
			<point x="150" y="-177" type="curve"/>
			<point x="150" y="-126"/>
			<point x="70" y="-97"/>
			<point x="70" y="-64" type="curve"/>
			<point x="70" y="-31"/>
			<point x="121" y="-11"/>
			<point x="221" y="-9" type="curve"/>
			<point x="218" y="-120"/>
			<point x="214" y="-232"/>
			<point x="210" y="-340" type="curve"/>
			<point x="332" y="-314" type="line"/>
			<point x="330" y="-296"/>
			<point x="318" y="-123"/>
			<point x="319" y="2" type="curve"/>
			<point x="358" y="-5"/>
			<point x="403" y="-10"/>
			<point x="435" y="-10" type="curve"/>
			<point x="503" y="22"/>
			<point x="615" y="107"/>
			<point x="615" y="237" type="curve"/>
			<point x="615" y="349"/>
			<point x="546" y="430"/>
			<point x="449" y="441" type="curve"/>
			<point x="405" y="419"/>
			<point x="360" y="393"/>
			<point x="327" y="370" type="curve"/>
			<point x="322" y="393"/>
			<point x="309" y="417"/>
			<point x="282" y="440" type="curve"/>
			<point x="184" y="376" type="line"/>
			<point x="184" y="347" type="line"/>
			<point x="209" y="340"/>
			<point x="224" y="325"/>
			<point x="224" y="279" type="curve"/>
			<point x="224" y="195"/>
			<point x="223" y="108"/>
			<point x="221" y="21" type="curve"/>
			<point x="197" y="21" type="line" smooth="yes"/>
			<point x="40" y="21"/>
			<point x="-30" y="-16"/>
			<point x="-30" y="-82" type="curve"/>
			<point x="-30" y="-147"/>
			<point x="80" y="-179"/>
			<point x="80" y="-232" type="curve"/>
			<point x="80" y="-250"/>
			<point x="74" y="-262"/>
			<point x="53" y="-262" type="curve"/>
			<point x="36" y="-262"/>
			<point x="10" y="-245"/>
			<point x="-5" y="-227" type="curve"/>
			<point x="-20" y="-233" type="line"/>
			<point x="-15" y="-280"/>
			<point x="-8" y="-340"/>
		</contour>
		<contour>
			<point x="483" y="67" type="curve"/>
			<point x="483" y="67" type="line"/>
			<point x="430" y="67"/>
			<point x="352" y="84"/>
			<point x="321" y="100" type="curve"/>
			<point x="327" y="332" type="line"/>
			<point x="343" y="340"/>
			<point x="362" y="348"/>
			<point x="391" y="348" type="curve"/>
			<point x="525" y="348"/>
			<point x="578" y="153"/>
		</contour>
	</outline>
</glyph>
<glyph name="q_bardes" format="2">
	<advance width="458"/>
	<unicode hex="A757"/>
	<outline>
		<contour>
			<point x="287" y="-340" type="curve"/>
			<point x="410" y="-308" type="line"/>
			<point x="408" y="-275"/>
			<point x="406" y="-232"/>
			<point x="404" y="-183" type="curve"/>
			<point x="423" y="-183" type="line"/>
			<point x="433" y="-175" type="line"/>
			<point x="429" y="-109" type="line"/>
			<point x="402" y="-112" type="line"/>
			<point x="395" y="111"/>
			<point x="393" y="402"/>
			<point x="414" y="452" type="curve"/>
			<point x="395" y="460" type="line"/>
			<point x="361" y="423" type="line"/>
			<point x="334" y="432"/>
			<point x="293" y="440"/>
			<point x="249" y="440" type="curve" smooth="yes"/>
			<point x="139" y="440"/>
			<point x="20" y="300"/>
			<point x="20" y="191" type="curve" smooth="yes"/>
			<point x="20" y="74"/>
			<point x="78" y="10"/>
			<point x="185" y="-10" type="curve"/>
			<point x="304" y="39" type="line"/>
			<point x="303" y="-14"/>
			<point x="300" y="-72"/>
			<point x="298" y="-130" type="curve"/>
			<point x="220" y="-149"/>
			<point x="153" y="-179"/>
			<point x="90" y="-212" type="curve"/>
			<point x="64" y="-269" type="line"/>
			<point x="75" y="-274" type="line"/>
			<point x="127" y="-240"/>
			<point x="209" y="-208"/>
			<point x="295" y="-193" type="curve"/>
			<point x="293" y="-243"/>
			<point x="290" y="-293"/>
		</contour>
		<contour>
			<point x="305" y="78" type="curve"/>
			<point x="187" y="68"/>
			<point x="107" y="128"/>
			<point x="107" y="261" type="curve" smooth="yes"/>
			<point x="107" y="317"/>
			<point x="139" y="361"/>
			<point x="190" y="361" type="curve" smooth="yes"/>
			<point x="241" y="361"/>
			<point x="307" y="334"/>
			<point x="307" y="193" type="curve" smooth="yes"/>
			<point x="307" y="161"/>
			<point x="306" y="122"/>
		</contour>
	</outline>
</glyph>
<glyph name="l_strok" format="2">
	<advance width="398"/>
	<unicode hex="A769"/>
	<outline>
		<contour>
			<point x="141" y="-10" type="curve"/>
			<point x="221" y="58" type="line"/>
			<point x="222" y="83" type="line"/>
			<point x="166" y="92"/>
			<point x="170" y="106"/>
			<point x="166" y="172" type="curve" smooth="yes"/>
			<point x="161" y="244"/>
			<point x="161" y="329"/>
			<point x="162" y="413" type="curve"/>
			<point x="241" y="492"/>
			<point x="300" y="586"/>
			<point x="344" y="645" type="curve" smooth="yes"/>
			<point x="355" y="660"/>
			<point x="365" y="669"/>
			<point x="393" y="679" type="curve"/>
			<point x="393" y="700" type="line"/>
			<point x="243" y="700" type="line"/>
			<point x="243" y="678" type="line"/>
			<point x="262" y="670"/>
			<point x="273" y="659"/>
			<point x="273" y="634" type="curve" smooth="yes"/>
			<point x="273" y="600"/>
			<point x="233" y="534"/>
			<point x="163" y="450" type="curve"/>
			<point x="164" y="518"/>
			<point x="167" y="585"/>
			<point x="169" y="643" type="curve" smooth="yes"/>
			<point x="170" y="665"/>
			<point x="183" y="667"/>
			<point x="205" y="677" type="curve"/>
			<point x="202" y="702" type="line"/>
			<point x="145" y="696"/>
			<point x="87" y="691"/>
			<point x="30" y="689" type="curve"/>
			<point x="30" y="666" type="line"/>
			<point x="61" y="648"/>
			<point x="61" y="644"/>
			<point x="62" y="599" type="curve" smooth="yes"/>
			<point x="65" y="444"/>
			<point x="65" y="149"/>
			<point x="64" y="89" type="curve" smooth="yes"/>
			<point x="63" y="42"/>
			<point x="91" y="15"/>
		</contour>
	</outline>
</glyph>
<glyph name="us" format="2">
	<advance width="334"/>
	<unicode hex="A770"/>
	<outline>
		<contour>
			<point x="49" y="12" type="line"/>
			<point x="89" y="-10" type="line"/>
			<point x="177" y="151" type="line" smooth="yes"/>
			<point x="246" y="277"/>
			<point x="304" y="414"/>
			<point x="304" y="528" type="curve"/>
			<point x="304" y="628"/>
			<point x="273" y="710"/>
			<point x="177" y="710" type="curve"/>
			<point x="81" y="710"/>
			<point x="20" y="599"/>
			<point x="20" y="474" type="curve"/>
			<point x="20" y="393"/>
			<point x="51" y="328"/>
			<point x="111" y="312" type="curve"/>
			<point x="227" y="383" type="line"/>
			<point x="212" y="309"/>
			<point x="180" y="242"/>
			<point x="137" y="168" type="curve"/>
		</contour>
		<contour>
			<point x="232" y="416" type="curve"/>
			<point x="232" y="416" type="line"/>
			<point x="155" y="379"/>
			<point x="79" y="447"/>
			<point x="79" y="537" type="curve"/>
			<point x="79" y="579"/>
			<point x="101" y="618"/>
			<point x="111" y="622" type="curve"/>
			<point x="189" y="622"/>
			<point x="236" y="563"/>
			<point x="236" y="477" type="curve"/>
			<point x="236" y="456"/>
			<point x="235" y="436"/>
		</contour>
	</outline>
</glyph>
<glyph name="rum" format="2">
	<advance width="583"/>
	<unicode hex="A775"/>
	<outline>
		<contour>
			<point x="45" y="-313" type="line"/>
			<point x="210" y="-245"/>
			<point x="289" y="-154"/>
			<point x="341" y="0" type="curve"/>
			<point x="404" y="-1"/>
			<point x="463" y="-4"/>
			<point x="517" y="-6" type="curve"/>
			<point x="546" y="85" type="line"/>
			<point x="544" y="89" type="line"/>
			<point x="367" y="87" type="line"/>
			<point x="410" y="250"/>
			<point x="426" y="312"/>
			<point x="488" y="312" type="curve" smooth="yes"/>
			<point x="512" y="312"/>
			<point x="521" y="304"/>
			<point x="543" y="293" type="curve"/>
			<point x="552" y="296" type="line"/>
			<point x="563" y="443" type="line"/>
			<point x="419" y="450"/>
			<point x="374" y="280"/>
			<point x="324" y="87" type="curve"/>
			<point x="144" y="85" type="line"/>
			<point x="193" y="148"/>
			<point x="252" y="214"/>
			<point x="252" y="293" type="curve" smooth="yes"/>
			<point x="252" y="417"/>
			<point x="135" y="440"/>
			<point x="115" y="440" type="curve"/>
			<point x="10" y="351" type="line"/>
			<point x="10" y="340" type="line"/>
			<point x="110" y="330"/>
			<point x="160" y="290"/>
			<point x="160" y="224" type="curve" smooth="yes"/>
			<point x="160" y="158"/>
			<point x="86" y="58"/>
			<point x="18" y="12" type="curve"/>
			<point x="25" y="-10" type="line"/>
			<point x="118" y="-1"/>
			<point x="211" y="1"/>
			<point x="300" y="0" type="curve"/>
			<point x="249" y="-148"/>
			<point x="163" y="-202"/>
			<point x="43" y="-250" type="curve"/>
		</contour>
	</outline>
</glyph>
<glyph name="m_macr" format="2">
	<advance width="648"/>
	<unicode hex="E5B8"/>
	<anchor x="356" y="672" name="top"/>
	<anchor x="356" y="430" name="_top"/>
	<outline>
		<contour>
			<point x="414" y="502" type="curve"/>
			<point x="414" y="502" type="line"/>
			<point x="435" y="515" type="line"/>
			<point x="412" y="542"/>
			<point x="377" y="593"/>
			<point x="362" y="607" type="curve"/>
			<point x="217" y="604"/>
			<point x="175" y="594"/>
			<point x="130" y="611" type="curve"/>
			<point x="110" y="596" type="line"/>
			<point x="132" y="572"/>
			<point x="149" y="554"/>
			<point x="175" y="514" type="curve"/>
			<point x="342" y="521"/>
			<point x="369" y="524"/>
		</contour>
		<contour>
			<point x="48" y="-5" type="curve"/>
			<point x="54" y="-10" type="line"/>
			<point x="104" y="4"/>
			<point x="153" y="15"/>
			<point x="203" y="21" type="curve"/>
			<point x="203" y="50" type="line"/>
			<point x="166" y="58"/>
			<point x="156" y="73"/>
			<point x="156" y="110" type="curve"/>
			<point x="156" y="323" type="line"/>
			<point x="168" y="333"/>
			<point x="182" y="340"/>
			<point x="202" y="340" type="curve"/>
			<point x="242" y="340"/>
			<point x="278" y="321"/>
			<point x="278" y="252" type="curve"/>
			<point x="278" y="133"/>
			<point x="275" y="56"/>
			<point x="266" y="-5" type="curve"/>
			<point x="272" y="-10" type="line"/>
			<point x="322" y="4"/>
			<point x="371" y="15"/>
			<point x="421" y="21" type="curve"/>
			<point x="421" y="47" type="line"/>
			<point x="384" y="55"/>
			<point x="378" y="64"/>
			<point x="378" y="101" type="curve"/>
			<point x="378" y="327" type="line"/>
			<point x="388" y="335"/>
			<point x="401" y="340"/>
			<point x="418" y="340" type="curve"/>
			<point x="464" y="340"/>
			<point x="495" y="303"/>
			<point x="495" y="214" type="curve"/>
			<point x="495" y="155"/>
			<point x="495" y="96"/>
			<point x="483" y="-5" type="curve"/>
			<point x="489" y="-10" type="line"/>
			<point x="539" y="4"/>
			<point x="588" y="15"/>
			<point x="638" y="21" type="curve"/>
			<point x="638" y="45" type="line"/>
			<point x="601" y="53"/>
			<point x="595" y="62"/>
			<point x="595" y="99" type="curve"/>
			<point x="595" y="359" type="line" smooth="yes"/>
			<point x="595" y="403"/>
			<point x="538" y="440"/>
			<point x="513" y="440" type="curve"/>
			<point x="492" y="434"/>
			<point x="428" y="400"/>
			<point x="376" y="365" type="curve"/>
			<point x="366" y="404"/>
			<point x="318" y="440"/>
			<point x="296" y="440" type="curve"/>
			<point x="276" y="430"/>
			<point x="210" y="397"/>
			<point x="157" y="363" type="curve"/>
			<point x="159" y="396"/>
			<point x="162" y="419"/>
			<point x="162" y="432" type="curve"/>
			<point x="149" y="442" type="line"/>
			<point x="10" y="395" type="line"/>
			<point x="10" y="368" type="line"/>
			<point x="40" y="364"/>
			<point x="56" y="348"/>
			<point x="56" y="308" type="curve"/>
			<point x="56" y="161" type="line" smooth="yes"/>
			<point x="56" y="74"/>
			<point x="50" y="15"/>
		</contour>
	</outline>
</glyph>
<glyph name="n_macr" format="2">
	<advance width="438"/>
	<unicode hex="E5DC"/>
	<outline>
		<contour>
			<point x="106" y="515" type="curve"/>
			<point x="137" y="506" type="line"/>
			<point x="179" y="555"/>
			<point x="221" y="544"/>
			<point x="293" y="551" type="curve"/>
			<point x="309" y="570"/>
			<point x="327" y="592"/>
			<point x="358" y="640" type="curve"/>
			<point x="329" y="648" type="line"/>
			<point x="294" y="623"/>
			<point x="257" y="624"/>
			<point x="178" y="622" type="curve"/>
			<point x="142" y="581"/>
			<point x="128" y="559"/>
		</contour>
		<contour>
			<point x="38" y="-7" type="curve"/>
			<point x="43" y="-13" type="line"/>
			<point x="91" y="-6"/>
			<point x="121" y="1"/>
			<point x="162" y="4" type="curve"/>
			<point x="152" y="97"/>
			<point x="151" y="184"/>
			<point x="151" y="329" type="curve"/>
			<point x="215" y="356"/>
			<point x="275" y="324"/>
			<point x="275" y="256" type="curve"/>
			<point x="275" y="151"/>
			<point x="276" y="80"/>
			<point x="269" y="-5" type="curve"/>
			<point x="388" y="4" type="line"/>
			<point x="377" y="178"/>
			<point x="375" y="274"/>
			<point x="375" y="351" type="curve"/>
			<point x="375" y="395"/>
			<point x="312" y="431"/>
			<point x="287" y="440" type="curve"/>
			<point x="264" y="434"/>
			<point x="200" y="405"/>
			<point x="147" y="369" type="curve"/>
			<point x="137" y="436" type="line"/>
			<point x="116" y="439" type="line"/>
			<point x="15" y="380" type="line"/>
			<point x="15" y="352" type="line"/>
			<point x="49" y="347"/>
			<point x="51" y="318"/>
			<point x="51" y="272" type="curve"/>
			<point x="51" y="140"/>
			<point x="44" y="82"/>
		</contour>
	</outline>
</glyph>
<glyph name="q_etfin" format="2">
	<advance width="609"/>
	<unicode hex="E8BF"/>
	<outline>
		<contour>
			<point x="234" y="-309" type="curve"/>
			<point x="235" y="-339" type="line"/>
			<point x="300" y="-330"/>
			<point x="363" y="-323"/>
			<point x="419" y="-320" type="curve"/>
			<point x="417" y="-289" type="line"/>
			<point x="385" y="-283"/>
			<point x="383" y="-286"/>
			<point x="380" y="-211" type="curve"/>
			<point x="380" y="-206"/>
			<point x="380" y="-200"/>
			<point x="379" y="-195" type="curve"/>
			<point x="494" y="-87"/>
			<point x="579" y="45"/>
			<point x="579" y="121" type="curve"/>
			<point x="579" y="187"/>
			<point x="532" y="199"/>
			<point x="476" y="202" type="curve"/>
			<point x="520" y="251"/>
			<point x="566" y="274"/>
			<point x="566" y="338" type="curve"/>
			<point x="566" y="380"/>
			<point x="533" y="410"/>
			<point x="502" y="431" type="curve"/>
			<point x="454" y="396"/>
			<point x="420" y="358"/>
			<point x="379" y="322" type="curve"/>
			<point x="383" y="382"/>
			<point x="391" y="394"/>
			<point x="410" y="452" type="curve"/>
			<point x="392" y="462" type="line"/>
			<point x="363" y="445"/>
			<point x="345" y="432"/>
			<point x="316" y="423" type="curve"/>
			<point x="289" y="432"/>
			<point x="270" y="440"/>
			<point x="226" y="440" type="curve"/>
			<point x="116" y="440"/>
			<point x="20" y="322"/>
			<point x="20" y="191" type="curve"/>
			<point x="20" y="84"/>
			<point x="55" y="10"/>
			<point x="162" y="-10" type="curve"/>
			<point x="281" y="48" type="line"/>
			<point x="279" y="-43"/>
			<point x="274" y="-151"/>
			<point x="269" y="-253" type="curve"/>
			<point x="267" y="-292"/>
			<point x="265" y="-292"/>
		</contour>
		<contour>
			<point x="282" y="88" type="curve"/>
			<point x="282" y="88" type="line"/>
			<point x="164" y="77"/>
			<point x="88" y="121"/>
			<point x="88" y="254" type="curve"/>
			<point x="88" y="319"/>
			<point x="117" y="361"/>
			<point x="160" y="361" type="curve"/>
			<point x="220" y="361"/>
			<point x="284" y="334"/>
			<point x="284" y="193" type="curve"/>
			<point x="284" y="163"/>
			<point x="283" y="128"/>
		</contour>
		<contour>
			<point x="374" y="148" type="curve"/>
			<point x="374" y="148" type="line"/>
			<point x="377" y="291" type="line"/>
			<point x="418" y="307"/>
			<point x="466" y="300"/>
			<point x="466" y="265" type="curve"/>
			<point x="466" y="215"/>
			<point x="432" y="187"/>
		</contour>
		<contour>
			<point x="378" y="-147" type="curve"/>
			<point x="378" y="-147" type="line"/>
			<point x="376" y="-69"/>
			<point x="374" y="28"/>
			<point x="374" y="120" type="curve"/>
			<point x="449" y="127"/>
			<point x="481" y="99"/>
			<point x="481" y="52" type="curve"/>
			<point x="481" y="-19"/>
			<point x="446" y="-81"/>
		</contour>
	</outline>
</glyph>
<glyph name="longs_longs" format="2">
	<advance width="460"/>
	<unicode hex="EBA6"/>
	<outline>
		<contour>
			<point x="250" y="-25" type="curve"/>
			<point x="250" y="-25" type="line"/>
			<point x="365" y="22" type="line"/>
			<point x="359" y="216"/>
			<point x="351" y="390"/>
			<point x="351" y="520" type="curve"/>
			<point x="351" y="559"/>
			<point x="354" y="599"/>
			<point x="361" y="620" type="curve"/>
			<point x="388" y="638"/>
			<point x="418" y="618"/>
			<point x="442" y="586" type="curve"/>
			<point x="454" y="586" type="line"/>
			<point x="455" y="700" type="line"/>
			<point x="411" y="704"/>
			<point x="378" y="689"/>
			<point x="353" y="667" type="curve"/>
			<point x="315" y="687"/>
			<point x="264" y="711"/>
			<point x="233" y="710" type="curve"/>
			<point x="172" y="708"/>
			<point x="120" y="600"/>
			<point x="104" y="561" type="curve"/>
			<point x="83" y="509"/>
			<point x="85" y="485"/>
			<point x="45" y="456" type="curve"/>
			<point x="45" y="441" type="line"/>
			<point x="79" y="399"/>
			<point x="70" y="390"/>
			<point x="70" y="236" type="curve"/>
			<point x="70" y="127"/>
			<point x="64" y="49"/>
			<point x="63" y="-17" type="curve"/>
			<point x="178" y="20" type="line"/>
			<point x="172" y="214"/>
			<point x="164" y="390"/>
			<point x="164" y="520" type="curve"/>
			<point x="164" y="559"/>
			<point x="167" y="599"/>
			<point x="174" y="620" type="curve"/>
			<point x="215" y="636"/>
			<point x="265" y="614"/>
			<point x="300" y="586" type="curve"/>
			<point x="296" y="576"/>
			<point x="293" y="568"/>
			<point x="291" y="561" type="curve"/>
			<point x="269" y="487"/>
			<point x="272" y="449"/>
			<point x="230" y="437" type="curve"/>
			<point x="228" y="423" type="line"/>
			<point x="252" y="372"/>
			<point x="257" y="370"/>
			<point x="257" y="236" type="curve"/>
			<point x="257" y="127"/>
			<point x="251" y="41"/>
		</contour>
	</outline>
</glyph>
<glyph name="c_t" format="2">
	<advance width="622"/>
	<unicode hex="EEC5"/>
	<outline>
		<contour>
			<point x="436" y="-10" type="curve"/>
			<point x="436" y="-10" type="line"/>
			<point x="493" y="7"/>
			<point x="576" y="65"/>
			<point x="617" y="104" type="curve"/>
			<point x="606" y="132" type="line"/>
			<point x="577" y="108"/>
			<point x="534" y="85"/>
			<point x="502" y="85" type="curve"/>
			<point x="469" y="85"/>
			<point x="455" y="100"/>
			<point x="454" y="156" type="curve"/>
			<point x="453" y="214"/>
			<point x="455" y="285"/>
			<point x="458" y="354" type="curve"/>
			<point x="507" y="359"/>
			<point x="556" y="357"/>
			<point x="605" y="350" type="curve"/>
			<point x="609" y="432" type="line"/>
			<point x="561" y="430"/>
			<point x="511" y="429"/>
			<point x="462" y="429" type="curve"/>
			<point x="467" y="509"/>
			<point x="471" y="576"/>
			<point x="471" y="602" type="curve"/>
			<point x="451" y="644"/>
			<point x="411" y="664"/>
			<point x="365" y="684" type="curve"/>
			<point x="292" y="674"/>
			<point x="173" y="620"/>
			<point x="74" y="585" type="curve"/>
			<point x="80" y="559" type="line"/>
			<point x="172" y="592"/>
			<point x="245" y="604"/>
			<point x="286" y="604" type="curve"/>
			<point x="331" y="604"/>
			<point x="359" y="588"/>
			<point x="362" y="548" type="curve"/>
			<point x="365" y="512"/>
			<point x="366" y="453"/>
			<point x="358" y="430" type="curve"/>
			<point x="353" y="416"/>
			<point x="343" y="401"/>
			<point x="324" y="381" type="curve"/>
			<point x="324" y="370" type="line"/>
			<point x="340" y="366"/>
			<point x="358" y="357"/>
			<point x="360" y="320" type="curve"/>
			<point x="363" y="256"/>
			<point x="347" y="161"/>
			<point x="347" y="90" type="curve"/>
			<point x="347" y="55"/>
			<point x="365" y="16"/>
		</contour>
		<contour>
			<point x="136" y="-10" type="curve"/>
			<point x="136" y="-10" type="line"/>
			<point x="189" y="8"/>
			<point x="232" y="42"/>
			<point x="279" y="79" type="curve"/>
			<point x="271" y="109" type="line"/>
			<point x="240" y="95"/>
			<point x="215" y="91"/>
			<point x="195" y="91" type="curve"/>
			<point x="138" y="91"/>
			<point x="106" y="153"/>
			<point x="106" y="251" type="curve"/>
			<point x="106" y="290"/>
			<point x="112" y="331"/>
			<point x="120" y="350" type="curve"/>
			<point x="148" y="348"/>
			<point x="183" y="335"/>
			<point x="207" y="315" type="curve"/>
			<point x="281" y="382" type="line"/>
			<point x="280" y="394" type="line"/>
			<point x="260" y="412"/>
			<point x="209" y="435"/>
			<point x="175" y="440" type="curve"/>
			<point x="143" y="426"/>
			<point x="42" y="357"/>
			<point x="35" y="340" type="curve"/>
			<point x="27" y="278"/>
			<point x="20" y="140"/>
			<point x="30" y="60" type="curve"/>
			<point x="40" y="32"/>
			<point x="84" y="5"/>
		</contour>
	</outline>
</glyph>
<glyph name="f_i" format="2">
	<advance width="398"/>
	<unicode hex="FB01"/>
	<outline>
		<contour>
			<point x="48" y="-20" type="line"/>
			<point x="75" y="-7"/>
			<point x="113" y="4"/>
			<point x="160" y="11" type="curve"/>
			<point x="162" y="20" type="line"/>
			<point x="148" y="82"/>
			<point x="144" y="158"/>
			<point x="142" y="340" type="curve"/>
			<point x="178" y="341"/>
			<point x="212" y="343"/>
			<point x="247" y="333" type="curve"/>
			<point x="260" y="235"/>
			<point x="256" y="122"/>
			<point x="244" y="1" type="curve"/>
			<point x="267" y="-9" type="line"/>
			<point x="305" y="8"/>
			<point x="354" y="23"/>
			<point x="388" y="39" type="curve"/>
			<point x="388" y="65" type="line"/>
			<point x="348" y="65"/>
			<point x="349" y="60"/>
			<point x="345" y="146" type="curve" smooth="yes"/>
			<point x="342" y="212"/>
			<point x="336" y="355"/>
			<point x="352" y="443" type="curve"/>
			<point x="342" y="451" type="line"/>
			<point x="288" y="420"/>
			<point x="231" y="412"/>
			<point x="139" y="414" type="curve"/>
			<point x="135" y="550" type="line" smooth="yes"/>
			<point x="133" y="605"/>
			<point x="140" y="615"/>
			<point x="143" y="615" type="curve"/>
			<point x="170" y="622"/>
			<point x="213" y="600"/>
			<point x="247" y="578" type="curve"/>
			<point x="330" y="655" type="line"/>
			<point x="331" y="659" type="line"/>
			<point x="292" y="669"/>
			<point x="236" y="689"/>
			<point x="187" y="710" type="curve"/>
			<point x="148" y="669"/>
			<point x="109" y="633"/>
			<point x="49" y="591" type="curve"/>
			<point x="47" y="585"/>
			<point x="52" y="496"/>
			<point x="52" y="437" type="curve" smooth="yes"/>
			<point x="52" y="414"/>
			<point x="42" y="387"/>
			<point x="30" y="362" type="curve"/>
			<point x="30" y="357" type="line"/>
			<point x="49" y="345"/>
			<point x="52" y="323"/>
			<point x="52" y="303" type="curve" smooth="yes"/>
			<point x="52" y="186"/>
			<point x="51" y="85"/>
			<point x="38" y="-14" type="curve"/>
		</contour>
	</outline>
</glyph>
<glyph name="longs_t" format="2">
	<advance width="526"/>
	<unicode hex="FB05"/>
	<outline>
		<contour>
			<point x="363" y="-10" type="curve"/>
			<point x="363" y="-10" type="line"/>
			<point x="400" y="-10"/>
			<point x="479" y="54"/>
			<point x="512" y="83" type="curve"/>
			<point x="509" y="112" type="line"/>
			<point x="469" y="88"/>
			<point x="452" y="85"/>
			<point x="430" y="85" type="curve"/>
			<point x="389" y="85"/>
			<point x="374" y="110"/>
			<point x="374" y="166" type="curve"/>
			<point x="374" y="183"/>
			<point x="374" y="268"/>
			<point x="375" y="358" type="curve"/>
			<point x="422" y="358"/>
			<point x="469" y="356"/>
			<point x="515" y="351" type="curve"/>
			<point x="521" y="437" type="line"/>
			<point x="510" y="441" type="line"/>
			<point x="465" y="435"/>
			<point x="420" y="430"/>
			<point x="375" y="430" type="curve"/>
			<point x="376" y="503"/>
			<point x="376" y="567"/>
			<point x="376" y="584" type="curve"/>
			<point x="376" y="636"/>
			<point x="323" y="710"/>
			<point x="236" y="710" type="curve"/>
			<point x="160" y="710"/>
			<point x="83" y="603"/>
			<point x="50" y="492" type="curve"/>
			<point x="44" y="394"/>
			<point x="45" y="139"/>
			<point x="45" y="-5" type="curve"/>
			<point x="158" y="27" type="line"/>
			<point x="160" y="52" type="line"/>
			<point x="148" y="63"/>
			<point x="144" y="74"/>
			<point x="141" y="163" type="curve"/>
			<point x="138" y="263"/>
			<point x="125" y="504"/>
			<point x="134" y="585" type="curve"/>
			<point x="148" y="618"/>
			<point x="169" y="638"/>
			<point x="205" y="638" type="curve"/>
			<point x="264" y="638"/>
			<point x="287" y="578"/>
			<point x="287" y="498" type="curve"/>
			<point x="287" y="405"/>
			<point x="285" y="197"/>
			<point x="283" y="80" type="curve"/>
			<point x="282" y="20"/>
			<point x="323" y="-10"/>
		</contour>
	</outline>
</glyph>
<glyph name="M.ss01" format="2">
	<advance width="767"/>
	<outline>
		<contour>
			<point x="717" y="-1" type="line"/>
			<point x="717" y="10" type="line"/>
			<point x="677" y="117"/>
			<point x="676" y="494"/>
			<point x="682" y="700" type="curve"/>
			<point x="613" y="700" type="line"/>
			<point x="536" y="573"/>
			<point x="440" y="427"/>
			<point x="379" y="343" type="curve"/>
			<point x="155" y="700" type="line"/>
			<point x="77" y="700" type="line"/>
			<point x="77" y="507"/>
			<point x="72" y="147"/>
			<point x="50" y="0" type="curve"/>
			<point x="225" y="0" type="line"/>
			<point x="225" y="27" type="line"/>
			<point x="159" y="49"/>
			<point x="148" y="58"/>
			<point x="145" y="129" type="curve" smooth="yes"/>
			<point x="125" y="583" type="line"/>
			<point x="206" y="457"/>
			<point x="300" y="292"/>
			<point x="344" y="187" type="curve"/>
			<point x="352" y="187" type="line"/>
			<point x="390" y="277"/>
			<point x="509" y="452"/>
			<point x="593" y="580" type="curve"/>
			<point x="596" y="302"/>
			<point x="595" y="87"/>
			<point x="570" y="11" type="curve"/>
			<point x="570" y="0" type="line"/>
		</contour>
	</outline>
</glyph>
<glyph name="N.ss01" format="2">
	<advance width="714"/>
	<outline>
		<contour>
			<point x="649" y="0" type="line"/>
			<point x="649" y="349"/>
			<point x="655" y="497"/>
			<point x="659" y="592" type="curve" smooth="yes"/>
			<point x="661" y="637"/>
			<point x="663" y="660"/>
			<point x="679" y="674" type="curve"/>
			<point x="679" y="702" type="line"/>
			<point x="654" y="701"/>
			<point x="600" y="701"/>
			<point x="568" y="700" type="curve"/>
			<point x="568" y="674" type="line"/>
			<point x="581" y="664"/>
			<point x="592" y="653"/>
			<point x="595" y="601" type="curve" smooth="yes"/>
			<point x="601" y="503"/>
			<point x="607" y="271"/>
			<point x="605" y="170" type="curve"/>
			<point x="143" y="701" type="line"/>
			<point x="57" y="703" type="line"/>
			<point x="57" y="683" type="line"/>
			<point x="79" y="620"/>
			<point x="69" y="221"/>
			<point x="67" y="100" type="curve" smooth="yes"/>
			<point x="66" y="44"/>
			<point x="65" y="40"/>
			<point x="40" y="20" type="curve"/>
			<point x="40" y="-1" type="line"/>
			<point x="63" y="0"/>
			<point x="112" y="1"/>
			<point x="158" y="-2" type="curve"/>
			<point x="158" y="21" type="line"/>
			<point x="131" y="30"/>
			<point x="126" y="76"/>
			<point x="125" y="133" type="curve" smooth="yes"/>
			<point x="123" y="269"/>
			<point x="120" y="418"/>
			<point x="122" y="561" type="curve"/>
			<point x="605" y="1" type="line"/>
		</contour>
	</outline>
</glyph>
<glyph name="a_macr" format="2">
	<advance width="368"/>
	<outline>
		<contour>
			<point x="267" y="508" type="curve"/>
			<point x="267" y="508" type="line"/>
			<point x="282" y="520"/>
			<point x="324" y="577"/>
			<point x="347" y="594" type="curve"/>
			<point x="335" y="609" type="line"/>
			<point x="290" y="607"/>
			<point x="222" y="620"/>
			<point x="175" y="625" type="curve"/>
			<point x="149" y="585"/>
			<point x="118" y="551"/>
			<point x="96" y="527" type="curve"/>
			<point x="130" y="512" type="line"/>
			<point x="165" y="539"/>
			<point x="193" y="529"/>
		</contour>
		<contour>
			<point x="232" y="-9" type="line"/>
			<point x="245" y="-13" type="line"/>
			<point x="358" y="44" type="line"/>
			<point x="358" y="64" type="line"/>
			<point x="322" y="88"/>
			<point x="323" y="88"/>
			<point x="323" y="116" type="curve"/>
			<point x="322" y="341" type="line" smooth="yes"/>
			<point x="322" y="418"/>
			<point x="260" y="440"/>
			<point x="196" y="440" type="curve"/>
			<point x="156" y="432"/>
			<point x="58" y="379"/>
			<point x="34" y="358" type="curve"/>
			<point x="41" y="333" type="line"/>
			<point x="75" y="341"/>
			<point x="124" y="360"/>
			<point x="161" y="360" type="curve"/>
			<point x="224" y="360"/>
			<point x="223" y="316"/>
			<point x="224" y="284" type="curve"/>
			<point x="144" y="242"/>
			<point x="42" y="185"/>
			<point x="11" y="135" type="curve"/>
			<point x="6" y="104"/>
			<point x="13" y="-8"/>
			<point x="85" y="-8" type="curve"/>
			<point x="123" y="-8"/>
			<point x="178" y="52"/>
			<point x="221" y="93" type="curve"/>
			<point x="221" y="89" type="line"/>
		</contour>
		<contour>
			<point x="153" y="99" type="curve"/>
			<point x="153" y="99" type="line"/>
			<point x="127" y="99"/>
			<point x="100" y="112"/>
			<point x="100" y="141" type="curve"/>
			<point x="100" y="175"/>
			<point x="161" y="214"/>
			<point x="223" y="242" type="curve"/>
			<point x="223" y="211"/>
			<point x="222" y="168"/>
			<point x="222" y="136" type="curve"/>
			<point x="195" y="112"/>
			<point x="172" y="99"/>
		</contour>
	</outline>
</glyph>
<glyph name="c_ra" format="2">
	<advance width="363"/>
	<outline>
		<contour>
			<point x="126" y="481" type="curve"/>
			<point x="126" y="481" type="line"/>
			<point x="147" y="481"/>
			<point x="183" y="496"/>
			<point x="211" y="521" type="curve"/>
			<point x="229" y="499"/>
			<point x="245" y="480"/>
			<point x="272" y="484" type="curve"/>
			<point x="301" y="522"/>
			<point x="318" y="545"/>
			<point x="348" y="582" type="curve"/>
			<point x="332" y="594" type="line"/>
			<point x="314" y="573"/>
			<point x="304" y="567"/>
			<point x="274" y="608" type="curve"/>
			<point x="262" y="608" type="line"/>
			<point x="241" y="575"/>
			<point x="208" y="540"/>
			<point x="177" y="540" type="curve"/>
			<point x="139" y="540"/>
			<point x="103" y="567"/>
			<point x="92" y="625" type="curve"/>
			<point x="73" y="619" type="line"/>
			<point x="71" y="573"/>
			<point x="68" y="540"/>
			<point x="70" y="512" type="curve"/>
			<point x="76" y="496"/>
			<point x="96" y="481"/>
		</contour>
		<contour>
			<point x="154" y="-10" type="curve"/>
			<point x="154" y="-10" type="line"/>
			<point x="207" y="6"/>
			<point x="266" y="46"/>
			<point x="321" y="93" type="curve"/>
			<point x="309" y="121" type="line"/>
			<point x="278" y="103"/>
			<point x="250" y="93"/>
			<point x="209" y="93" type="curve"/>
			<point x="139" y="93"/>
			<point x="111" y="161"/>
			<point x="111" y="228" type="curve"/>
			<point x="111" y="294"/>
			<point x="152" y="334"/>
			<point x="183" y="349" type="curve"/>
			<point x="204" y="346"/>
			<point x="239" y="317"/>
			<point x="266" y="299" type="curve"/>
			<point x="336" y="387" type="line"/>
			<point x="335" y="399" type="line"/>
			<point x="306" y="401"/>
			<point x="227" y="427"/>
			<point x="193" y="430" type="curve"/>
			<point x="151" y="416"/>
			<point x="40" y="307"/>
			<point x="33" y="290" type="curve"/>
			<point x="24" y="230"/>
			<point x="20" y="150"/>
			<point x="33" y="70" type="curve"/>
			<point x="43" y="42"/>
			<point x="102" y="-6"/>
		</contour>
	</outline>
</glyph>
<glyph name="c_t_macr" format="2">
	<advance width="567"/>
	<outline>
		<contour>
			<point x="180" y="527" type="curve" smooth="yes"/>
			<point x="239" y="526"/>
			<point x="287" y="539"/>
			<point x="404" y="540" type="curve" smooth="yes"/>
			<point x="438" y="540"/>
			<point x="483" y="526"/>
			<point x="512" y="494" type="curve"/>
			<point x="542" y="506" type="line"/>
			<point x="515" y="558"/>
			<point x="471" y="604"/>
			<point x="431" y="631" type="curve"/>
			<point x="375" y="627"/>
			<point x="206" y="622"/>
			<point x="168" y="622" type="curve" smooth="yes"/>
			<point x="133" y="622"/>
			<point x="88" y="631"/>
			<point x="73" y="651" type="curve"/>
			<point x="45" y="640" type="line"/>
			<point x="61" y="596"/>
			<point x="134" y="528"/>
		</contour>
		<contour>
			<point x="562" y="340" type="curve"/>
			<point x="562" y="437" type="line"/>
			<point x="518" y="427"/>
			<point x="474" y="426"/>
			<point x="431" y="428" type="curve"/>
			<point x="434" y="453"/>
			<point x="437" y="475"/>
			<point x="440" y="494" type="curve"/>
			<point x="425" y="499" type="line"/>
			<point x="374" y="456"/>
			<point x="326" y="421"/>
			<point x="278" y="395" type="curve"/>
			<point x="257" y="413"/>
			<point x="208" y="435"/>
			<point x="175" y="440" type="curve"/>
			<point x="143" y="426"/>
			<point x="42" y="357"/>
			<point x="35" y="340" type="curve"/>
			<point x="27" y="278"/>
			<point x="20" y="140"/>
			<point x="30" y="60" type="curve"/>
			<point x="40" y="32"/>
			<point x="84" y="5"/>
			<point x="136" y="-10" type="curve"/>
			<point x="189" y="8"/>
			<point x="232" y="42"/>
			<point x="279" y="79" type="curve"/>
			<point x="271" y="109" type="line"/>
			<point x="240" y="95"/>
			<point x="215" y="91"/>
			<point x="195" y="91" type="curve" smooth="yes"/>
			<point x="138" y="91"/>
			<point x="106" y="153"/>
			<point x="106" y="251" type="curve" smooth="yes"/>
			<point x="106" y="290"/>
			<point x="112" y="331"/>
			<point x="120" y="350" type="curve"/>
			<point x="148" y="348"/>
			<point x="183" y="335"/>
			<point x="207" y="315" type="curve"/>
			<point x="276" y="378" type="line"/>
			<point x="292" y="371"/>
			<point x="307" y="358"/>
			<point x="323" y="340" type="curve"/>
			<point x="322" y="257"/>
			<point x="309" y="161"/>
			<point x="309" y="90" type="curve" smooth="yes"/>
			<point x="309" y="30"/>
			<point x="323" y="-10"/>
			<point x="393" y="-10" type="curve" smooth="yes"/>
			<point x="430" y="-10"/>
			<point x="487" y="26"/>
			<point x="546" y="65" type="curve"/>
			<point x="537" y="92" type="line"/>
			<point x="513" y="87"/>
			<point x="501" y="85"/>
			<point x="479" y="85" type="curve" smooth="yes"/>
			<point x="436" y="85"/>
			<point x="427" y="100"/>
			<point x="421" y="156" type="curve" smooth="yes"/>
			<point x="415" y="209"/>
			<point x="417" y="278"/>
			<point x="422" y="343" type="curve"/>
			<point x="469" y="347"/>
			<point x="515" y="346"/>
		</contour>
	</outline>
</glyph>
<glyph name="etc" format="2">
	<advance width="882"/>
	<outline>
		<contour>
			<point x="546" y="553" type="curve"/>
			<point x="546" y="553" type="line"/>
			<point x="642" y="553"/>
			<point x="722" y="607"/>
			<point x="780" y="665" type="curve"/>
			<point x="760" y="680" type="line"/>
			<point x="703" y="631"/>
			<point x="638" y="613"/>
			<point x="588" y="613" type="curve"/>
			<point x="526" y="613"/>
			<point x="535" y="653"/>
			<point x="578" y="697" type="curve"/>
			<point x="554" y="710" type="line"/>
			<point x="485" y="637"/>
			<point x="457" y="621"/>
			<point x="422" y="621" type="curve"/>
			<point x="369" y="621"/>
			<point x="350" y="654"/>
			<point x="382" y="698" type="curve"/>
			<point x="365" y="710" type="line"/>
			<point x="316" y="674"/>
			<point x="281" y="645"/>
			<point x="277" y="611" type="curve"/>
			<point x="271" y="609"/>
			<point x="265" y="607"/>
			<point x="260" y="607" type="curve"/>
			<point x="198" y="607"/>
			<point x="166" y="664"/>
			<point x="46" y="650" type="curve"/>
			<point x="20" y="573" type="line"/>
			<point x="29" y="561" type="line"/>
			<point x="98" y="628"/>
			<point x="184" y="577"/>
			<point x="248" y="577" type="curve"/>
			<point x="262" y="577"/>
			<point x="274" y="579"/>
			<point x="284" y="582" type="curve"/>
			<point x="293" y="570"/>
			<point x="311" y="564"/>
			<point x="335" y="564" type="curve"/>
			<point x="384" y="564"/>
			<point x="412" y="581"/>
			<point x="449" y="599" type="curve"/>
			<point x="461" y="579"/>
			<point x="480" y="553"/>
		</contour>
		<contour>
			<point x="560" y="-10" type="curve"/>
			<point x="560" y="-10" type="line"/>
			<point x="613" y="21"/>
			<point x="646" y="55"/>
			<point x="693" y="92" type="curve"/>
			<point x="679" y="118" type="line"/>
			<point x="662" y="112"/>
			<point x="647" y="101"/>
			<point x="617" y="101" type="curve"/>
			<point x="580" y="101"/>
			<point x="543" y="166"/>
			<point x="543" y="263" type="curve"/>
			<point x="543" y="292"/>
			<point x="545" y="321"/>
			<point x="553" y="340" type="curve"/>
			<point x="590" y="338"/>
			<point x="624" y="325"/>
			<point x="658" y="310" type="curve"/>
			<point x="764" y="373" type="line"/>
			<point x="763" y="386" type="line"/>
			<point x="733" y="404"/>
			<point x="642" y="435"/>
			<point x="608" y="440" type="curve"/>
			<point x="576" y="426"/>
			<point x="486" y="347"/>
			<point x="478" y="330" type="curve"/>
			<point x="458" y="288"/>
			<point x="449" y="234"/>
			<point x="449" y="190" type="curve"/>
			<point x="449" y="74"/>
			<point x="469" y="-3"/>
		</contour>
		<contour>
			<point x="181" y="0" type="curve"/>
			<point x="186" y="-10" type="line"/>
			<point x="388" y="40" type="line"/>
			<point x="383" y="70" type="line"/>
			<point x="362" y="80"/>
			<point x="342" y="75"/>
			<point x="342" y="163" type="curve"/>
			<point x="342" y="260"/>
			<point x="417" y="397"/>
			<point x="438" y="421" type="curve"/>
			<point x="429" y="433" type="line"/>
			<point x="345" y="419"/>
			<point x="268" y="423"/>
			<point x="184" y="438" type="curve"/>
			<point x="136" y="411"/>
			<point x="84" y="345"/>
			<point x="65" y="303" type="curve"/>
			<point x="57" y="268"/>
			<point x="63" y="202"/>
			<point x="112" y="192" type="curve"/>
			<point x="165" y="276" type="line"/>
			<point x="165" y="284" type="line"/>
			<point x="136" y="288"/>
			<point x="117" y="322"/>
			<point x="125" y="340" type="curve"/>
			<point x="165" y="355"/>
			<point x="266" y="357"/>
			<point x="336" y="340" type="curve"/>
			<point x="277" y="241"/>
			<point x="225" y="120"/>
		</contour>
		<contour>
			<point x="771" y="56" type="curve"/>
			<point x="771" y="56" type="line"/>
			<point x="773" y="56" type="line"/>
			<point x="802" y="78"/>
			<point x="829" y="104"/>
			<point x="852" y="129" type="curve"/>
			<point x="852" y="133" type="line"/>
			<point x="832" y="161"/>
			<point x="810" y="189"/>
			<point x="784" y="214" type="curve"/>
			<point x="755" y="191"/>
			<point x="729" y="165"/>
			<point x="706" y="139" type="curve"/>
			<point x="706" y="136" type="line"/>
			<point x="726" y="107"/>
			<point x="747" y="80"/>
		</contour>
	</outline>
</glyph>
<glyph name="etfin" format="2">
	<advance width="314"/>
	<outline>
		<contour>
			<point x="42" y="-340" type="line"/>
			<point x="195" y="-219"/>
			<point x="284" y="-92"/>
			<point x="284" y="3" type="curve" smooth="yes"/>
			<point x="284" y="69"/>
			<point x="256" y="122"/>
			<point x="180" y="169" type="curve"/>
			<point x="225" y="217"/>
			<point x="284" y="275"/>
			<point x="284" y="338" type="curve" smooth="yes"/>
			<point x="284" y="384"/>
			<point x="257" y="421"/>
			<point x="212" y="440" type="curve"/>
			<point x="19" y="371" type="line"/>
			<point x="26" y="340" type="line"/>
			<point x="116" y="346"/>
			<point x="179" y="304"/>
			<point x="179" y="258" type="curve" smooth="yes"/>
			<point x="179" y="221"/>
			<point x="154" y="180"/>
			<point x="53" y="102" type="curve"/>
			<point x="59" y="87" type="line"/>
			<point x="166" y="48"/>
			<point x="194" y="4"/>
			<point x="194" y="-53" type="curve" smooth="yes"/>
			<point x="194" y="-142"/>
			<point x="86" y="-239"/>
			<point x="10" y="-304" type="curve"/>
		</contour>
	</outline>
</glyph>
<glyph name="f_f" format="2">
	<advance width="453"/>
	<outline>
		<contour>
			<point x="40" y="1" type="curve"/>
			<point x="42" y="-3" type="line"/>
			<point x="77" y="2"/>
			<point x="133" y="3"/>
			<point x="149" y="1" type="curve"/>
			<point x="151" y="20" type="line"/>
			<point x="141" y="55"/>
			<point x="137" y="199"/>
			<point x="137" y="340" type="curve"/>
			<point x="176" y="341"/>
			<point x="214" y="342"/>
			<point x="247" y="341" type="curve"/>
			<point x="250" y="337" type="line"/>
			<point x="250" y="288"/>
			<point x="243" y="71"/>
			<point x="240" y="3" type="curve"/>
			<point x="242" y="-1" type="line"/>
			<point x="277" y="1"/>
			<point x="322" y="1"/>
			<point x="358" y="0" type="curve"/>
			<point x="360" y="19" type="line"/>
			<point x="347" y="67"/>
			<point x="345" y="223"/>
			<point x="345" y="341" type="curve"/>
			<point x="394" y="341"/>
			<point x="437" y="337"/>
			<point x="474" y="335" type="curve"/>
			<point x="484" y="425" type="line"/>
			<point x="468" y="425" type="line"/>
			<point x="459" y="408"/>
			<point x="435" y="405"/>
			<point x="419" y="405" type="curve"/>
			<point x="345" y="405" type="line"/>
			<point x="345" y="463" type="line" smooth="yes"/>
			<point x="345" y="521"/>
			<point x="347" y="583"/>
			<point x="360" y="621" type="curve"/>
			<point x="387" y="630"/>
			<point x="430" y="610"/>
			<point x="444" y="592" type="curve"/>
			<point x="455" y="592" type="line"/>
			<point x="493" y="677" type="line"/>
			<point x="474" y="690"/>
			<point x="452" y="710"/>
			<point x="413" y="710" type="curve"/>
			<point x="345" y="710"/>
			<point x="278" y="596"/>
			<point x="265" y="477" type="curve"/>
			<point x="262" y="449"/>
			<point x="257" y="425"/>
			<point x="250" y="404" type="curve"/>
			<point x="138" y="404" type="line"/>
			<point x="139" y="504"/>
			<point x="144" y="593"/>
			<point x="151" y="626" type="curve"/>
			<point x="187" y="635"/>
			<point x="230" y="619"/>
			<point x="254" y="601" type="curve"/>
			<point x="265" y="601" type="line"/>
			<point x="269" y="637"/>
			<point x="276" y="677"/>
			<point x="274" y="705" type="curve"/>
			<point x="205" y="712"/>
			<point x="161" y="691"/>
			<point x="122" y="672" type="curve"/>
			<point x="57" y="553"/>
			<point x="46" y="446"/>
			<point x="46" y="337" type="curve"/>
			<point x="46" y="261"/>
			<point x="43" y="69"/>
		</contour>
	</outline>
</glyph>
<glyph name="g_e" format="2">
	<advance width="424"/>
	<outline>
		<contour>
			<point x="258" y="474" type="curve"/>
			<point x="258" y="474" type="line"/>
			<point x="330" y="474"/>
			<point x="376" y="521"/>
			<point x="404" y="582" type="curve"/>
			<point x="384" y="607" type="line"/>
			<point x="358" y="559"/>
			<point x="334" y="526"/>
			<point x="287" y="526" type="curve"/>
			<point x="277" y="526"/>
			<point x="263" y="530"/>
			<point x="250" y="541" type="curve"/>
			<point x="410" y="659" type="line"/>
			<point x="403" y="680" type="line"/>
			<point x="385" y="669" type="line"/>
			<point x="353" y="690"/>
			<point x="319" y="702"/>
			<point x="285" y="710" type="curve"/>
			<point x="226" y="700"/>
			<point x="159" y="637"/>
			<point x="159" y="567" type="curve"/>
			<point x="159" y="506"/>
			<point x="208" y="474"/>
		</contour>
		<contour>
			<point x="313" y="620" type="curve"/>
			<point x="235" y="560" type="line"/>
			<point x="229" y="572"/>
			<point x="225" y="586"/>
			<point x="225" y="605" type="curve"/>
			<point x="225" y="643"/>
			<point x="237" y="656"/>
			<point x="255" y="656" type="curve"/>
			<point x="264" y="656"/>
			<point x="289" y="650"/>
		</contour>
		<contour>
			<point x="224" y="-330" type="curve"/>
			<point x="224" y="-330" type="line"/>
			<point x="283" y="-330"/>
			<point x="391" y="-253"/>
			<point x="421" y="-210" type="curve"/>
			<point x="468" y="-87"/>
			<point x="382" y="-40"/>
			<point x="252" y="-33" type="curve"/>
			<point x="151" y="-28"/>
			<point x="110" y="-2"/>
			<point x="110" y="27" type="curve"/>
			<point x="110" y="40"/>
			<point x="130" y="52"/>
			<point x="144" y="59" type="curve"/>
			<point x="177" y="55" type="line"/>
			<point x="188" y="55" type="line"/>
			<point x="241" y="90"/>
			<point x="300" y="143"/>
			<point x="331" y="201" type="curve"/>
			<point x="341" y="244"/>
			<point x="342" y="290"/>
			<point x="333" y="339" type="curve"/>
			<point x="355" y="340"/>
			<point x="373" y="339"/>
			<point x="395" y="338" type="curve"/>
			<point x="433" y="399" type="line"/>
			<point x="429" y="408" type="line"/>
			<point x="313" y="407" type="line"/>
			<point x="291" y="410"/>
			<point x="258" y="440"/>
			<point x="193" y="440" type="curve"/>
			<point x="77" y="440"/>
			<point x="20" y="315"/>
			<point x="20" y="242" type="curve"/>
			<point x="20" y="160"/>
			<point x="53" y="104"/>
			<point x="104" y="76" type="curve"/>
			<point x="82" y="45"/>
			<point x="30" y="11"/>
			<point x="20" y="-2" type="curve"/>
			<point x="20" y="-58"/>
			<point x="64" y="-91"/>
			<point x="105" y="-113" type="curve"/>
			<point x="72" y="-149"/>
			<point x="41" y="-169"/>
			<point x="21" y="-189" type="curve"/>
			<point x="21" y="-271"/>
			<point x="102" y="-330"/>
		</contour>
		<contour>
			<point x="239" y="146" type="curve"/>
			<point x="239" y="146" type="line"/>
			<point x="119" y="138"/>
			<point x="55" y="262"/>
			<point x="117" y="358" type="curve"/>
			<point x="230" y="362"/>
			<point x="279" y="245"/>
		</contour>
		<contour>
			<point x="280" y="-250" type="curve"/>
			<point x="280" y="-250" type="line"/>
			<point x="157" y="-250"/>
			<point x="115" y="-192"/>
			<point x="113" y="-161" type="curve"/>
			<point x="112" y="-142"/>
			<point x="125" y="-133"/>
			<point x="137" y="-127" type="curve"/>
			<point x="280" y="-128"/>
			<point x="382" y="-144"/>
			<point x="373" y="-223" type="curve"/>
			<point x="357" y="-244"/>
			<point x="316" y="-250"/>
		</contour>
	</outline>
</glyph>
<glyph name="g_ring" format="2">
	<advance width="431"/>
	<outline>
		<contour>
			<point x="292" y="477" type="curve" smooth="yes"/>
			<point x="365" y="477"/>
			<point x="441" y="523"/>
			<point x="441" y="596" type="curve" smooth="yes"/>
			<point x="441" y="673"/>
			<point x="390" y="710"/>
			<point x="314" y="710" type="curve" smooth="yes"/>
			<point x="220" y="710"/>
			<point x="165" y="650"/>
			<point x="165" y="590" type="curve" smooth="yes"/>
			<point x="165" y="520"/>
			<point x="215" y="477"/>
		</contour>
		<contour>
			<point x="320" y="515" type="curve" smooth="yes"/>
			<point x="275" y="515"/>
			<point x="241" y="565"/>
			<point x="241" y="607" type="curve" smooth="yes"/>
			<point x="241" y="642"/>
			<point x="253" y="670"/>
			<point x="287" y="670" type="curve" smooth="yes"/>
			<point x="335" y="670"/>
			<point x="362" y="622"/>
			<point x="362" y="575" type="curve" smooth="yes"/>
			<point x="362" y="541"/>
			<point x="346" y="515"/>
		</contour>
		<contour>
			<point x="224" y="-330" type="curve" smooth="yes"/>
			<point x="283" y="-330"/>
			<point x="391" y="-253"/>
			<point x="421" y="-210" type="curve"/>
			<point x="468" y="-87"/>
			<point x="382" y="-40"/>
			<point x="252" y="-33" type="curve" smooth="yes"/>
			<point x="151" y="-28"/>
			<point x="110" y="-2"/>
			<point x="110" y="27" type="curve" smooth="yes"/>
			<point x="110" y="40"/>
			<point x="130" y="52"/>
			<point x="144" y="59" type="curve"/>
			<point x="177" y="55" type="line"/>
			<point x="188" y="55" type="line"/>
			<point x="241" y="90"/>
			<point x="300" y="143"/>
			<point x="331" y="201" type="curve"/>
			<point x="341" y="244"/>
			<point x="342" y="290"/>
			<point x="333" y="339" type="curve"/>
			<point x="355" y="340"/>
			<point x="373" y="339"/>
			<point x="395" y="338" type="curve"/>
			<point x="433" y="399" type="line"/>
			<point x="429" y="408" type="line"/>
			<point x="313" y="407" type="line"/>
			<point x="291" y="410"/>
			<point x="258" y="440"/>
			<point x="193" y="440" type="curve" smooth="yes"/>
			<point x="77" y="440"/>
			<point x="20" y="315"/>
			<point x="20" y="242" type="curve" smooth="yes"/>
			<point x="20" y="160"/>
			<point x="53" y="104"/>
			<point x="104" y="76" type="curve"/>
			<point x="82" y="45"/>
			<point x="30" y="11"/>
			<point x="20" y="-2" type="curve"/>
			<point x="20" y="-58"/>
			<point x="64" y="-91"/>
			<point x="105" y="-113" type="curve"/>
			<point x="72" y="-149"/>
			<point x="41" y="-169"/>
			<point x="21" y="-189" type="curve"/>
			<point x="21" y="-271"/>
			<point x="102" y="-330"/>
		</contour>
		<contour>
			<point x="239" y="146" type="curve"/>
			<point x="119" y="138"/>
			<point x="55" y="262"/>
			<point x="117" y="358" type="curve"/>
			<point x="230" y="362"/>
			<point x="279" y="245"/>
		</contour>
		<contour>
			<point x="280" y="-250" type="curve" smooth="yes"/>
			<point x="157" y="-250"/>
			<point x="115" y="-192"/>
			<point x="113" y="-161" type="curve" smooth="yes"/>
			<point x="112" y="-142"/>
			<point x="125" y="-133"/>
			<point x="137" y="-127" type="curve"/>
			<point x="280" y="-128"/>
			<point x="382" y="-144"/>
			<point x="373" y="-223" type="curve"/>
			<point x="357" y="-244"/>
			<point x="316" y="-250"/>
		</contour>
	</outline>
</glyph>
<glyph name="g_urrot" format="2">
	<advance width="424"/>
	<outline>
		<contour>
			<point x="386" y="495" type="curve"/>
			<point x="387" y="529" type="line"/>
			<point x="307" y="535"/>
			<point x="304" y="536"/>
			<point x="312" y="570" type="curve" smooth="yes"/>
			<point x="319" y="598"/>
			<point x="334" y="632"/>
			<point x="346" y="663" type="curve"/>
			<point x="344" y="673" type="line"/>
			<point x="319" y="673"/>
			<point x="207" y="669"/>
			<point x="173" y="668" type="curve"/>
			<point x="168" y="637" type="line"/>
			<point x="233" y="631"/>
			<point x="235" y="619"/>
			<point x="234" y="584" type="curve" smooth="yes"/>
			<point x="233" y="555"/>
			<point x="228" y="538"/>
			<point x="221" y="504" type="curve"/>
			<point x="245" y="506"/>
			<point x="352" y="499"/>
		</contour>
		<contour>
			<point x="224" y="-330" type="curve" smooth="yes"/>
			<point x="283" y="-330"/>
			<point x="391" y="-253"/>
			<point x="421" y="-210" type="curve"/>
			<point x="468" y="-87"/>
			<point x="382" y="-40"/>
			<point x="252" y="-33" type="curve" smooth="yes"/>
			<point x="151" y="-28"/>
			<point x="110" y="-2"/>
			<point x="110" y="27" type="curve" smooth="yes"/>
			<point x="110" y="40"/>
			<point x="130" y="52"/>
			<point x="144" y="59" type="curve"/>
			<point x="177" y="55" type="line"/>
			<point x="188" y="55" type="line"/>
			<point x="241" y="90"/>
			<point x="300" y="143"/>
			<point x="331" y="201" type="curve"/>
			<point x="341" y="244"/>
			<point x="342" y="290"/>
			<point x="333" y="339" type="curve"/>
			<point x="355" y="340"/>
			<point x="373" y="339"/>
			<point x="395" y="338" type="curve"/>
			<point x="433" y="399" type="line"/>
			<point x="429" y="408" type="line"/>
			<point x="313" y="407" type="line"/>
			<point x="291" y="410"/>
			<point x="258" y="440"/>
			<point x="193" y="440" type="curve" smooth="yes"/>
			<point x="77" y="440"/>
			<point x="20" y="315"/>
			<point x="20" y="242" type="curve" smooth="yes"/>
			<point x="20" y="160"/>
			<point x="53" y="104"/>
			<point x="104" y="76" type="curve"/>
			<point x="82" y="45"/>
			<point x="30" y="11"/>
			<point x="20" y="-2" type="curve"/>
			<point x="20" y="-58"/>
			<point x="64" y="-91"/>
			<point x="105" y="-113" type="curve"/>
			<point x="72" y="-149"/>
			<point x="41" y="-169"/>
			<point x="21" y="-189" type="curve"/>
			<point x="21" y="-271"/>
			<point x="102" y="-330"/>
		</contour>
		<contour>
			<point x="239" y="146" type="curve"/>
			<point x="119" y="138"/>
			<point x="55" y="262"/>
			<point x="117" y="358" type="curve"/>
			<point x="230" y="362"/>
			<point x="279" y="245"/>
		</contour>
		<contour>
			<point x="280" y="-250" type="curve" smooth="yes"/>
			<point x="157" y="-250"/>
			<point x="115" y="-192"/>
			<point x="113" y="-161" type="curve" smooth="yes"/>
			<point x="112" y="-142"/>
			<point x="125" y="-133"/>
			<point x="137" y="-127" type="curve"/>
			<point x="280" y="-128"/>
			<point x="382" y="-144"/>
			<point x="373" y="-223" type="curve"/>
			<point x="357" y="-244"/>
			<point x="316" y="-250"/>
		</contour>
	</outline>
</glyph>
<glyph name="h_strok" format="2">
	<advance width="451"/>
	<outline>
		<contour>
			<point x="53" y="-10" type="line"/>
			<point x="108" y="10"/>
			<point x="160" y="26"/>
			<point x="185" y="30" type="curve"/>
			<point x="188" y="51" type="line"/>
			<point x="176" y="69"/>
			<point x="162" y="78"/>
			<point x="161" y="136" type="curve" smooth="yes"/>
			<point x="160" y="194"/>
			<point x="160" y="270"/>
			<point x="160" y="346" type="curve"/>
			<point x="267" y="368"/>
			<point x="346" y="287"/>
			<point x="346" y="182" type="curve" smooth="yes"/>
			<point x="346" y="103"/>
			<point x="312" y="50"/>
			<point x="247" y="20" type="curve"/>
			<point x="262" y="-10" type="line"/>
			<point x="359" y="44"/>
			<point x="431" y="119"/>
			<point x="431" y="242" type="curve" smooth="yes"/>
			<point x="431" y="348"/>
			<point x="371" y="408"/>
			<point x="290" y="421" type="curve"/>
			<point x="247" y="406"/>
			<point x="206" y="398"/>
			<point x="160" y="385" type="curve"/>
			<point x="161" y="440"/>
			<point x="161" y="494"/>
			<point x="162" y="541" type="curve"/>
			<point x="246" y="541"/>
			<point x="338" y="521"/>
			<point x="414" y="493" type="curve"/>
			<point x="419" y="499" type="line"/>
			<point x="407" y="541" type="line"/>
			<point x="326" y="571"/>
			<point x="242" y="591"/>
			<point x="163" y="594" type="curve"/>
			<point x="164" y="609"/>
			<point x="164" y="623"/>
			<point x="165" y="635" type="curve" smooth="yes"/>
			<point x="166" y="656"/>
			<point x="172" y="660"/>
			<point x="196" y="678" type="curve"/>
			<point x="193" y="702" type="line"/>
			<point x="31" y="700" type="line"/>
			<point x="31" y="672" type="line"/>
			<point x="59" y="652"/>
			<point x="59" y="650"/>
			<point x="60" y="595" type="curve" smooth="yes"/>
			<point x="60" y="587" type="line"/>
			<point x="46" y="584"/>
			<point x="32" y="580"/>
			<point x="18" y="576" type="curve"/>
			<point x="15" y="520" type="line"/>
			<point x="23" y="513" type="line"/>
			<point x="35" y="519"/>
			<point x="48" y="524"/>
			<point x="62" y="528" type="curve"/>
			<point x="66" y="417"/>
			<point x="73" y="246"/>
			<point x="72" y="124" type="curve" smooth="yes"/>
			<point x="72" y="64"/>
			<point x="71" y="49"/>
			<point x="48" y="20" type="curve"/>
		</contour>
	</outline>
</glyph>
<glyph name="i_n" format="2">
	<advance width="656"/>
	<outline>
		<contour>
			<point x="138" y="502" type="line"/>
			<point x="245" y="650" type="line"/>
			<point x="245" y="658" type="line"/>
			<point x="193" y="658" type="line"/>
			<point x="114" y="515" type="line"/>
		</contour>
		<contour>
			<point x="64" y="-10" type="line"/>
			<point x="114" y="7"/>
			<point x="163" y="18"/>
			<point x="213" y="21" type="curve"/>
			<point x="213" y="50" type="line"/>
			<point x="176" y="58"/>
			<point x="166" y="73"/>
			<point x="166" y="110" type="curve" smooth="yes"/>
			<point x="166" y="318" type="line"/>
			<point x="181" y="326"/>
			<point x="198" y="330"/>
			<point x="220" y="330" type="curve" smooth="yes"/>
			<point x="267" y="330"/>
			<point x="288" y="303"/>
			<point x="288" y="234" type="curve" smooth="yes"/>
			<point x="288" y="95"/>
			<point x="282" y="41"/>
			<point x="263" y="0" type="curve"/>
			<point x="272" y="-10" type="line"/>
			<point x="325" y="6"/>
			<point x="378" y="17"/>
			<point x="431" y="21" type="curve"/>
			<point x="431" y="47" type="line"/>
			<point x="394" y="55"/>
			<point x="388" y="64"/>
			<point x="388" y="101" type="curve" smooth="yes"/>
			<point x="388" y="324" type="line"/>
			<point x="398" y="329"/>
			<point x="410" y="332"/>
			<point x="427" y="332" type="curve" smooth="yes"/>
			<point x="474" y="332"/>
			<point x="505" y="313"/>
			<point x="505" y="244" type="curve" smooth="yes"/>
			<point x="505" y="125"/>
			<point x="505" y="96"/>
			<point x="493" y="-5" type="curve"/>
			<point x="499" y="-10" type="line"/>
			<point x="545" y="5"/>
			<point x="595" y="16"/>
			<point x="641" y="21" type="curve"/>
			<point x="641" y="45" type="line"/>
			<point x="614" y="53"/>
			<point x="609" y="81"/>
			<point x="608" y="118" type="curve" smooth="yes"/>
			<point x="606" y="198"/>
			<point x="598" y="280"/>
			<point x="608" y="360" type="curve"/>
			<point x="598" y="404"/>
			<point x="548" y="430"/>
			<point x="523" y="440" type="curve"/>
			<point x="502" y="426"/>
			<point x="438" y="392"/>
			<point x="385" y="357" type="curve"/>
			<point x="372" y="397"/>
			<point x="318" y="440"/>
			<point x="296" y="440" type="curve"/>
			<point x="275" y="434"/>
			<point x="215" y="394"/>
			<point x="165" y="356" type="curve"/>
			<point x="161" y="395"/>
			<point x="148" y="426"/>
			<point x="123" y="440" type="curve"/>
			<point x="20" y="376" type="line"/>
			<point x="20" y="349" type="line"/>
			<point x="50" y="345"/>
			<point x="66" y="329"/>
			<point x="66" y="289" type="curve" smooth="yes"/>
			<point x="66" y="161" type="line" smooth="yes"/>
			<point x="66" y="74"/>
			<point x="60" y="15"/>
			<point x="58" y="-5" type="curve"/>
		</contour>
	</outline>
</glyph>
<glyph name="i_u" format="2">
	<advance width="660"/>
	<outline>
		<contour>
			<point x="126" y="500" type="line"/>
			<point x="157" y="502" type="line"/>
			<point x="244" y="619" type="line"/>
			<point x="244" y="627" type="line"/>
			<point x="182" y="628" type="line"/>
		</contour>
		<contour>
			<point x="531" y="-15" type="curve"/>
			<point x="630" y="49" type="line"/>
			<point x="630" y="74" type="line"/>
			<point x="594" y="92"/>
			<point x="593" y="100"/>
			<point x="593" y="141" type="curve" smooth="yes"/>
			<point x="593" y="192"/>
			<point x="593" y="347"/>
			<point x="599" y="431" type="curve"/>
			<point x="594" y="440" type="line"/>
			<point x="448" y="405" type="line"/>
			<point x="448" y="378" type="line"/>
			<point x="488" y="365"/>
			<point x="502" y="339"/>
			<point x="502" y="289" type="curve" smooth="yes"/>
			<point x="502" y="219"/>
			<point x="503" y="149"/>
			<point x="498" y="104" type="curve"/>
			<point x="480" y="92"/>
			<point x="462" y="86"/>
			<point x="446" y="86" type="curve" smooth="yes"/>
			<point x="413" y="86"/>
			<point x="377" y="115"/>
			<point x="377" y="185" type="curve" smooth="yes"/>
			<point x="377" y="282"/>
			<point x="385" y="373"/>
			<point x="385" y="431" type="curve"/>
			<point x="380" y="440" type="line"/>
			<point x="247" y="395" type="line"/>
			<point x="247" y="368" type="line"/>
			<point x="279" y="353"/>
			<point x="287" y="327"/>
			<point x="287" y="291" type="curve" smooth="yes"/>
			<point x="287" y="272"/>
			<point x="281" y="150"/>
			<point x="280" y="101" type="curve"/>
			<point x="263" y="90"/>
			<point x="248" y="85"/>
			<point x="226" y="85" type="curve" smooth="yes"/>
			<point x="191" y="85"/>
			<point x="160" y="114"/>
			<point x="160" y="171" type="curve" smooth="yes"/>
			<point x="160" y="262"/>
			<point x="163" y="346"/>
			<point x="177" y="430" type="curve"/>
			<point x="162" y="440" type="line"/>
			<point x="118" y="417"/>
			<point x="74" y="398"/>
			<point x="30" y="383" type="curve"/>
			<point x="30" y="359" type="line"/>
			<point x="49" y="352"/>
			<point x="68" y="345"/>
			<point x="68" y="309" type="curve" smooth="yes"/>
			<point x="68" y="206"/>
			<point x="62" y="122"/>
			<point x="62" y="88" type="curve" smooth="yes"/>
			<point x="62" y="33"/>
			<point x="99" y="-10"/>
			<point x="154" y="-10" type="curve"/>
			<point x="281" y="65" type="line"/>
			<point x="286" y="26"/>
			<point x="306" y="7"/>
			<point x="358" y="-10" type="curve"/>
			<point x="405" y="7"/>
			<point x="448" y="38"/>
			<point x="493" y="64" type="curve"/>
			<point x="496" y="30"/>
			<point x="514" y="5"/>
		</contour>
	</outline>
</glyph>
<glyph name="i_u_macr" format="2">
	<advance width="669"/>
	<outline>
		<contour>
			<point x="164" y="462" type="line"/>
			<point x="271" y="601" type="line"/>
			<point x="271" y="609" type="line"/>
			<point x="220" y="619" type="line"/>
			<point x="143" y="478" type="line"/>
		</contour>
		<contour>
			<point x="529" y="496" type="curve"/>
			<point x="544" y="510"/>
			<point x="580" y="561"/>
			<point x="603" y="588" type="curve"/>
			<point x="582" y="601" type="line"/>
			<point x="537" y="579"/>
			<point x="510" y="582"/>
			<point x="393" y="597" type="curve"/>
			<point x="367" y="557"/>
			<point x="350" y="539"/>
			<point x="328" y="515" type="curve"/>
			<point x="348" y="500" type="line"/>
			<point x="393" y="517"/>
			<point x="425" y="509"/>
		</contour>
		<contour>
			<point x="509" y="-15" type="curve"/>
			<point x="639" y="49" type="line"/>
			<point x="639" y="74" type="line"/>
			<point x="603" y="92"/>
			<point x="606" y="100"/>
			<point x="602" y="141" type="curve" smooth="yes"/>
			<point x="597" y="192"/>
			<point x="593" y="328"/>
			<point x="619" y="431" type="curve"/>
			<point x="614" y="440" type="line"/>
			<point x="465" y="405" type="line"/>
			<point x="465" y="378" type="line"/>
			<point x="495" y="365"/>
			<point x="499" y="339"/>
			<point x="499" y="289" type="curve" smooth="yes"/>
			<point x="499" y="215"/>
			<point x="500" y="142"/>
			<point x="494" y="97" type="curve"/>
			<point x="476" y="88"/>
			<point x="459" y="86"/>
			<point x="443" y="86" type="curve" smooth="yes"/>
			<point x="410" y="86"/>
			<point x="382" y="115"/>
			<point x="382" y="185" type="curve" smooth="yes"/>
			<point x="382" y="282"/>
			<point x="387" y="365"/>
			<point x="413" y="423" type="curve"/>
			<point x="405" y="440" type="line"/>
			<point x="244" y="425" type="line"/>
			<point x="244" y="398" type="line"/>
			<point x="276" y="383"/>
			<point x="282" y="357"/>
			<point x="284" y="321" type="curve" smooth="yes"/>
			<point x="286" y="279"/>
			<point x="277" y="133"/>
			<point x="277" y="99" type="curve"/>
			<point x="268" y="95"/>
			<point x="255" y="92"/>
			<point x="235" y="92" type="curve" smooth="yes"/>
			<point x="200" y="92"/>
			<point x="169" y="114"/>
			<point x="169" y="171" type="curve" smooth="yes"/>
			<point x="169" y="262"/>
			<point x="172" y="346"/>
			<point x="186" y="430" type="curve"/>
			<point x="171" y="440" type="line"/>
			<point x="118" y="417"/>
			<point x="74" y="398"/>
			<point x="30" y="383" type="curve"/>
			<point x="30" y="359" type="line"/>
			<point x="49" y="352"/>
			<point x="66" y="345"/>
			<point x="68" y="309" type="curve" smooth="yes"/>
			<point x="74" y="206"/>
			<point x="62" y="102"/>
			<point x="62" y="68" type="curve" smooth="yes"/>
			<point x="62" y="13"/>
			<point x="80" y="-1"/>
			<point x="125" y="-10" type="curve"/>
			<point x="278" y="75" type="line"/>
			<point x="283" y="34"/>
			<point x="301" y="7"/>
			<point x="345" y="-10" type="curve"/>
			<point x="392" y="14"/>
			<point x="442" y="39"/>
			<point x="490" y="62" type="curve"/>
			<point x="490" y="30"/>
			<point x="492" y="4"/>
		</contour>
	</outline>
</glyph>
<glyph name="iota_dieresis" format="2">
	<advance width="238"/>
	<outline>
		<contour>
			<point x="163" y="525" type="curve"/>
			<point x="163" y="525" type="line"/>
			<point x="185" y="525"/>
			<point x="198" y="541"/>
			<point x="198" y="565" type="curve"/>
			<point x="198" y="588"/>
			<point x="185" y="604"/>
			<point x="163" y="604" type="curve"/>
			<point x="142" y="604"/>
			<point x="129" y="588"/>
			<point x="129" y="565" type="curve"/>
			<point x="129" y="541"/>
			<point x="142" y="525"/>
		</contour>
		<contour>
			<point x="66" y="527" type="curve"/>
			<point x="66" y="527" type="line"/>
			<point x="87" y="527"/>
			<point x="98" y="541"/>
			<point x="98" y="563" type="curve"/>
			<point x="98" y="584"/>
			<point x="87" y="600"/>
			<point x="66" y="600" type="curve"/>
			<point x="46" y="600"/>
			<point x="35" y="584"/>
			<point x="35" y="563" type="curve"/>
			<point x="35" y="541"/>
			<point x="46" y="527"/>
		</contour>
		<contour>
			<point x="49" y="0" type="curve"/>
			<point x="49" y="0" type="line"/>
			<point x="167" y="0" type="line"/>
			<point x="165" y="50"/>
			<point x="159" y="423"/>
			<point x="159" y="435" type="curve"/>
			<point x="151" y="442" type="line"/>
			<point x="45" y="421" type="line"/>
			<point x="43" y="391" type="line"/>
			<point x="69" y="361"/>
			<point x="58" y="137"/>
		</contour>
	</outline>
</glyph>
<glyph name="l_i" format="2">
	<advance width="409"/>
	<outline>
		<contour>
			<point x="121" y="-10" type="curve"/>
			<point x="121" y="-10" type="line"/>
			<point x="243" y="60" type="line"/>
			<point x="241" y="40" type="line"/>
			<point x="247" y="21"/>
			<point x="266" y="0"/>
			<point x="287" y="-10" type="curve"/>
			<point x="325" y="7"/>
			<point x="345" y="22"/>
			<point x="399" y="46" type="curve"/>
			<point x="399" y="77" type="line"/>
			<point x="349" y="69"/>
			<point x="350" y="72"/>
			<point x="351" y="158" type="curve"/>
			<point x="352" y="224"/>
			<point x="352" y="317"/>
			<point x="357" y="407" type="curve"/>
			<point x="343" y="420"/>
			<point x="322" y="433"/>
			<point x="300" y="441" type="curve"/>
			<point x="184" y="390" type="line"/>
			<point x="184" y="360" type="line"/>
			<point x="239" y="367"/>
			<point x="253" y="334"/>
			<point x="253" y="308" type="curve"/>
			<point x="253" y="243"/>
			<point x="252" y="177"/>
			<point x="245" y="92" type="curve"/>
			<point x="156" y="74"/>
			<point x="150" y="108"/>
			<point x="146" y="172" type="curve"/>
			<point x="137" y="313"/>
			<point x="142" y="504"/>
			<point x="149" y="645" type="curve"/>
			<point x="150" y="667"/>
			<point x="153" y="669"/>
			<point x="185" y="676" type="curve"/>
			<point x="185" y="704" type="line"/>
			<point x="30" y="700" type="line"/>
			<point x="30" y="673" type="line"/>
			<point x="63" y="622"/>
			<point x="46" y="252"/>
			<point x="44" y="95" type="curve"/>
			<point x="43" y="47"/>
			<point x="71" y="14"/>
		</contour>
	</outline>
</glyph>
<glyph name="longs_b_stock" format="2">
	<advance width="650"/>
	<outline>
		<contour>
			<point x="405" y="-10" type="curve"/>
			<point x="405" y="-10" type="line"/>
			<point x="483" y="-10"/>
			<point x="630" y="97"/>
			<point x="630" y="237" type="curve"/>
			<point x="630" y="349"/>
			<point x="585" y="421"/>
			<point x="488" y="441" type="curve"/>
			<point x="454" y="434"/>
			<point x="380" y="417"/>
			<point x="335" y="403" type="curve"/>
			<point x="335" y="415"/>
			<point x="336" y="427"/>
			<point x="337" y="439" type="curve"/>
			<point x="451" y="537"/>
			<point x="486" y="602"/>
			<point x="525" y="660" type="curve"/>
			<point x="521" y="672" type="line"/>
			<point x="397" y="692" type="line"/>
			<point x="391" y="672" type="line"/>
			<point x="426" y="655" type="line"/>
			<point x="426" y="619"/>
			<point x="407" y="565"/>
			<point x="339" y="481" type="curve"/>
			<point x="345" y="580"/>
			<point x="354" y="653"/>
			<point x="359" y="688" type="curve"/>
			<point x="356" y="695" type="line"/>
			<point x="361" y="700" type="line"/>
			<point x="265" y="716"/>
			<point x="208" y="720"/>
			<point x="145" y="660" type="curve"/>
			<point x="123" y="621"/>
			<point x="85" y="465"/>
			<point x="45" y="436" type="curve"/>
			<point x="45" y="421" type="line"/>
			<point x="79" y="379"/>
			<point x="70" y="370"/>
			<point x="70" y="236" type="curve"/>
			<point x="70" y="127"/>
			<point x="64" y="61"/>
			<point x="63" y="-5" type="curve"/>
			<point x="178" y="2" type="line"/>
			<point x="172" y="196"/>
			<point x="164" y="380"/>
			<point x="164" y="520" type="curve"/>
			<point x="164" y="559"/>
			<point x="167" y="599"/>
			<point x="174" y="620" type="curve"/>
			<point x="205" y="620"/>
			<point x="225" y="615"/>
			<point x="243" y="610" type="curve"/>
			<point x="246" y="483"/>
			<point x="243" y="290"/>
			<point x="243" y="94" type="curve"/>
			<point x="260" y="37"/>
			<point x="330" y="-10"/>
		</contour>
		<contour>
			<point x="500" y="74" type="curve"/>
			<point x="500" y="74" type="line"/>
			<point x="322" y="60"/>
			<point x="332" y="156"/>
			<point x="332" y="254" type="curve"/>
			<point x="332" y="293"/>
			<point x="333" y="330"/>
			<point x="334" y="365" type="curve"/>
			<point x="525" y="394"/>
			<point x="624" y="175"/>
		</contour>
	</outline>
</glyph>
<glyph name="longs_etfin" format="2">
	<advance width="447"/>
	<outline>
		<contour>
			<point x="63" y="-5" type="curve"/>
			<point x="175" y="22" type="line"/>
			<point x="169" y="216"/>
			<point x="161" y="380"/>
			<point x="161" y="520" type="curve" smooth="yes"/>
			<point x="161" y="559"/>
			<point x="164" y="599"/>
			<point x="171" y="620" type="curve"/>
			<point x="216" y="620"/>
			<point x="240" y="609"/>
			<point x="262" y="605" type="curve"/>
			<point x="358" y="664" type="line"/>
			<point x="358" y="680" type="line"/>
			<point x="316" y="697"/>
			<point x="282" y="706"/>
			<point x="251" y="710" type="curve"/>
			<point x="211" y="707"/>
			<point x="113" y="609"/>
			<point x="77" y="575" type="curve"/>
			<point x="55" y="536"/>
			<point x="85" y="405"/>
			<point x="45" y="376" type="curve"/>
			<point x="45" y="361" type="line"/>
			<point x="79" y="319"/>
			<point x="70" y="310"/>
			<point x="70" y="176" type="curve" smooth="yes"/>
			<point x="70" y="67"/>
			<point x="64" y="61"/>
		</contour>
		<contour>
			<point x="175" y="-340" type="line"/>
			<point x="328" y="-219"/>
			<point x="417" y="-72"/>
			<point x="417" y="23" type="curve" smooth="yes"/>
			<point x="417" y="95"/>
			<point x="386" y="136"/>
			<point x="307" y="162" type="curve"/>
			<point x="352" y="212"/>
			<point x="417" y="272"/>
			<point x="417" y="338" type="curve" smooth="yes"/>
			<point x="417" y="394"/>
			<point x="361" y="421"/>
			<point x="316" y="440" type="curve"/>
			<point x="210" y="371" type="line"/>
			<point x="217" y="347" type="line"/>
			<point x="279" y="343"/>
			<point x="312" y="304"/>
			<point x="312" y="258" type="curve" smooth="yes"/>
			<point x="312" y="221"/>
			<point x="291" y="190"/>
			<point x="210" y="112" type="curve"/>
			<point x="212" y="97" type="line"/>
			<point x="298" y="68"/>
			<point x="327" y="9"/>
			<point x="327" y="-48" type="curve" smooth="yes"/>
			<point x="327" y="-147"/>
			<point x="261" y="-229"/>
			<point x="185" y="-264" type="curve"/>
			<point x="164" y="-331" type="line"/>
		</contour>
	</outline>
</glyph>
<glyph name="longs_strok" format="2">
	<advance width="388"/>
	<outline>
		<contour>
			<point x="-5" y="-50" type="line"/>
			<point x="5" y="-53" type="line"/>
			<point x="25" y="-40"/>
			<point x="49" y="-24"/>
			<point x="74" y="-5" type="curve"/>
			<point x="189" y="2" type="line"/>
			<point x="186" y="84" type="line"/>
			<point x="284" y="168"/>
			<point x="373" y="264"/>
			<point x="373" y="325" type="curve"/>
			<point x="373" y="383"/>
			<point x="321" y="423"/>
			<point x="273" y="440" type="curve"/>
			<point x="176" y="408" type="line"/>
			<point x="176" y="449"/>
			<point x="175" y="486"/>
			<point x="175" y="520" type="curve"/>
			<point x="175" y="559"/>
			<point x="178" y="599"/>
			<point x="185" y="620" type="curve"/>
			<point x="230" y="638"/>
			<point x="262" y="618"/>
			<point x="286" y="586" type="curve"/>
			<point x="298" y="586" type="line"/>
			<point x="371" y="669" type="line"/>
			<point x="372" y="680" type="line"/>
			<point x="323" y="698"/>
			<point x="258" y="711"/>
			<point x="214" y="710" type="curve"/>
			<point x="173" y="709"/>
			<point x="130" y="602"/>
			<point x="115" y="561" type="curve"/>
			<point x="89" y="489"/>
			<point x="96" y="465"/>
			<point x="56" y="436" type="curve"/>
			<point x="56" y="421" type="line"/>
			<point x="90" y="379"/>
			<point x="81" y="370"/>
			<point x="81" y="236" type="curve"/>
			<point x="81" y="154"/>
			<point x="78" y="96"/>
			<point x="76" y="45" type="curve"/>
			<point x="44" y="24"/>
			<point x="16" y="9"/>
			<point x="-1" y="0" type="curve"/>
		</contour>
		<contour>
			<point x="185" y="131" type="curve"/>
			<point x="185" y="131" type="line"/>
			<point x="182" y="219"/>
			<point x="179" y="304"/>
			<point x="177" y="380" type="curve"/>
			<point x="239" y="371"/>
			<point x="277" y="346"/>
			<point x="277" y="294" type="curve"/>
			<point x="277" y="237"/>
			<point x="236" y="180"/>
		</contour>
	</outline>
</glyph>
<glyph name="m.calt" format="2">
	<advance width="640"/>
	<outline>
		<contour>
			<point x="40" y="-5" type="curve"/>
			<point x="46" y="-10" type="line"/>
			<point x="195" y="21" type="line"/>
			<point x="195" y="49" type="line"/>
			<point x="158" y="57"/>
			<point x="148" y="72"/>
			<point x="148" y="109" type="curve"/>
			<point x="148" y="321" type="line"/>
			<point x="163" y="332"/>
			<point x="180" y="340"/>
			<point x="202" y="340" type="curve"/>
			<point x="249" y="340"/>
			<point x="270" y="303"/>
			<point x="270" y="234" type="curve"/>
			<point x="270" y="161" type="line" smooth="yes"/>
			<point x="270" y="74"/>
			<point x="260" y="15"/>
			<point x="258" y="-5" type="curve"/>
			<point x="264" y="-10" type="line"/>
			<point x="413" y="21" type="line"/>
			<point x="413" y="55" type="line"/>
			<point x="376" y="63"/>
			<point x="370" y="72"/>
			<point x="370" y="109" type="curve"/>
			<point x="370" y="324" type="line"/>
			<point x="384" y="334"/>
			<point x="400" y="340"/>
			<point x="419" y="340" type="curve"/>
			<point x="466" y="340"/>
			<point x="487" y="303"/>
			<point x="487" y="234" type="curve"/>
			<point x="487" y="161" type="line" smooth="yes"/>
			<point x="487" y="74"/>
			<point x="477" y="15"/>
			<point x="475" y="-5" type="curve"/>
			<point x="481" y="-10" type="line"/>
			<point x="630" y="21" type="line"/>
			<point x="630" y="55" type="line"/>
			<point x="593" y="63"/>
			<point x="587" y="72"/>
			<point x="587" y="109" type="curve"/>
			<point x="587" y="340" type="line" smooth="yes"/>
			<point x="587" y="384"/>
			<point x="530" y="440"/>
			<point x="505" y="440" type="curve"/>
			<point x="484" y="434"/>
			<point x="418" y="399"/>
			<point x="365" y="364" type="curve"/>
			<point x="351" y="402"/>
			<point x="309" y="440"/>
			<point x="288" y="440" type="curve"/>
			<point x="267" y="434"/>
			<point x="201" y="399"/>
			<point x="148" y="364" type="curve"/>
			<point x="148" y="429" type="line"/>
			<point x="137" y="440" type="line"/>
			<point x="41" y="384" type="line"/>
			<point x="47" y="319"/>
			<point x="48" y="233"/>
			<point x="48" y="161" type="curve"/>
			<point x="48" y="74"/>
			<point x="42" y="15"/>
		</contour>
	</outline>
</glyph>
